<svg xmlns="http://www.w3.org/2000/svg" width="100%" height="1180">
<rect width="850" height="540" stroke="yellow" stroke-width="3" fill="white" />

<rect y="640" width="850" height="540" stroke="yellow" stroke-width="3" fill="white" />

<rect width="120" height="80" x="40" y="45" fill="#C0C0C0" />
<line x1="60" y1="45" x2="60" y2="125" style="stroke:#00FF00;stroke-width:1" />
<line x1="140" y1="45" x2="140" y2="125" style="stroke:#00FF00;stroke-width:1" />
<line x1="40" y1="65" x2="160" y2="65" style="stroke:#00FF00;stroke-width:1" />
<line x1="40" y1="105" x2="160" y2="105" style="stroke:#00FF00;stroke-width:1" />
<text x="100.0" y="90.0" fill="blue" dominant-baseline="middle" text-anchor="middle" font-family="Consolas" font-size="60">A</text>

<line x1="40" y1="55" x2="155" y2="55" style="stroke:#FF00FF;stroke-width:1" />
<line x1="155" y1="55" x2="155" y2="80" style="stroke:#FF00FF;stroke-width:1" />
<line x1="155" y1="80" x2="40" y2="80" style="stroke:#FF00FF;stroke-width:1" />
<line x1="40" y1="80" x2="40" y2="55" style="stroke:#FF00FF;stroke-width:1" />
<text x="155" y="50" fill="#C00000" dominant-baseline="hanging" text-anchor="end" font-family="Consolas" font-size="40"></text>

<rect width="120" height="80" x="200" y="45" fill="#C0C0C0" />
<line x1="220" y1="45" x2="220" y2="125" style="stroke:#00FF00;stroke-width:1" />
<line x1="300" y1="45" x2="300" y2="125" style="stroke:#00FF00;stroke-width:1" />
<line x1="200" y1="65" x2="320" y2="65" style="stroke:#00FF00;stroke-width:1" />
<line x1="200" y1="105" x2="320" y2="105" style="stroke:#00FF00;stroke-width:1" />
<text x="260.0" y="90.0" fill="blue" dominant-baseline="middle" text-anchor="middle" font-family="Consolas" font-size="60">B</text>

<line x1="200" y1="55" x2="315" y2="55" style="stroke:#FF00FF;stroke-width:1" />
<line x1="315" y1="55" x2="315" y2="80" style="stroke:#FF00FF;stroke-width:1" />
<line x1="315" y1="80" x2="200" y2="80" style="stroke:#FF00FF;stroke-width:1" />
<line x1="200" y1="80" x2="200" y2="55" style="stroke:#FF00FF;stroke-width:1" />
<text x="315" y="50" fill="#C00000" dominant-baseline="hanging" text-anchor="end" font-family="Consolas" font-size="40"></text>

<rect width="120" height="80" x="360" y="45" fill="#C0C0C0" />
<line x1="380" y1="45" x2="380" y2="125" style="stroke:#00FF00;stroke-width:1" />
<line x1="460" y1="45" x2="460" y2="125" style="stroke:#00FF00;stroke-width:1" />
<line x1="360" y1="65" x2="480" y2="65" style="stroke:#00FF00;stroke-width:1" />
<line x1="360" y1="105" x2="480" y2="105" style="stroke:#00FF00;stroke-width:1" />
<text x="420.0" y="90.0" fill="blue" dominant-baseline="middle" text-anchor="middle" font-family="Consolas" font-size="60">C</text>

<line x1="360" y1="55" x2="475" y2="55" style="stroke:#FF00FF;stroke-width:1" />
<line x1="475" y1="55" x2="475" y2="80" style="stroke:#FF00FF;stroke-width:1" />
<line x1="475" y1="80" x2="360" y2="80" style="stroke:#FF00FF;stroke-width:1" />
<line x1="360" y1="80" x2="360" y2="55" style="stroke:#FF00FF;stroke-width:1" />
<text x="475" y="50" fill="#C00000" dominant-baseline="hanging" text-anchor="end" font-family="Consolas" font-size="40"></text>

<rect width="120" height="80" x="520" y="45" fill="#C0C0C0" />
<line x1="540" y1="45" x2="540" y2="125" style="stroke:#00FF00;stroke-width:1" />
<line x1="620" y1="45" x2="620" y2="125" style="stroke:#00FF00;stroke-width:1" />
<line x1="520" y1="65" x2="640" y2="65" style="stroke:#00FF00;stroke-width:1" />
<line x1="520" y1="105" x2="640" y2="105" style="stroke:#00FF00;stroke-width:1" />
<text x="580.0" y="90.0" fill="blue" dominant-baseline="middle" text-anchor="middle" font-family="Consolas" font-size="60">D</text>

<line x1="520" y1="55" x2="635" y2="55" style="stroke:#FF00FF;stroke-width:1" />
<line x1="635" y1="55" x2="635" y2="80" style="stroke:#FF00FF;stroke-width:1" />
<line x1="635" y1="80" x2="520" y2="80" style="stroke:#FF00FF;stroke-width:1" />
<line x1="520" y1="80" x2="520" y2="55" style="stroke:#FF00FF;stroke-width:1" />
<text x="635" y="50" fill="#C00000" dominant-baseline="hanging" text-anchor="end" font-family="Consolas" font-size="40"></text>

<rect width="120" height="80" x="680" y="45" fill="#C0C0C0" />
<line x1="700" y1="45" x2="700" y2="125" style="stroke:#00FF00;stroke-width:1" />
<line x1="780" y1="45" x2="780" y2="125" style="stroke:#00FF00;stroke-width:1" />
<line x1="680" y1="65" x2="800" y2="65" style="stroke:#00FF00;stroke-width:1" />
<line x1="680" y1="105" x2="800" y2="105" style="stroke:#00FF00;stroke-width:1" />
<text x="740.0" y="90.0" fill="blue" dominant-baseline="middle" text-anchor="middle" font-family="Consolas" font-size="60">E</text>

<line x1="680" y1="55" x2="795" y2="55" style="stroke:#FF00FF;stroke-width:1" />
<line x1="795" y1="55" x2="795" y2="80" style="stroke:#FF00FF;stroke-width:1" />
<line x1="795" y1="80" x2="680" y2="80" style="stroke:#FF00FF;stroke-width:1" />
<line x1="680" y1="80" x2="680" y2="55" style="stroke:#FF00FF;stroke-width:1" />
<text x="795" y="50" fill="#C00000" dominant-baseline="hanging" text-anchor="end" font-family="Consolas" font-size="40"></text>

<rect width="120" height="80" x="40" y="170" fill="#C0C0C0" />
<line x1="60" y1="170" x2="60" y2="250" style="stroke:#00FF00;stroke-width:1" />
<line x1="140" y1="170" x2="140" y2="250" style="stroke:#00FF00;stroke-width:1" />
<line x1="40" y1="190" x2="160" y2="190" style="stroke:#00FF00;stroke-width:1" />
<line x1="40" y1="230" x2="160" y2="230" style="stroke:#00FF00;stroke-width:1" />
<text x="100.0" y="211.0" fill="blue" dominant-baseline="middle" text-anchor="middle" font-family="Consolas" font-size="60">:</text>

<line x1="40" y1="180" x2="155" y2="180" style="stroke:#FF00FF;stroke-width:1" />
<line x1="155" y1="180" x2="155" y2="205" style="stroke:#FF00FF;stroke-width:1" />
<line x1="155" y1="205" x2="40" y2="205" style="stroke:#FF00FF;stroke-width:1" />
<line x1="40" y1="205" x2="40" y2="180" style="stroke:#FF00FF;stroke-width:1" />
<text x="155" y="175" fill="#C00000" dominant-baseline="hanging" text-anchor="end" font-family="Consolas" font-size="40">F</text>

<rect width="120" height="80" x="200" y="170" fill="#C0C0C0" />
<line x1="220" y1="170" x2="220" y2="250" style="stroke:#00FF00;stroke-width:1" />
<line x1="300" y1="170" x2="300" y2="250" style="stroke:#00FF00;stroke-width:1" />
<line x1="200" y1="190" x2="320" y2="190" style="stroke:#00FF00;stroke-width:1" />
<line x1="200" y1="230" x2="320" y2="230" style="stroke:#00FF00;stroke-width:1" />
<text x="260.0" y="211.0" fill="blue" dominant-baseline="middle" text-anchor="middle" font-family="Consolas" font-size="60">;</text>

<line x1="200" y1="180" x2="315" y2="180" style="stroke:#FF00FF;stroke-width:1" />
<line x1="315" y1="180" x2="315" y2="205" style="stroke:#FF00FF;stroke-width:1" />
<line x1="315" y1="205" x2="200" y2="205" style="stroke:#FF00FF;stroke-width:1" />
<line x1="200" y1="205" x2="200" y2="180" style="stroke:#FF00FF;stroke-width:1" />
<text x="315" y="175" fill="#C00000" dominant-baseline="hanging" text-anchor="end" font-family="Consolas" font-size="40">G</text>

<rect width="120" height="80" x="360" y="170" fill="#C0C0C0" />
<line x1="380" y1="170" x2="380" y2="250" style="stroke:#00FF00;stroke-width:1" />
<line x1="460" y1="170" x2="460" y2="250" style="stroke:#00FF00;stroke-width:1" />
<line x1="360" y1="190" x2="480" y2="190" style="stroke:#00FF00;stroke-width:1" />
<line x1="360" y1="230" x2="480" y2="230" style="stroke:#00FF00;stroke-width:1" />
<text x="420.0" y="211.0" fill="blue" dominant-baseline="middle" text-anchor="middle" font-weight="bold" font-family="Consolas" font-size="50">[</text>

<line x1="360" y1="180" x2="475" y2="180" style="stroke:#FF00FF;stroke-width:1" />
<line x1="475" y1="180" x2="475" y2="205" style="stroke:#FF00FF;stroke-width:1" />
<line x1="475" y1="205" x2="360" y2="205" style="stroke:#FF00FF;stroke-width:1" />
<line x1="360" y1="205" x2="360" y2="180" style="stroke:#FF00FF;stroke-width:1" />
<text x="475" y="175" fill="#C00000" dominant-baseline="hanging" text-anchor="end" font-family="Consolas" font-size="40">H</text>

<rect width="120" height="80" x="520" y="170" fill="#C0C0C0" />
<line x1="540" y1="170" x2="540" y2="250" style="stroke:#00FF00;stroke-width:1" />
<line x1="620" y1="170" x2="620" y2="250" style="stroke:#00FF00;stroke-width:1" />
<line x1="520" y1="190" x2="640" y2="190" style="stroke:#00FF00;stroke-width:1" />
<line x1="520" y1="230" x2="640" y2="230" style="stroke:#00FF00;stroke-width:1" />
<text x="580.0" y="211.0" fill="blue" dominant-baseline="middle" text-anchor="middle" font-weight="bold" font-family="Consolas" font-size="50">]</text>

<line x1="520" y1="180" x2="635" y2="180" style="stroke:#FF00FF;stroke-width:1" />
<line x1="635" y1="180" x2="635" y2="205" style="stroke:#FF00FF;stroke-width:1" />
<line x1="635" y1="205" x2="520" y2="205" style="stroke:#FF00FF;stroke-width:1" />
<line x1="520" y1="205" x2="520" y2="180" style="stroke:#FF00FF;stroke-width:1" />
<text x="635" y="175" fill="#C00000" dominant-baseline="hanging" text-anchor="end" font-family="Consolas" font-size="40">I</text>

<rect width="120" height="80" x="680" y="170" fill="#C0C0C0" />
<line x1="700" y1="170" x2="700" y2="250" style="stroke:#00FF00;stroke-width:1" />
<line x1="780" y1="170" x2="780" y2="250" style="stroke:#00FF00;stroke-width:1" />
<line x1="680" y1="190" x2="800" y2="190" style="stroke:#00FF00;stroke-width:1" />
<line x1="680" y1="230" x2="800" y2="230" style="stroke:#00FF00;stroke-width:1" />
<text x="740.0" y="211.0" fill="blue" dominant-baseline="middle" text-anchor="middle" font-family="Consolas" font-size="60">,</text>

<line x1="680" y1="180" x2="795" y2="180" style="stroke:#FF00FF;stroke-width:1" />
<line x1="795" y1="180" x2="795" y2="205" style="stroke:#FF00FF;stroke-width:1" />
<line x1="795" y1="205" x2="680" y2="205" style="stroke:#FF00FF;stroke-width:1" />
<line x1="680" y1="205" x2="680" y2="180" style="stroke:#FF00FF;stroke-width:1" />
<text x="795" y="175" fill="#C00000" dominant-baseline="hanging" text-anchor="end" font-family="Consolas" font-size="40">J</text>

<rect width="120" height="80" x="40" y="295" fill="#C0C0C0" />
<line x1="60" y1="295" x2="60" y2="375" style="stroke:#00FF00;stroke-width:1" />
<line x1="140" y1="295" x2="140" y2="375" style="stroke:#00FF00;stroke-width:1" />
<line x1="40" y1="315" x2="160" y2="315" style="stroke:#00FF00;stroke-width:1" />
<line x1="40" y1="355" x2="160" y2="355" style="stroke:#00FF00;stroke-width:1" />
<text x="100.0" y="350.0" fill="blue" dominant-baseline="middle" text-anchor="middle" font-family="Consolas" font-size="80">'</text>

<line x1="40" y1="305" x2="155" y2="305" style="stroke:#FF00FF;stroke-width:1" />
<line x1="155" y1="305" x2="155" y2="330" style="stroke:#FF00FF;stroke-width:1" />
<line x1="155" y1="330" x2="40" y2="330" style="stroke:#FF00FF;stroke-width:1" />
<line x1="40" y1="330" x2="40" y2="305" style="stroke:#FF00FF;stroke-width:1" />
<text x="155" y="300" fill="#C00000" dominant-baseline="hanging" text-anchor="end" font-family="Consolas" font-size="40">K</text>

<rect width="120" height="80" x="200" y="295" fill="#C0C0C0" />
<line x1="220" y1="295" x2="220" y2="375" style="stroke:#00FF00;stroke-width:1" />
<line x1="300" y1="295" x2="300" y2="375" style="stroke:#00FF00;stroke-width:1" />
<line x1="200" y1="315" x2="320" y2="315" style="stroke:#00FF00;stroke-width:1" />
<line x1="200" y1="355" x2="320" y2="355" style="stroke:#00FF00;stroke-width:1" />
<text x="260.0" y="337.0" fill="blue" dominant-baseline="middle" text-anchor="middle" font-family="Consolas" font-size="80">&lt;</text>

<line x1="200" y1="305" x2="315" y2="305" style="stroke:#FF00FF;stroke-width:1" />
<line x1="315" y1="305" x2="315" y2="330" style="stroke:#FF00FF;stroke-width:1" />
<line x1="315" y1="330" x2="200" y2="330" style="stroke:#FF00FF;stroke-width:1" />
<line x1="200" y1="330" x2="200" y2="305" style="stroke:#FF00FF;stroke-width:1" />
<text x="315" y="300" fill="#C00000" dominant-baseline="hanging" text-anchor="end" font-family="Consolas" font-size="40">L</text>

<rect width="120" height="80" x="360" y="295" fill="#C0C0C0" />
<line x1="380" y1="295" x2="380" y2="375" style="stroke:#00FF00;stroke-width:1" />
<line x1="460" y1="295" x2="460" y2="375" style="stroke:#00FF00;stroke-width:1" />
<line x1="360" y1="315" x2="480" y2="315" style="stroke:#00FF00;stroke-width:1" />
<line x1="360" y1="355" x2="480" y2="355" style="stroke:#00FF00;stroke-width:1" />
<text x="420.0" y="337.0" fill="blue" dominant-baseline="middle" text-anchor="middle" font-family="Consolas" font-size="90">=</text>

<line x1="360" y1="305" x2="475" y2="305" style="stroke:#FF00FF;stroke-width:1" />
<line x1="475" y1="305" x2="475" y2="330" style="stroke:#FF00FF;stroke-width:1" />
<line x1="475" y1="330" x2="360" y2="330" style="stroke:#FF00FF;stroke-width:1" />
<line x1="360" y1="330" x2="360" y2="305" style="stroke:#FF00FF;stroke-width:1" />
<text x="475" y="300" fill="#C00000" dominant-baseline="hanging" text-anchor="end" font-family="Consolas" font-size="40">M</text>

<rect width="120" height="80" x="520" y="295" fill="#C0C0C0" />
<line x1="540" y1="295" x2="540" y2="375" style="stroke:#00FF00;stroke-width:1" />
<line x1="620" y1="295" x2="620" y2="375" style="stroke:#00FF00;stroke-width:1" />
<line x1="520" y1="315" x2="640" y2="315" style="stroke:#00FF00;stroke-width:1" />
<line x1="520" y1="355" x2="640" y2="355" style="stroke:#00FF00;stroke-width:1" />
<text x="580.0" y="337.0" fill="blue" dominant-baseline="middle" text-anchor="middle" font-family="Consolas" font-size="80">></text>

<line x1="520" y1="305" x2="635" y2="305" style="stroke:#FF00FF;stroke-width:1" />
<line x1="635" y1="305" x2="635" y2="330" style="stroke:#FF00FF;stroke-width:1" />
<line x1="635" y1="330" x2="520" y2="330" style="stroke:#FF00FF;stroke-width:1" />
<line x1="520" y1="330" x2="520" y2="305" style="stroke:#FF00FF;stroke-width:1" />
<text x="635" y="300" fill="#C00000" dominant-baseline="hanging" text-anchor="end" font-family="Consolas" font-size="40">N</text>

<rect width="120" height="80" x="680" y="295" fill="#C0C0C0" />
<line x1="700" y1="295" x2="700" y2="375" style="stroke:#00FF00;stroke-width:1" />
<line x1="780" y1="295" x2="780" y2="375" style="stroke:#00FF00;stroke-width:1" />
<line x1="680" y1="315" x2="800" y2="315" style="stroke:#00FF00;stroke-width:1" />
<line x1="680" y1="355" x2="800" y2="355" style="stroke:#00FF00;stroke-width:1" />
<text x="740.0" y="359.0" fill="blue" dominant-baseline="middle" text-anchor="middle" font-family="Consolas" font-size="100">^</text>

<line x1="680" y1="305" x2="795" y2="305" style="stroke:#FF00FF;stroke-width:1" />
<line x1="795" y1="305" x2="795" y2="330" style="stroke:#FF00FF;stroke-width:1" />
<line x1="795" y1="330" x2="680" y2="330" style="stroke:#FF00FF;stroke-width:1" />
<line x1="680" y1="330" x2="680" y2="305" style="stroke:#FF00FF;stroke-width:1" />
<text x="795" y="300" fill="#C00000" dominant-baseline="hanging" text-anchor="end" font-family="Consolas" font-size="40">O</text>

<rect width="120" height="80" x="40" y="420" fill="#C0C0C0" />
<line x1="60" y1="420" x2="60" y2="500" style="stroke:#00FF00;stroke-width:1" />
<line x1="140" y1="420" x2="140" y2="500" style="stroke:#00FF00;stroke-width:1" />
<line x1="40" y1="440" x2="160" y2="440" style="stroke:#00FF00;stroke-width:1" />
<line x1="40" y1="480" x2="160" y2="480" style="stroke:#00FF00;stroke-width:1" />
<text x="100.0" y="465.0" fill="blue" dominant-baseline="middle" text-anchor="middle" font-family="Consolas" font-size="60">ENT</text>

<line x1="40" y1="430" x2="155" y2="430" style="stroke:#FF00FF;stroke-width:1" />
<line x1="155" y1="430" x2="155" y2="455" style="stroke:#FF00FF;stroke-width:1" />
<line x1="155" y1="455" x2="40" y2="455" style="stroke:#FF00FF;stroke-width:1" />
<line x1="40" y1="455" x2="40" y2="430" style="stroke:#FF00FF;stroke-width:1" />
<text x="155" y="425" fill="#C00000" dominant-baseline="hanging" text-anchor="end" font-family="Consolas" font-size="40"></text>

<rect width="120" height="80" x="200" y="420" fill="#C0C0C0" />
<line x1="220" y1="420" x2="220" y2="500" style="stroke:#00FF00;stroke-width:1" />
<line x1="300" y1="420" x2="300" y2="500" style="stroke:#00FF00;stroke-width:1" />
<line x1="200" y1="440" x2="320" y2="440" style="stroke:#00FF00;stroke-width:1" />
<line x1="200" y1="480" x2="320" y2="480" style="stroke:#00FF00;stroke-width:1" />
<text x="260.0" y="465.0" fill="blue" dominant-baseline="middle" text-anchor="middle" font-family="calibri" font-size="60">$</text>

<line x1="200" y1="430" x2="315" y2="430" style="stroke:#FF00FF;stroke-width:1" />
<line x1="315" y1="430" x2="315" y2="455" style="stroke:#FF00FF;stroke-width:1" />
<line x1="315" y1="455" x2="200" y2="455" style="stroke:#FF00FF;stroke-width:1" />
<line x1="200" y1="455" x2="200" y2="430" style="stroke:#FF00FF;stroke-width:1" />
<text x="315" y="425" fill="#C00000" dominant-baseline="hanging" text-anchor="end" font-family="Consolas" font-size="40">P</text>

<rect width="120" height="80" x="360" y="420" fill="#C0C0C0" />
<line x1="380" y1="420" x2="380" y2="500" style="stroke:#00FF00;stroke-width:1" />
<line x1="460" y1="420" x2="460" y2="500" style="stroke:#00FF00;stroke-width:1" />
<line x1="360" y1="440" x2="480" y2="440" style="stroke:#00FF00;stroke-width:1" />
<line x1="360" y1="480" x2="480" y2="480" style="stroke:#00FF00;stroke-width:1" />
<text x="420.0" y="475.0" fill="blue" dominant-baseline="middle" text-anchor="middle" font-family="Consolas" font-size="80">"</text>

<line x1="360" y1="430" x2="475" y2="430" style="stroke:#FF00FF;stroke-width:1" />
<line x1="475" y1="430" x2="475" y2="455" style="stroke:#FF00FF;stroke-width:1" />
<line x1="475" y1="455" x2="360" y2="455" style="stroke:#FF00FF;stroke-width:1" />
<line x1="360" y1="455" x2="360" y2="430" style="stroke:#FF00FF;stroke-width:1" />
<text x="475" y="425" fill="#C00000" dominant-baseline="hanging" text-anchor="end" font-family="Consolas" font-size="40">Q</text>

<rect width="120" height="80" x="520" y="420" fill="#C0C0C0" />
<line x1="540" y1="420" x2="540" y2="500" style="stroke:#00FF00;stroke-width:1" />
<line x1="620" y1="420" x2="620" y2="500" style="stroke:#00FF00;stroke-width:1" />
<line x1="520" y1="440" x2="640" y2="440" style="stroke:#00FF00;stroke-width:1" />
<line x1="520" y1="480" x2="640" y2="480" style="stroke:#00FF00;stroke-width:1" />
<text x="580.0" y="465.0" fill="blue" dominant-baseline="middle" text-anchor="middle" font-family="Consolas" font-size="60">EE</text>

<line x1="520" y1="430" x2="635" y2="430" style="stroke:#FF00FF;stroke-width:1" />
<line x1="635" y1="430" x2="635" y2="455" style="stroke:#FF00FF;stroke-width:1" />
<line x1="635" y1="455" x2="520" y2="455" style="stroke:#FF00FF;stroke-width:1" />
<line x1="520" y1="455" x2="520" y2="430" style="stroke:#FF00FF;stroke-width:1" />
<text x="635" y="425" fill="#C00000" dominant-baseline="hanging" text-anchor="end" font-family="Consolas" font-size="40">R</text>

<rect width="120" height="80" x="680" y="420" fill="#C0C0C0" />
<line x1="700" y1="420" x2="700" y2="500" style="stroke:#00FF00;stroke-width:1" />
<line x1="780" y1="420" x2="780" y2="500" style="stroke:#00FF00;stroke-width:1" />
<line x1="680" y1="440" x2="800" y2="440" style="stroke:#00FF00;stroke-width:1" />
<line x1="680" y1="480" x2="800" y2="480" style="stroke:#00FF00;stroke-width:1" />
<text x="740.0" y="466.0" fill="blue" dominant-baseline="middle" text-anchor="middle" font-family="Consolas" font-size="54">&#x1F868;</text>

<line x1="680" y1="430" x2="795" y2="430" style="stroke:#FF00FF;stroke-width:1" />
<line x1="795" y1="430" x2="795" y2="455" style="stroke:#FF00FF;stroke-width:1" />
<line x1="795" y1="455" x2="680" y2="455" style="stroke:#FF00FF;stroke-width:1" />
<line x1="680" y1="455" x2="680" y2="430" style="stroke:#FF00FF;stroke-width:1" />
<text x="795" y="425" fill="#C00000" dominant-baseline="hanging" text-anchor="end" font-family="Consolas" font-size="40"></text>

<rect width="120" height="80" x="40" y="685" fill="#C0C0C0" />
<line x1="60" y1="685" x2="60" y2="765" style="stroke:#00FF00;stroke-width:1" />
<line x1="140" y1="685" x2="140" y2="765" style="stroke:#00FF00;stroke-width:1" />
<line x1="40" y1="705" x2="160" y2="705" style="stroke:#00FF00;stroke-width:1" />
<line x1="40" y1="745" x2="160" y2="745" style="stroke:#00FF00;stroke-width:1" />
<text x="100.0" y="724.5" fill="#C00000" dominant-baseline="middle" text-anchor="middle" font-family="Consolas" font-size="70">a</text>

<line x1="40" y1="695" x2="155" y2="695" style="stroke:#FF00FF;stroke-width:1" />
<line x1="155" y1="695" x2="155" y2="720" style="stroke:#FF00FF;stroke-width:1" />
<line x1="155" y1="720" x2="40" y2="720" style="stroke:#FF00FF;stroke-width:1" />
<line x1="40" y1="720" x2="40" y2="695" style="stroke:#FF00FF;stroke-width:1" />
<text x="155" y="690" fill="#C00000" dominant-baseline="hanging" text-anchor="end" font-family="Consolas" font-size="40"></text>

<rect width="120" height="80" x="200" y="685" fill="#C0C0C0" />
<line x1="220" y1="685" x2="220" y2="765" style="stroke:#00FF00;stroke-width:1" />
<line x1="300" y1="685" x2="300" y2="765" style="stroke:#00FF00;stroke-width:1" />
<line x1="200" y1="705" x2="320" y2="705" style="stroke:#00FF00;stroke-width:1" />
<line x1="200" y1="745" x2="320" y2="745" style="stroke:#00FF00;stroke-width:1" />
<text x="260.0" y="730.0" fill="blue" dominant-baseline="middle" text-anchor="middle" font-family="Consolas" font-size="60">7</text>

<line x1="200" y1="695" x2="315" y2="695" style="stroke:#FF00FF;stroke-width:1" />
<line x1="315" y1="695" x2="315" y2="720" style="stroke:#FF00FF;stroke-width:1" />
<line x1="315" y1="720" x2="200" y2="720" style="stroke:#FF00FF;stroke-width:1" />
<line x1="200" y1="720" x2="200" y2="695" style="stroke:#FF00FF;stroke-width:1" />
<text x="315" y="690" fill="#C00000" dominant-baseline="hanging" text-anchor="end" font-family="Consolas" font-size="40">S</text>

<rect width="120" height="80" x="360" y="685" fill="#C0C0C0" />
<line x1="380" y1="685" x2="380" y2="765" style="stroke:#00FF00;stroke-width:1" />
<line x1="460" y1="685" x2="460" y2="765" style="stroke:#00FF00;stroke-width:1" />
<line x1="360" y1="705" x2="480" y2="705" style="stroke:#00FF00;stroke-width:1" />
<line x1="360" y1="745" x2="480" y2="745" style="stroke:#00FF00;stroke-width:1" />
<text x="420.0" y="730.0" fill="blue" dominant-baseline="middle" text-anchor="middle" font-family="Consolas" font-size="60">8</text>

<line x1="360" y1="695" x2="475" y2="695" style="stroke:#FF00FF;stroke-width:1" />
<line x1="475" y1="695" x2="475" y2="720" style="stroke:#FF00FF;stroke-width:1" />
<line x1="475" y1="720" x2="360" y2="720" style="stroke:#FF00FF;stroke-width:1" />
<line x1="360" y1="720" x2="360" y2="695" style="stroke:#FF00FF;stroke-width:1" />
<text x="475" y="690" fill="#C00000" dominant-baseline="hanging" text-anchor="end" font-family="Consolas" font-size="40">T</text>

<rect width="120" height="80" x="520" y="685" fill="#C0C0C0" />
<line x1="540" y1="685" x2="540" y2="765" style="stroke:#00FF00;stroke-width:1" />
<line x1="620" y1="685" x2="620" y2="765" style="stroke:#00FF00;stroke-width:1" />
<line x1="520" y1="705" x2="640" y2="705" style="stroke:#00FF00;stroke-width:1" />
<line x1="520" y1="745" x2="640" y2="745" style="stroke:#00FF00;stroke-width:1" />
<text x="580.0" y="730.0" fill="blue" dominant-baseline="middle" text-anchor="middle" font-family="Consolas" font-size="60">9</text>

<line x1="520" y1="695" x2="635" y2="695" style="stroke:#FF00FF;stroke-width:1" />
<line x1="635" y1="695" x2="635" y2="720" style="stroke:#FF00FF;stroke-width:1" />
<line x1="635" y1="720" x2="520" y2="720" style="stroke:#FF00FF;stroke-width:1" />
<line x1="520" y1="720" x2="520" y2="695" style="stroke:#FF00FF;stroke-width:1" />
<text x="635" y="690" fill="#C00000" dominant-baseline="hanging" text-anchor="end" font-family="Consolas" font-size="40">U</text>

<rect width="120" height="80" x="680" y="685" fill="#C0C0C0" />
<line x1="700" y1="685" x2="700" y2="765" style="stroke:#00FF00;stroke-width:1" />
<line x1="780" y1="685" x2="780" y2="765" style="stroke:#00FF00;stroke-width:1" />
<line x1="680" y1="705" x2="800" y2="705" style="stroke:#00FF00;stroke-width:1" />
<line x1="680" y1="745" x2="800" y2="745" style="stroke:#00FF00;stroke-width:1" />
<text x="740.0" y="727.0" fill="blue" dominant-baseline="middle" text-anchor="middle" font-family="Consolas" font-size="80">&#xF7;</text>

<line x1="680" y1="695" x2="795" y2="695" style="stroke:#FF00FF;stroke-width:1" />
<line x1="795" y1="695" x2="795" y2="720" style="stroke:#FF00FF;stroke-width:1" />
<line x1="795" y1="720" x2="680" y2="720" style="stroke:#FF00FF;stroke-width:1" />
<line x1="680" y1="720" x2="680" y2="695" style="stroke:#FF00FF;stroke-width:1" />
<text x="795" y="690" fill="#C00000" dominant-baseline="hanging" text-anchor="end" font-family="Consolas" font-size="40"></text>

<rect width="120" height="80" x="40" y="810" fill="#C0C0C0" />
<line x1="60" y1="810" x2="60" y2="890" style="stroke:#00FF00;stroke-width:1" />
<line x1="140" y1="810" x2="140" y2="890" style="stroke:#00FF00;stroke-width:1" />
<line x1="40" y1="830" x2="160" y2="830" style="stroke:#00FF00;stroke-width:1" />
<line x1="40" y1="870" x2="160" y2="870" style="stroke:#00FF00;stroke-width:1" />
<text x="100.0" y="856.0" fill="blue" dominant-baseline="middle" text-anchor="middle" font-family="Consolas" font-size="54">&#x1F86A;</text>

<line x1="40" y1="820" x2="155" y2="820" style="stroke:#FF00FF;stroke-width:1" />
<line x1="155" y1="820" x2="155" y2="845" style="stroke:#FF00FF;stroke-width:1" />
<line x1="155" y1="845" x2="40" y2="845" style="stroke:#FF00FF;stroke-width:1" />
<line x1="40" y1="845" x2="40" y2="820" style="stroke:#FF00FF;stroke-width:1" />
<text x="155" y="815" fill="#C00000" dominant-baseline="hanging" text-anchor="end" font-family="Consolas" font-size="40">!</text>

<rect width="120" height="80" x="200" y="810" fill="#C0C0C0" />
<line x1="220" y1="810" x2="220" y2="890" style="stroke:#00FF00;stroke-width:1" />
<line x1="300" y1="810" x2="300" y2="890" style="stroke:#00FF00;stroke-width:1" />
<line x1="200" y1="830" x2="320" y2="830" style="stroke:#00FF00;stroke-width:1" />
<line x1="200" y1="870" x2="320" y2="870" style="stroke:#00FF00;stroke-width:1" />
<text x="260.0" y="855.0" fill="blue" dominant-baseline="middle" text-anchor="middle" font-family="Consolas" font-size="60">4</text>

<line x1="200" y1="820" x2="315" y2="820" style="stroke:#FF00FF;stroke-width:1" />
<line x1="315" y1="820" x2="315" y2="845" style="stroke:#FF00FF;stroke-width:1" />
<line x1="315" y1="845" x2="200" y2="845" style="stroke:#FF00FF;stroke-width:1" />
<line x1="200" y1="845" x2="200" y2="820" style="stroke:#FF00FF;stroke-width:1" />
<text x="315" y="815" fill="#C00000" dominant-baseline="hanging" text-anchor="end" font-family="Consolas" font-size="40">V</text>

<rect width="120" height="80" x="360" y="810" fill="#C0C0C0" />
<line x1="380" y1="810" x2="380" y2="890" style="stroke:#00FF00;stroke-width:1" />
<line x1="460" y1="810" x2="460" y2="890" style="stroke:#00FF00;stroke-width:1" />
<line x1="360" y1="830" x2="480" y2="830" style="stroke:#00FF00;stroke-width:1" />
<line x1="360" y1="870" x2="480" y2="870" style="stroke:#00FF00;stroke-width:1" />
<text x="420.0" y="855.0" fill="blue" dominant-baseline="middle" text-anchor="middle" font-family="Consolas" font-size="60">5</text>

<line x1="360" y1="820" x2="475" y2="820" style="stroke:#FF00FF;stroke-width:1" />
<line x1="475" y1="820" x2="475" y2="845" style="stroke:#FF00FF;stroke-width:1" />
<line x1="475" y1="845" x2="360" y2="845" style="stroke:#FF00FF;stroke-width:1" />
<line x1="360" y1="845" x2="360" y2="820" style="stroke:#FF00FF;stroke-width:1" />
<text x="475" y="815" fill="#C00000" dominant-baseline="hanging" text-anchor="end" font-family="Consolas" font-size="40">W</text>

<rect width="120" height="80" x="520" y="810" fill="#C0C0C0" />
<line x1="540" y1="810" x2="540" y2="890" style="stroke:#00FF00;stroke-width:1" />
<line x1="620" y1="810" x2="620" y2="890" style="stroke:#00FF00;stroke-width:1" />
<line x1="520" y1="830" x2="640" y2="830" style="stroke:#00FF00;stroke-width:1" />
<line x1="520" y1="870" x2="640" y2="870" style="stroke:#00FF00;stroke-width:1" />
<text x="580.0" y="855.0" fill="blue" dominant-baseline="middle" text-anchor="middle" font-family="Consolas" font-size="60">6</text>

<line x1="520" y1="820" x2="635" y2="820" style="stroke:#FF00FF;stroke-width:1" />
<line x1="635" y1="820" x2="635" y2="845" style="stroke:#FF00FF;stroke-width:1" />
<line x1="635" y1="845" x2="520" y2="845" style="stroke:#FF00FF;stroke-width:1" />
<line x1="520" y1="845" x2="520" y2="820" style="stroke:#FF00FF;stroke-width:1" />
<text x="635" y="815" fill="#C00000" dominant-baseline="hanging" text-anchor="end" font-family="Consolas" font-size="40">X</text>

<rect width="120" height="80" x="680" y="810" fill="#C0C0C0" />
<line x1="700" y1="810" x2="700" y2="890" style="stroke:#00FF00;stroke-width:1" />
<line x1="780" y1="810" x2="780" y2="890" style="stroke:#00FF00;stroke-width:1" />
<line x1="680" y1="830" x2="800" y2="830" style="stroke:#00FF00;stroke-width:1" />
<line x1="680" y1="870" x2="800" y2="870" style="stroke:#00FF00;stroke-width:1" />
<text x="740.0" y="852.0" fill="blue" dominant-baseline="middle" text-anchor="middle" font-family="Consolas" font-size="80">&#xD7;</text>

<line x1="680" y1="820" x2="795" y2="820" style="stroke:#FF00FF;stroke-width:1" />
<line x1="795" y1="820" x2="795" y2="845" style="stroke:#FF00FF;stroke-width:1" />
<line x1="795" y1="845" x2="680" y2="845" style="stroke:#FF00FF;stroke-width:1" />
<line x1="680" y1="845" x2="680" y2="820" style="stroke:#FF00FF;stroke-width:1" />
<text x="795" y="815" fill="#C00000" dominant-baseline="hanging" text-anchor="end" font-family="Consolas" font-size="40"></text>

<rect width="120" height="80" x="40" y="935" fill="#C0C0C0" />
<line x1="60" y1="935" x2="60" y2="1015" style="stroke:#00FF00;stroke-width:1" />
<line x1="140" y1="935" x2="140" y2="1015" style="stroke:#00FF00;stroke-width:1" />
<line x1="40" y1="955" x2="160" y2="955" style="stroke:#00FF00;stroke-width:1" />
<line x1="40" y1="995" x2="160" y2="995" style="stroke:#00FF00;stroke-width:1" />
<text x="100.0" y="980.0" fill="blue" dominant-baseline="middle" text-anchor="middle" font-weight="bold" font-family="calibri" font-size="54">@</text>

<line x1="40" y1="945" x2="155" y2="945" style="stroke:#FF00FF;stroke-width:1" />
<line x1="155" y1="945" x2="155" y2="970" style="stroke:#FF00FF;stroke-width:1" />
<line x1="155" y1="970" x2="40" y2="970" style="stroke:#FF00FF;stroke-width:1" />
<line x1="40" y1="970" x2="40" y2="945" style="stroke:#FF00FF;stroke-width:1" />
<text x="155" y="940" fill="#C00000" dominant-baseline="hanging" text-anchor="end" font-family="Consolas" font-size="40">?</text>

<rect width="120" height="80" x="200" y="935" fill="#C0C0C0" />
<line x1="220" y1="935" x2="220" y2="1015" style="stroke:#00FF00;stroke-width:1" />
<line x1="300" y1="935" x2="300" y2="1015" style="stroke:#00FF00;stroke-width:1" />
<line x1="200" y1="955" x2="320" y2="955" style="stroke:#00FF00;stroke-width:1" />
<line x1="200" y1="995" x2="320" y2="995" style="stroke:#00FF00;stroke-width:1" />
<text x="260.0" y="980.0" fill="blue" dominant-baseline="middle" text-anchor="middle" font-family="Consolas" font-size="60">1</text>

<line x1="200" y1="945" x2="315" y2="945" style="stroke:#FF00FF;stroke-width:1" />
<line x1="315" y1="945" x2="315" y2="970" style="stroke:#FF00FF;stroke-width:1" />
<line x1="315" y1="970" x2="200" y2="970" style="stroke:#FF00FF;stroke-width:1" />
<line x1="200" y1="970" x2="200" y2="945" style="stroke:#FF00FF;stroke-width:1" />
<text x="315" y="940" fill="#C00000" dominant-baseline="hanging" text-anchor="end" font-family="Consolas" font-size="40">Y</text>

<rect width="120" height="80" x="360" y="935" fill="#C0C0C0" />
<line x1="380" y1="935" x2="380" y2="1015" style="stroke:#00FF00;stroke-width:1" />
<line x1="460" y1="935" x2="460" y2="1015" style="stroke:#00FF00;stroke-width:1" />
<line x1="360" y1="955" x2="480" y2="955" style="stroke:#00FF00;stroke-width:1" />
<line x1="360" y1="995" x2="480" y2="995" style="stroke:#00FF00;stroke-width:1" />
<text x="420.0" y="980.0" fill="blue" dominant-baseline="middle" text-anchor="middle" font-family="Consolas" font-size="60">2</text>

<line x1="360" y1="945" x2="475" y2="945" style="stroke:#FF00FF;stroke-width:1" />
<line x1="475" y1="945" x2="475" y2="970" style="stroke:#FF00FF;stroke-width:1" />
<line x1="475" y1="970" x2="360" y2="970" style="stroke:#FF00FF;stroke-width:1" />
<line x1="360" y1="970" x2="360" y2="945" style="stroke:#FF00FF;stroke-width:1" />
<text x="475" y="940" fill="#C00000" dominant-baseline="hanging" text-anchor="end" font-family="Consolas" font-size="40">Z</text>

<rect width="120" height="80" x="520" y="935" fill="#C0C0C0" />
<line x1="540" y1="935" x2="540" y2="1015" style="stroke:#00FF00;stroke-width:1" />
<line x1="620" y1="935" x2="620" y2="1015" style="stroke:#00FF00;stroke-width:1" />
<line x1="520" y1="955" x2="640" y2="955" style="stroke:#00FF00;stroke-width:1" />
<line x1="520" y1="995" x2="640" y2="995" style="stroke:#00FF00;stroke-width:1" />
<text x="580.0" y="980.0" fill="blue" dominant-baseline="middle" text-anchor="middle" font-family="Consolas" font-size="60">3</text>

<line x1="520" y1="945" x2="635" y2="945" style="stroke:#FF00FF;stroke-width:1" />
<line x1="635" y1="945" x2="635" y2="970" style="stroke:#FF00FF;stroke-width:1" />
<line x1="635" y1="970" x2="520" y2="970" style="stroke:#FF00FF;stroke-width:1" />
<line x1="520" y1="970" x2="520" y2="945" style="stroke:#FF00FF;stroke-width:1" />
<text x="635" y="929" fill="#C00000" dominant-baseline="hanging" text-anchor="end" font-family="Consolas" font-size="40">_</text>

<rect width="120" height="80" x="680" y="935" fill="#C0C0C0" />
<line x1="700" y1="935" x2="700" y2="1015" style="stroke:#00FF00;stroke-width:1" />
<line x1="780" y1="935" x2="780" y2="1015" style="stroke:#00FF00;stroke-width:1" />
<line x1="680" y1="955" x2="800" y2="955" style="stroke:#00FF00;stroke-width:1" />
<line x1="680" y1="995" x2="800" y2="995" style="stroke:#00FF00;stroke-width:1" />
<text x="740.0" y="977.0" fill="blue" dominant-baseline="middle" text-anchor="middle" font-family="Consolas" font-size="100">-</text>

<line x1="680" y1="945" x2="795" y2="945" style="stroke:#FF00FF;stroke-width:1" />
<line x1="795" y1="945" x2="795" y2="970" style="stroke:#FF00FF;stroke-width:1" />
<line x1="795" y1="970" x2="680" y2="970" style="stroke:#FF00FF;stroke-width:1" />
<line x1="680" y1="970" x2="680" y2="945" style="stroke:#FF00FF;stroke-width:1" />
<text x="795" y="940" fill="#C00000" dominant-baseline="hanging" text-anchor="end" font-family="Consolas" font-size="40"></text>

<rect width="120" height="80" x="40" y="1060" fill="#C0C0C0" />
<line x1="60" y1="1060" x2="60" y2="1140" style="stroke:#00FF00;stroke-width:1" />
<line x1="140" y1="1060" x2="140" y2="1140" style="stroke:#00FF00;stroke-width:1" />
<line x1="40" y1="1080" x2="160" y2="1080" style="stroke:#00FF00;stroke-width:1" />
<line x1="40" y1="1120" x2="160" y2="1120" style="stroke:#00FF00;stroke-width:1" />
<text x="100.0" y="1105.0" fill="blue" dominant-baseline="middle" text-anchor="middle" font-family="Consolas" font-size="60">ON</text>

<line x1="40" y1="1070" x2="155" y2="1070" style="stroke:#FF00FF;stroke-width:1" />
<line x1="155" y1="1070" x2="155" y2="1095" style="stroke:#FF00FF;stroke-width:1" />
<line x1="155" y1="1095" x2="40" y2="1095" style="stroke:#FF00FF;stroke-width:1" />
<line x1="40" y1="1095" x2="40" y2="1070" style="stroke:#FF00FF;stroke-width:1" />
<text x="155" y="1065" fill="#C00000" dominant-baseline="hanging" text-anchor="end" font-family="Consolas" font-size="40"></text>

<rect width="120" height="80" x="200" y="1060" fill="#C0C0C0" />
<line x1="220" y1="1060" x2="220" y2="1140" style="stroke:#00FF00;stroke-width:1" />
<line x1="300" y1="1060" x2="300" y2="1140" style="stroke:#00FF00;stroke-width:1" />
<line x1="200" y1="1080" x2="320" y2="1080" style="stroke:#00FF00;stroke-width:1" />
<line x1="200" y1="1120" x2="320" y2="1120" style="stroke:#00FF00;stroke-width:1" />
<text x="260.0" y="1105.0" fill="blue" dominant-baseline="middle" text-anchor="middle" font-family="Consolas" font-size="60">0</text>

<line x1="200" y1="1070" x2="315" y2="1070" style="stroke:#FF00FF;stroke-width:1" />
<line x1="315" y1="1070" x2="315" y2="1095" style="stroke:#FF00FF;stroke-width:1" />
<line x1="315" y1="1095" x2="200" y2="1095" style="stroke:#FF00FF;stroke-width:1" />
<line x1="200" y1="1095" x2="200" y2="1070" style="stroke:#FF00FF;stroke-width:1" />
<text x="315" y="1065" fill="#C00000" dominant-baseline="hanging" text-anchor="end" font-family="Consolas" font-size="40"></text>

<rect width="120" height="80" x="360" y="1060" fill="#C0C0C0" />
<line x1="380" y1="1060" x2="380" y2="1140" style="stroke:#00FF00;stroke-width:1" />
<line x1="460" y1="1060" x2="460" y2="1140" style="stroke:#00FF00;stroke-width:1" />
<line x1="360" y1="1080" x2="480" y2="1080" style="stroke:#00FF00;stroke-width:1" />
<line x1="360" y1="1120" x2="480" y2="1120" style="stroke:#00FF00;stroke-width:1" />
<text x="420.0" y="1101.0" fill="blue" dominant-baseline="middle" text-anchor="middle" font-family="Consolas" font-size="60">.</text>

<line x1="360" y1="1070" x2="475" y2="1070" style="stroke:#FF00FF;stroke-width:1" />
<line x1="475" y1="1070" x2="475" y2="1095" style="stroke:#FF00FF;stroke-width:1" />
<line x1="475" y1="1095" x2="360" y2="1095" style="stroke:#FF00FF;stroke-width:1" />
<line x1="360" y1="1095" x2="360" y2="1070" style="stroke:#FF00FF;stroke-width:1" />
<text x="475" y="1065" fill="#C00000" dominant-baseline="hanging" text-anchor="end" font-family="Consolas" font-size="40"></text>

<rect width="120" height="80" x="520" y="1060" fill="#C0C0C0" />
<line x1="540" y1="1060" x2="540" y2="1140" style="stroke:#00FF00;stroke-width:1" />
<line x1="620" y1="1060" x2="620" y2="1140" style="stroke:#00FF00;stroke-width:1" />
<line x1="520" y1="1080" x2="640" y2="1080" style="stroke:#00FF00;stroke-width:1" />
<line x1="520" y1="1120" x2="640" y2="1120" style="stroke:#00FF00;stroke-width:1" />
<text x="580.0" y="1105.0" fill="blue" dominant-baseline="middle" text-anchor="middle" font-family="Consolas" font-size="60">SP</text>

<line x1="520" y1="1070" x2="635" y2="1070" style="stroke:#FF00FF;stroke-width:1" />
<line x1="635" y1="1070" x2="635" y2="1095" style="stroke:#FF00FF;stroke-width:1" />
<line x1="635" y1="1095" x2="520" y2="1095" style="stroke:#FF00FF;stroke-width:1" />
<line x1="520" y1="1095" x2="520" y2="1070" style="stroke:#FF00FF;stroke-width:1" />
<text x="635" y="1065" fill="#C00000" dominant-baseline="hanging" text-anchor="end" font-family="Consolas" font-size="40"></text>

<rect width="120" height="80" x="680" y="1060" fill="#C0C0C0" />
<line x1="700" y1="1060" x2="700" y2="1140" style="stroke:#00FF00;stroke-width:1" />
<line x1="780" y1="1060" x2="780" y2="1140" style="stroke:#00FF00;stroke-width:1" />
<line x1="680" y1="1080" x2="800" y2="1080" style="stroke:#00FF00;stroke-width:1" />
<line x1="680" y1="1120" x2="800" y2="1120" style="stroke:#00FF00;stroke-width:1" />
<text x="740.0" y="1102.0" fill="blue" dominant-baseline="middle" text-anchor="middle" font-family="Consolas" font-size="80">+</text>

<line x1="680" y1="1070" x2="795" y2="1070" style="stroke:#FF00FF;stroke-width:1" />
<line x1="795" y1="1070" x2="795" y2="1095" style="stroke:#FF00FF;stroke-width:1" />
<line x1="795" y1="1095" x2="680" y2="1095" style="stroke:#FF00FF;stroke-width:1" />
<line x1="680" y1="1095" x2="680" y2="1070" style="stroke:#FF00FF;stroke-width:1" />
<text x="795" y="1065" fill="#C00000" dominant-baseline="hanging" text-anchor="end" font-family="Consolas" font-size="40"></text>

</svg>