<?xml version="1.0" encoding="UTF-8" standalone="no"?>
<svg
   xmlns:dc="http://purl.org/dc/elements/1.1/"
   xmlns:cc="http://creativecommons.org/ns#"
   xmlns:rdf="http://www.w3.org/1999/02/22-rdf-syntax-ns#"
   xmlns:svg="http://www.w3.org/2000/svg"
   xmlns="http://www.w3.org/2000/svg"
   xmlns:sodipodi="http://sodipodi.sourceforge.net/DTD/sodipodi-0.dtd"
   xmlns:inkscape="http://www.inkscape.org/namespaces/inkscape"
   width="620"
   height="1010"
   version="1.1"
   id="svg509"
   sodipodi:docname="keypad_path.svg"
   inkscape:version="1.0.1 (3bc2e813f5, 2020-09-07)">
  <metadata
     id="metadata515">
    <rdf:RDF>
      <cc:Work
         rdf:about="">
        <dc:format>image/svg+xml</dc:format>
        <dc:type
           rdf:resource="http://purl.org/dc/dcmitype/StillImage" />
        <dc:title></dc:title>
      </cc:Work>
    </rdf:RDF>
  </metadata>
  <defs
     id="defs513" />
  <sodipodi:namedview
     pagecolor="#ffffff"
     bordercolor="#666666"
     borderopacity="1"
     objecttolerance="10"
     gridtolerance="10"
     guidetolerance="10"
     inkscape:pageopacity="0"
     inkscape:pageshadow="2"
     inkscape:window-width="1920"
     inkscape:window-height="1001"
     id="namedview511"
     showgrid="false"
     inkscape:zoom="9.297404"
     inkscape:cx="189.45705"
     inkscape:cy="467.87478"
     inkscape:window-x="-9"
     inkscape:window-y="-9"
     inkscape:window-maximized="1"
     inkscape:current-layer="svg509" />
  <g
     aria-label="A"
     id="text429"
     style="font-size:60px;font-family:Consolas;dominant-baseline:middle;text-anchor:middle;fill:#000000">
    <path
       d="m 86.201172,104.70703 h -5.683594 l -2.666016,-8.349608 h -15.9375 L 59.21875,104.70703 H 53.798828 L 66.513672,66.416016 h 7.148437 z m -9.84375,-13.007811 -6.47461,-20.478516 -6.474609,20.478516 z"
       style="font-size:60px;font-family:Consolas;dominant-baseline:middle;text-anchor:middle;fill:#000000"
       id="path642" />
  </g>
  <g
     aria-label="B"
     id="text431"
     style="font-size:60px;font-family:Consolas;dominant-baseline:middle;text-anchor:middle;fill:#000000">
    <path
       d="m 203.27148,93.251953 q 0,2.753906 -1.08398,4.892578 -1.05469,2.109379 -3.04688,3.574219 -1.96289,1.46484 -4.77539,2.22656 -2.7832,0.76172 -6.21093,0.76172 H 178.13477 V 66.416016 h 10.95703 q 12.80273,0 12.80273,9.316406 0,3.105469 -1.49414,5.332031 -1.46484,2.226563 -4.80469,3.310547 1.55274,0.292969 2.92969,0.996094 1.40625,0.703125 2.46094,1.816406 1.05469,1.113281 1.66992,2.636719 0.61523,1.523437 0.61523,3.427734 z m -6.79687,-16.816406 q 0,-1.171875 -0.35156,-2.197266 -0.35157,-1.054687 -1.23047,-1.787109 -0.87891,-0.761719 -2.37305,-1.201172 -1.49414,-0.439453 -3.7793,-0.439453 h -5.39062 v 11.982422 h 5.21484 q 1.78711,0 3.22266,-0.38086 1.46484,-0.380859 2.49023,-1.171875 1.05469,-0.791015 1.61133,-1.96289 0.58594,-1.201172 0.58594,-2.841797 z m 1.25976,16.992187 q 0,-1.464843 -0.61523,-2.636718 -0.61523,-1.171875 -1.78711,-1.962891 -1.17187,-0.820313 -2.87109,-1.259766 -1.66992,-0.439453 -3.7793,-0.439453 h -5.33203 V 100.3125 h 5.50781 q 4.48242,0 6.67969,-1.669922 2.19726,-1.669922 2.19726,-5.214844 z"
       style="font-size:60px;font-family:Consolas;dominant-baseline:middle;text-anchor:middle;fill:#000000"
       id="path639" />
  </g>
  <g
     aria-label="C"
     id="text433"
     style="font-size:60px;font-family:Consolas;dominant-baseline:middle;text-anchor:middle;fill:#000000">
    <path
       d="m 322.65625,103.27148 q -4.59961,1.9043 -9.63867,1.9043 -8.11524,0 -12.48047,-4.83398 -4.33594,-4.863284 -4.33594,-14.355472 0,-4.599609 1.20117,-8.320312 1.20118,-3.720704 3.42774,-6.298829 2.22656,-2.607421 5.39062,-4.013671 3.16407,-1.40625 7.08985,-1.40625 2.66601,0 4.95117,0.46875 2.28515,0.439453 4.39453,1.376953 v 5.126953 q -2.08008,-1.142578 -4.30664,-1.728516 -2.22656,-0.615234 -4.86328,-0.615234 -2.69531,0 -4.89258,1.02539 -2.16797,0.996094 -3.69141,2.929688 -1.52343,1.904297 -2.34375,4.6875 -0.82031,2.753906 -0.82031,6.298828 0,7.441406 3.01758,11.220703 3.01758,3.779299 8.84766,3.779299 2.46093,0 4.71679,-0.556643 2.25586,-0.585937 4.33594,-1.611328 z"
       style="font-size:60px;font-family:Consolas;dominant-baseline:middle;text-anchor:middle;fill:#000000"
       id="path636" />
  </g>
  <g
     aria-label="D"
     id="text435"
     style="font-size:60px;font-family:Consolas;dominant-baseline:middle;text-anchor:middle;fill:#000000">
    <path
       d="m 444.35547,85.136719 q 0,2.753906 -0.43945,5.273437 -0.41016,2.519531 -1.34766,4.6875 -0.9375,2.167969 -2.43164,3.955078 -1.49414,1.757816 -3.66211,3.017576 -2.16797,1.25977 -5.03906,1.96289 -2.8711,0.67383 -6.53321,0.67383 h -8.20312 V 66.416016 h 9.87305 q 8.96484,0 13.35937,4.628906 4.42383,4.599609 4.42383,14.091797 z m -5.47852,0.380859 q 0,-4.072266 -0.76172,-6.884766 -0.76171,-2.8125 -2.31445,-4.541015 -1.55273,-1.728516 -3.89648,-2.490235 -2.34375,-0.791015 -5.50782,-0.791015 h -4.48242 v 29.384763 h 3.89649 q 13.0664,0 13.0664,-14.677732 z"
       style="font-size:60px;font-family:Consolas;dominant-baseline:middle;text-anchor:middle;fill:#000000"
       id="path633" />
  </g>
  <g
     aria-label="E"
     id="text437"
     style="font-size:60px;font-family:Consolas;dominant-baseline:middle;text-anchor:middle;fill:#000000">
    <path
       d="M 561.16211,104.70703 H 539.39453 V 66.416016 h 21.76758 v 4.394531 h -16.55274 v 11.865234 h 15.90821 v 4.394531 h -15.90821 v 13.183598 h 16.55274 z"
       style="font-size:60px;font-family:Consolas;dominant-baseline:middle;text-anchor:middle;fill:#000000"
       id="path630" />
  </g>
  <g
     aria-label=":"
     id="text439"
     style="font-size:60px;font-family:Consolas;dominant-baseline:middle;text-anchor:middle;fill:#000000">
    <path
       d="m 70,190.76562 q 0.908203,0 1.728516,0.38086 0.820312,0.35157 1.435546,0.9668 0.615235,0.61524 0.966797,1.43555 0.38086,0.82031 0.38086,1.72851 0,0.9375 -0.38086,1.75782 -0.351562,0.79101 -0.966797,1.40625 -0.615234,0.61523 -1.435546,0.96679 -0.820313,0.35157 -1.728516,0.35157 -0.9375,0 -1.757813,-0.35157 -0.791015,-0.35156 -1.40625,-0.96679 -0.615234,-0.61524 -0.966796,-1.40625 -0.351563,-0.82032 -0.351563,-1.75782 0,-0.9082 0.351563,-1.72851 0.351562,-0.82031 0.966796,-1.43555 0.615235,-0.61523 1.40625,-0.9668 Q 69.0625,190.76562 70,190.76562 Z m 0,21.47461 q 0.908203,0 1.728516,0.38086 0.820312,0.35157 1.435546,0.9668 0.615235,0.61523 0.966797,1.43555 0.38086,0.82031 0.38086,1.72851 0,0.9375 -0.38086,1.75782 -0.351562,0.79101 -0.966797,1.40625 -0.615234,0.61523 -1.435546,0.96679 -0.820313,0.35156 -1.728516,0.35156 -0.9375,0 -1.757813,-0.35156 -0.791015,-0.35156 -1.40625,-0.96679 -0.615234,-0.61524 -0.966796,-1.40625 -0.351563,-0.82032 -0.351563,-1.75782 0,-0.9082 0.351563,-1.72851 0.351562,-0.82032 0.966796,-1.43555 0.615235,-0.61523 1.40625,-0.9668 Q 69.0625,212.24023 70,212.24023 Z"
       style="font-size:60px;font-family:Consolas;dominant-baseline:middle;text-anchor:middle;fill:#000000"
       id="path627" />
  </g>
  <g
     aria-label=";"
     id="text441"
     style="font-size:60px;font-family:Consolas;dominant-baseline:middle;text-anchor:middle;fill:#000000">
    <path
       d="m 180.83008,226.71289 q 1.49414,0.0586 2.90039,-0.26367 1.40625,-0.32227 2.46094,-0.9668 1.08398,-0.61523 1.72851,-1.55273 0.64453,-0.9375 0.64453,-2.13867 0,-1.23047 -0.43945,-1.99219 -0.41016,-0.76172 -0.9375,-1.40625 -0.52734,-0.64453 -0.9668,-1.37696 -0.41015,-0.73242 -0.41015,-1.96289 0,-0.61523 0.23437,-1.28906 0.23438,-0.67383 0.70313,-1.23047 0.49804,-0.55664 1.23047,-0.9082 0.76171,-0.35156 1.7871,-0.35156 1.0254,0 1.9629,0.43945 0.96679,0.41016 1.66992,1.28906 0.73242,0.87891 1.14258,2.19727 0.43945,1.31836 0.43945,3.10547 0,2.43164 -0.9082,4.6582 -0.87891,2.25586 -2.66602,3.98438 -1.75781,1.72851 -4.42383,2.7539 -2.63672,1.02539 -6.15234,1.02539 z M 190,190.76562 q 0.9082,0 1.72852,0.38086 0.82031,0.35157 1.43554,0.9668 0.61524,0.61524 0.9668,1.43555 0.38086,0.82031 0.38086,1.72851 0,0.9375 -0.38086,1.75782 -0.35156,0.79101 -0.9668,1.40625 -0.61523,0.61523 -1.43554,0.96679 -0.82032,0.35157 -1.72852,0.35157 -0.9375,0 -1.75781,-0.35157 -0.79102,-0.35156 -1.40625,-0.96679 -0.61524,-0.61524 -0.9668,-1.40625 -0.35156,-0.82032 -0.35156,-1.75782 0,-0.9082 0.35156,-1.72851 0.35156,-0.82031 0.9668,-1.43555 0.61523,-0.61523 1.40625,-0.9668 0.82031,-0.38086 1.75781,-0.38086 z"
       style="font-size:60px;font-family:Consolas;dominant-baseline:middle;text-anchor:middle;fill:#000000"
       id="path624" />
  </g>
  <g
     aria-label="["
     id="text443"
     style="font-weight:bold;font-size:50px;font-family:Consolas;dominant-baseline:middle;text-anchor:middle;fill:#000000">
    <path
       d="m 303.70117,229.09473 v -45.28809 h 12.8418 v 4.63867 h -7.34863 v 36.01074 h 7.34863 v 4.63868 z"
       style="font-weight:bold;font-size:50px;font-family:Consolas;dominant-baseline:middle;text-anchor:middle;fill:#000000"
       id="path621" />
  </g>
  <g
     aria-label="]"
     id="text445"
     style="font-weight:bold;font-size:50px;font-family:Consolas;dominant-baseline:middle;text-anchor:middle;fill:#000000">
    <path
       d="m 422.7002,229.09473 v -4.63868 H 430 v -36.01074 h -7.2998 v -4.63867 h 12.79296 v 45.28809 z"
       style="font-weight:bold;font-size:50px;font-family:Consolas;dominant-baseline:middle;text-anchor:middle;fill:#000000"
       id="path618" />
  </g>
  <g
     aria-label=","
     id="text447"
     style="font-size:60px;font-family:Consolas;dominant-baseline:middle;text-anchor:middle;fill:#000000">
    <path
       d="m 540.47852,226.71289 q 1.49414,0.0586 2.90039,-0.26367 1.40625,-0.32227 2.46093,-0.9668 1.08399,-0.61523 1.72852,-1.55273 0.64453,-0.9375 0.64453,-2.13867 0,-1.23047 -0.43945,-1.99219 -0.41016,-0.76172 -0.9375,-1.40625 -0.52735,-0.64453 -0.9668,-1.37696 -0.41016,-0.73242 -0.41016,-1.96289 0,-0.61523 0.23438,-1.28906 0.23437,-0.67383 0.70312,-1.23047 0.49805,-0.55664 1.23047,-0.9082 0.76172,-0.35156 1.78711,-0.35156 1.02539,0 1.96289,0.43945 0.9668,0.41016 1.66992,1.28906 0.73243,0.87891 1.14258,2.19727 0.43946,1.31836 0.43946,3.10547 0,2.43164 -0.90821,4.6582 -0.8789,2.25586 -2.66601,3.98438 -1.75782,1.72851 -4.42383,2.7539 -2.63672,1.02539 -6.15234,1.02539 z"
       style="font-size:60px;font-family:Consolas;dominant-baseline:middle;text-anchor:middle;fill:#000000"
       id="path615" />
  </g>
  <g
     aria-label="'"
     id="text449"
     style="font-size:90px;font-family:Consolas;dominant-baseline:middle;text-anchor:middle;fill:#000000">
    <path
       d="m 75.053711,304.96582 -1.274414,20.61035 h -7.558594 l -1.230469,-20.61035 z"
       style="font-size:90px;font-family:Consolas;dominant-baseline:middle;text-anchor:middle;fill:#000000"
       id="path612" />
  </g>
  <g
     aria-label="&lt;"
     id="text451"
     style="font-size:70px;font-family:Consolas;dominant-baseline:middle;text-anchor:middle;fill:#000000">
    <path
       d="m 202.13379,340.94531 -3.72559,3.75977 -22.96875,-19.17481 22.96875,-19.1748 3.72559,3.79394 -18.62793,15.3125 z"
       style="font-size:70px;font-family:Consolas;dominant-baseline:middle;text-anchor:middle;fill:#000000"
       id="path609" />
  </g>
  <g
     aria-label="="
     id="text453"
     style="font-size:80px;font-family:Consolas;dominant-baseline:middle;text-anchor:middle;fill:#000000">
    <path
       d="m 326.79687,321.375 h -33.59375 v -5.74219 h 33.59375 z m 0,13.59375 h -33.59375 v -5.74219 h 33.59375 z"
       style="font-size:80px;font-family:Consolas;dominant-baseline:middle;text-anchor:middle;fill:#000000"
       id="path606" />
  </g>
  <g
     aria-label="&gt;"
     id="text455"
     style="font-size:70px;font-family:Consolas;dominant-baseline:middle;text-anchor:middle;fill:#000000">
    <path
       d="m 417.90039,310.14941 3.69141,-3.79394 22.96875,19.1748 -22.96875,19.17481 -3.69141,-3.75977 18.62793,-15.34668 z"
       style="font-size:70px;font-family:Consolas;dominant-baseline:middle;text-anchor:middle;fill:#000000"
       id="path603" />
  </g>
  <g
     aria-label="^"
     id="text457"
     style="font-size:100px;font-family:Consolas;dominant-baseline:middle;text-anchor:middle;fill:#000000">
    <path
       d="m 572.02148,340.89453 h -8.49609 l -14.11133,-24.46289 -13.28125,24.46289 h -7.71484 l 17.87109,-31.20117 h 6.9336 z"
       style="font-size:100px;font-family:Consolas;dominant-baseline:middle;text-anchor:middle;fill:#000000"
       id="path600" />
  </g>
  <g
     aria-label="ENT"
     id="text459"
     style="font-size:50px;font-family:Consolas;dominant-baseline:middle;text-anchor:middle;fill:#000000">
    <path
       d="M 51.811523,462.25586 H 33.671875 v -31.90918 h 18.139648 v 3.66211 H 38.017578 v 9.88769 h 13.256836 v 3.66211 H 38.017578 v 10.98633 h 13.793945 z"
       style="font-size:50px;font-family:Consolas;dominant-baseline:middle;text-anchor:middle;fill:#000000"
       id="path593" />
    <path
       d="m 80.864258,462.25586 h -5.664063 l -9.301758,-19.89746 -2.685546,-6.39649 v 16.08887 10.20508 h -4.052735 v -31.90918 h 5.590821 l 8.862304,18.84766 3.198242,7.2998 v -17.08984 -9.05762 h 4.052735 z"
       style="font-size:50px;font-family:Consolas;dominant-baseline:middle;text-anchor:middle;fill:#000000"
       id="path595" />
    <path
       d="M 109.13574,434.05762 H 99.6875 v 28.19824 h -4.394531 v -28.19824 h -9.448242 v -3.71094 h 23.291013 z"
       style="font-size:50px;font-family:Consolas;dominant-baseline:middle;text-anchor:middle;fill:#000000"
       id="path597" />
  </g>
  <g
     aria-label="$"
     id="text461"
     style="font-size:60px;font-family:calibri;dominant-baseline:middle;text-anchor:middle;fill:#000000">
    <path
       d="m 202.09961,453.20801 q 0,2.34375 -0.9082,4.27734 -0.87891,1.9043 -2.51954,3.28125 -1.64062,1.37695 -4.01367,2.19727 -2.37304,0.82031 -5.30273,0.96679 l -0.64453,6.35743 q -0.0293,0.17578 -0.11719,0.32226 -0.0586,0.17578 -0.26367,0.26367 -0.20508,0.11719 -0.58594,0.17578 -0.35156,0.0586 -0.9375,0.0586 -0.67383,0 -1.08398,-0.0879 -0.38086,-0.0586 -0.61524,-0.17578 -0.23437,-0.0879 -0.32226,-0.29297 -0.0586,-0.17578 0,-0.41016 l 0.67382,-6.32812 q -1.40625,-0.17578 -2.60742,-0.43946 -1.20117,-0.29297 -2.13867,-0.61523 -0.9375,-0.32227 -1.61133,-0.67383 -0.64453,-0.35156 -0.96679,-0.64453 -0.29297,-0.32227 -0.41016,-0.82031 -0.11719,-0.49805 -0.11719,-1.37696 0,-0.64453 0.0586,-1.05468 0.0586,-0.43946 0.17578,-0.70313 0.11718,-0.29297 0.29297,-0.38086 0.20507,-0.11719 0.46875,-0.11719 0.38085,0 1.08398,0.43946 0.70312,0.41015 1.8457,0.9375 1.17188,0.49804 2.8418,0.9375 1.66992,0.43945 4.01367,0.43945 4.16016,0 6.29883,-1.64062 2.16797,-1.64063 2.16797,-4.45313 0,-1.72851 -0.79102,-2.87109 -0.79101,-1.17188 -2.10937,-1.99219 -1.28906,-0.84961 -2.95899,-1.43555 -1.64062,-0.61523 -3.36914,-1.23047 -1.69922,-0.61523 -3.36914,-1.40625 -1.64062,-0.79101 -2.92969,-1.96289 -1.28906,-1.17187 -2.08007,-2.84179 -0.79102,-1.69922 -0.79102,-4.16016 0,-1.96289 0.67383,-3.66211 0.67383,-1.69922 2.02148,-2.95898 1.34766,-1.28907 3.39844,-2.08008 2.05078,-0.82031 4.77539,-0.9961 l 0.58594,-5.91796 q 0.0293,-0.17579 0.0879,-0.32227 0.0879,-0.17578 0.29297,-0.29297 0.20508,-0.11719 0.55664,-0.14648 0.35156,-0.0586 0.9668,-0.0586 0.64453,0 1.05468,0.0586 0.43946,0.0586 0.64453,0.20508 0.23438,0.11718 0.29297,0.29296 0.0586,0.17579 0.0586,0.41016 l -0.64453,5.85938 q 0.8789,0.0879 1.8164,0.32226 0.9668,0.20508 1.78711,0.49805 0.84961,0.26367 1.52344,0.61523 0.67383,0.32227 0.9082,0.55664 0.26367,0.23438 0.35156,0.43946 0.11719,0.20507 0.17579,0.46875 0.0586,0.26367 0.0879,0.61523 0.0586,0.35156 0.0586,0.79102 0,0.55664 -0.0586,0.96679 -0.0293,0.41016 -0.11719,0.64453 -0.0879,0.23438 -0.23438,0.35157 -0.14648,0.11718 -0.35156,0.11718 -0.32226,0 -1.02539,-0.38086 -0.70312,-0.38085 -1.78711,-0.82031 -1.05469,-0.43945 -2.46094,-0.82031 -1.40625,-0.38086 -3.13476,-0.38086 -1.96289,0 -3.36914,0.38086 -1.37696,0.38086 -2.25586,1.08398 -0.84961,0.67383 -1.25977,1.64063 -0.38086,0.9668 -0.38086,2.10937 0,1.75782 0.79102,2.92969 0.82031,1.17188 2.10937,1.99219 1.31836,0.82031 2.98829,1.40625 1.66992,0.58594 3.39843,1.23047 1.75782,0.61523 3.42774,1.37695 1.66992,0.76172 2.95898,1.93359 1.31836,1.17188 2.10938,2.8711 0.82031,1.66992 0.82031,4.13086 z"
       style="font-size:60px;font-family:calibri;dominant-baseline:middle;text-anchor:middle;fill:#000000"
       id="path590" />
  </g>
  <g
     aria-label="&quot;"
     id="text463"
     style="font-size:90px;font-family:Consolas;dominant-baseline:middle;text-anchor:middle;fill:#000000">
    <path
       d="m 306.30859,424.96582 -1.23047,20.61035 h -7.20703 l -1.27441,-20.61035 z m 17.09473,0 -1.23047,20.61035 h -7.20703 l -1.27441,-20.61035 z"
       style="font-size:90px;font-family:Consolas;dominant-baseline:middle;text-anchor:middle;fill:#000000"
       id="path587" />
  </g>
  <g
     aria-label="EE"
     id="text465"
     style="font-size:60px;font-family:Consolas;dominant-baseline:middle;text-anchor:middle;fill:#000000">
    <path
       d="m 424.66797,464.70703 h -21.76758 v -38.29101 h 21.76758 v 4.39453 h -16.55274 v 11.86523 h 15.90821 v 4.39453 h -15.90821 v 13.1836 h 16.55274 z"
       style="font-size:60px;font-family:Consolas;dominant-baseline:middle;text-anchor:middle;fill:#000000"
       id="path582" />
    <path
       d="m 457.65625,464.70703 h -21.76758 v -38.29101 h 21.76758 v 4.39453 h -16.55273 v 11.86523 h 15.9082 v 4.39453 h -15.9082 v 13.1836 h 16.55273 z"
       style="font-size:60px;font-family:Consolas;dominant-baseline:middle;text-anchor:middle;fill:#000000"
       id="path584" />
  </g>
  <g
     aria-label="🡨"
     id="text467"
     style="font-size:54px;font-family:Consolas;dominant-baseline:middle;text-anchor:middle;fill:#000000">
    <path
       d="m 528.7085,444.98828 19.51171,-19.51172 h 8.2793 l -16.50586,16.6377 h 33.16992 v 5.74804 H 539.99365 L 556.49951,464.5 h -8.2793 z"
       style="font-size:54px;font-family:Consolas;dominant-baseline:middle;text-anchor:middle;fill:#000000"
       id="path579" />
  </g>
  <g
     aria-label="a"
     id="text469"
     style="font-size:72px;font-family:Consolas;dominant-baseline:middle;text-anchor:middle;fill:#000000">
    <path
       d="m 78.507812,583.14844 -0.140625,-4.7461 q -2.882812,2.84766 -5.871093,4.11328 -2.953125,1.26563 -6.222657,1.26563 -3.023437,0 -5.167968,-0.77344 -2.144532,-0.77344 -3.550782,-2.10937 -1.371093,-1.3711 -2.039062,-3.19922 -0.632813,-1.82813 -0.632813,-3.97266 0,-5.30859 3.9375,-8.29687 3.972657,-3.02344 11.707032,-3.02344 h 7.3125 v -3.09375 q 0,-3.12891 -2.003907,-4.99219 -2.003906,-1.89844 -6.117187,-1.89844 -2.988281,0 -5.90625,0.66797 -2.882813,0.66797 -5.976563,1.89844 v -5.51953 q 1.160157,-0.42188 2.566407,-0.80859 1.441406,-0.42188 3.023437,-0.73829 1.582031,-0.3164 3.304688,-0.49218 1.722656,-0.21094 3.480468,-0.21094 3.199219,0 5.765625,0.70312 2.566407,0.70313 4.324219,2.14454 1.792969,1.4414 2.742188,3.62109 0.949218,2.17969 0.949218,5.13281 v 24.32813 z m -0.667968,-16.06641 h -7.769532 q -2.285156,0 -3.9375,0.45703 -1.652343,0.45703 -2.707031,1.30078 -1.054687,0.84375 -1.582031,2.03907 -0.492188,1.16015 -0.492188,2.63671 0,1.01954 0.316407,1.96875 0.316406,0.91407 1.019531,1.65235 0.703125,0.70312 1.828125,1.125 1.125,0.42187 2.742187,0.42187 2.109375,0 4.816407,-1.26562 2.742187,-1.30078 5.765625,-4.07813 z"
       style="font-size:72px;font-family:Consolas;dominant-baseline:middle;text-anchor:middle;fill:#000000"
       id="path576" />
  </g>
  <g
     aria-label="7"
     id="text471"
     style="font-size:60px;font-family:Consolas;dominant-baseline:middle;text-anchor:middle;fill:#000000">
    <path
       d="m 202.83203,551.16211 -16.05469,33.54492 h -5.83007 l 16.66992,-33.54492 h -20.6836 v -4.74609 h 25.89844 z"
       style="font-size:60px;font-family:Consolas;dominant-baseline:middle;text-anchor:middle;fill:#000000"
       id="path573" />
  </g>
  <g
     aria-label="8"
     id="text473"
     style="font-size:60px;font-family:Consolas;dominant-baseline:middle;text-anchor:middle;fill:#000000">
    <path
       d="m 323.03711,575.09766 q 0,2.43164 -0.99609,4.33593 -0.9961,1.875 -2.78321,3.16407 -1.78711,1.28906 -4.21875,1.96289 -2.43164,0.67382 -5.27344,0.67382 -3.13476,0 -5.5371,-0.70312 -2.37305,-0.70313 -3.98438,-1.96289 -1.61133,-1.25977 -2.43164,-2.98828 -0.82031,-1.72852 -0.82031,-3.8086 0,-3.51562 1.96289,-6.06445 1.96289,-2.54883 6.06445,-4.62891 -3.75,-1.90429 -5.47851,-4.21875 -1.72852,-2.34375 -1.72852,-5.36132 0,-1.84571 0.76172,-3.57422 0.76172,-1.72852 2.28515,-3.07617 1.55274,-1.34766 3.86719,-2.13868 2.31446,-0.82031 5.44922,-0.82031 2.95899,0 5.18555,0.64453 2.25586,0.61524 3.77929,1.78711 1.52344,1.17188 2.28516,2.8418 0.76172,1.66992 0.76172,3.7207 0,3.33985 -1.875,5.6836 -1.8457,2.34375 -5.27344,4.10156 1.69922,0.84961 3.16406,1.875 1.46485,1.02539 2.54883,2.28515 1.08399,1.25977 1.66992,2.8125 0.61524,1.55274 0.61524,3.45704 z m -6.06445,-19.80469 q 0,-2.60742 -1.84571,-3.86719 -1.8164,-1.28906 -5.12695,-1.28906 -3.28125,0 -5.12695,1.25976 -1.81641,1.25977 -1.81641,3.7793 0,1.14258 0.43945,2.10938 0.43946,0.96679 1.34766,1.8164 0.9375,0.84961 2.31445,1.66992 1.37696,0.82032 3.28125,1.66993 3.31055,-1.55274 4.92188,-3.22266 1.61133,-1.69922 1.61133,-3.92578 z M 317.5,575.47852 q 0,-1.08399 -0.35156,-2.10938 -0.35157,-1.02539 -1.25977,-2.02148 -0.9082,-0.9961 -2.43164,-1.99219 -1.52344,-0.9961 -3.86719,-2.05078 -1.99218,0.96679 -3.36914,1.93359 -1.34765,0.9375 -2.19726,1.93359 -0.82032,0.9668 -1.17188,2.02149 -0.35156,1.05469 -0.35156,2.22656 0,1.31836 0.55664,2.34375 0.58594,0.9961 1.58203,1.69922 0.9961,0.70313 2.37305,1.05469 1.37695,0.35156 2.98828,0.35156 1.55273,0 2.92969,-0.32227 1.37695,-0.32226 2.37304,-0.96679 1.02539,-0.67383 1.61133,-1.66992 0.58594,-1.02539 0.58594,-2.43164 z"
       style="font-size:60px;font-family:Consolas;dominant-baseline:middle;text-anchor:middle;fill:#000000"
       id="path570" />
  </g>
  <g
     aria-label="9"
     id="text475"
     style="font-size:60px;font-family:Consolas;dominant-baseline:middle;text-anchor:middle;fill:#000000">
    <path
       d="m 442.83203,563.4082 q 0,5.59571 -1.34766,9.63867 -1.34765,4.01368 -3.98437,6.6211 -2.63672,2.57812 -6.5332,3.80859 -3.89649,1.23047 -8.99414,1.23047 h -3.19336 v -4.45312 h 3.54492 q 3.7793,0 6.5332,-0.76172 2.75391,-0.76172 4.57031,-2.22657 1.84571,-1.49414 2.8125,-3.60351 0.9668,-2.13867 1.20118,-4.86328 l 0.11718,-1.20117 q -1.8457,1.08398 -4.24804,1.75781 Q 430.9082,570 428.0957,570 q -2.90039,0 -5.09765,-0.84961 -2.19727,-0.84961 -3.66211,-2.37305 -1.43555,-1.52343 -2.16797,-3.60351 -0.73242,-2.10938 -0.73242,-4.57031 0,-2.66602 0.96679,-4.98047 0.9668,-2.31446 2.69532,-4.01368 1.75781,-1.72851 4.18945,-2.7246 2.43164,-0.9961 5.36133,-0.9961 2.84179,0 5.24414,0.9375 2.43164,0.9375 4.18945,3.04688 1.75781,2.08007 2.75391,5.41992 0.99609,3.33984 0.99609,8.11523 z m -13.41797,-13.33008 q -1.64062,0 -3.04687,0.55665 -1.37696,0.52734 -2.40235,1.58203 -0.99609,1.02539 -1.58203,2.54882 -0.58594,1.52344 -0.58594,3.48633 0,1.78711 0.41016,3.19336 0.43945,1.40625 1.31836,2.40235 0.9082,0.96679 2.31445,1.49414 1.40625,0.52734 3.33985,0.52734 1.08398,0 2.22656,-0.20508 1.17187,-0.20508 2.25586,-0.55664 1.11328,-0.35156 2.10937,-0.82031 0.9961,-0.46875 1.78711,-0.99609 0,-3.7793 -0.55664,-6.29883 -0.55664,-2.54883 -1.61133,-4.07227 -1.05468,-1.55273 -2.57812,-2.19726 -1.49414,-0.64454 -3.39844,-0.64454 z"
       style="font-size:60px;font-family:Consolas;dominant-baseline:middle;text-anchor:middle;fill:#000000"
       id="path567" />
  </g>
  <g
     aria-label="÷"
     id="text477"
     style="font-size:80px;font-family:Consolas;dominant-baseline:middle;text-anchor:middle;fill:#000000">
    <path
       d="m 568.71094,568.28906 h -37.42188 v -5.9375 h 37.42188 z m -18.78907,7.10938 q 1.05469,0 1.99219,0.42968 0.9375,0.39063 1.60156,1.09375 0.70313,0.70313 1.09375,1.67969 0.42969,0.9375 0.42969,1.99219 0,1.05469 -0.42969,1.99219 -0.39062,0.9375 -1.09375,1.64062 -0.66406,0.66406 -1.60156,1.09375 -0.9375,0.39063 -1.99219,0.39063 -1.09375,0 -2.03125,-0.39063 -0.9375,-0.42969 -1.64062,-1.09375 -0.70313,-0.70312 -1.13281,-1.64062 -0.39063,-0.9375 -0.39063,-1.99219 0,-1.05469 0.39063,-1.99219 0.42968,-0.97656 1.13281,-1.67969 0.70312,-0.70312 1.64062,-1.09375 0.9375,-0.42968 2.03125,-0.42968 z m 0,-20.15625 q -1.09375,0 -2.03125,-0.39063 -0.9375,-0.42969 -1.64062,-1.13281 -0.70313,-0.70313 -1.13281,-1.64063 -0.39063,-0.9375 -0.39063,-2.03125 0,-1.05468 0.39063,-1.99218 0.42968,-0.9375 1.13281,-1.60157 0.70312,-0.70312 1.64062,-1.09375 0.9375,-0.42968 2.03125,-0.42968 1.05469,0 1.99219,0.42968 0.9375,0.39063 1.60156,1.09375 0.70313,0.66407 1.09375,1.60157 0.42969,0.9375 0.42969,1.99218 0,1.09375 -0.42969,2.03125 -0.39062,0.9375 -1.09375,1.64063 -0.66406,0.70312 -1.60156,1.13281 -0.9375,0.39063 -1.99219,0.39063 z"
       style="font-size:80px;font-family:Consolas;dominant-baseline:middle;text-anchor:middle;fill:#000000"
       id="path564" />
  </g>
  <g
     aria-label="🡪"
     id="text479"
     style="font-size:54px;font-family:Consolas;dominant-baseline:middle;text-anchor:middle;fill:#000000">
    <path
       d="M 73.651855,704.5 H 65.372559 L 81.878418,687.8623 H 48.708496 v -5.74804 h 33.169922 l -16.505859,-16.6377 h 8.279296 l 19.511719,19.51172 z"
       style="font-size:54px;font-family:Consolas;dominant-baseline:middle;text-anchor:middle;fill:#000000"
       id="path561" />
  </g>
  <g
     aria-label="4"
     id="text481"
     style="font-size:60px;font-family:Consolas;dominant-baseline:middle;text-anchor:middle;fill:#000000">
    <path
       d="m 204.94141,696.24023 h -6.53321 v 8.4668 h -5.21484 v -8.4668 h -18.42774 v -4.48242 l 16.31836,-25.34179 h 7.32422 v 25.34179 h 6.53321 z m -11.74805,-24.90234 -13.33008,20.41992 h 13.33008 z"
       style="font-size:60px;font-family:Consolas;dominant-baseline:middle;text-anchor:middle;fill:#000000"
       id="path558" />
  </g>
  <g
     aria-label="5"
     id="text483"
     style="font-size:60px;font-family:Consolas;dominant-baseline:middle;text-anchor:middle;fill:#000000">
    <path
       d="m 322.07031,692.46094 q 0,2.84179 -1.23047,5.18554 -1.23047,2.34375 -3.39843,4.04297 -2.13868,1.66992 -5.06836,2.60742 -2.92969,0.9375 -6.32813,0.9375 -0.84961,0 -1.8457,-0.0586 -0.9668,-0.0293 -1.9336,-0.11719 -0.96679,-0.0586 -1.90429,-0.14648 -0.90821,-0.0879 -1.64063,-0.20508 v -4.62891 q 1.58203,0.38086 3.60352,0.55665 2.05078,0.17578 4.13086,0.17578 2.34375,0 4.21875,-0.55664 1.875,-0.55664 3.19336,-1.58204 1.31836,-1.05468 2.02148,-2.51953 0.70313,-1.49414 0.70313,-3.33984 0,-3.57422 -2.57813,-5.18555 -2.54883,-1.64062 -7.35351,-1.64062 h -7.26563 v -19.57031 h 20.625 v 4.45312 h -15.82031 v 10.75195 h 3.33984 q 2.75391,0 5.36133,0.49805 2.60742,0.49805 4.62891,1.75781 2.05078,1.23047 3.28125,3.33985 1.25976,2.08007 1.25976,5.24414 z"
       style="font-size:60px;font-family:Consolas;dominant-baseline:middle;text-anchor:middle;fill:#000000"
       id="path555" />
  </g>
  <g
     aria-label="6"
     id="text485"
     style="font-size:60px;font-family:Consolas;dominant-baseline:middle;text-anchor:middle;fill:#000000">
    <path
       d="m 443.50586,692.57812 q 0,2.63672 -0.9668,4.95118 -0.9375,2.31445 -2.69531,4.04297 -1.75781,1.69921 -4.24805,2.69531 -2.46093,0.96679 -5.47851,0.96679 -3.16407,0 -5.59571,-0.99609 -2.43164,-1.02539 -4.07226,-3.10547 -1.64063,-2.10937 -2.49024,-5.30273 -0.84961,-3.19336 -0.84961,-7.5586 0,-2.92968 0.38086,-5.68359 0.38086,-2.75391 1.25977,-5.18555 0.87891,-2.43164 2.34375,-4.45312 1.46484,-2.02149 3.63281,-3.45703 2.19727,-1.46485 5.15625,-2.25586 2.95899,-0.82031 6.85547,-0.82031 h 3.7793 v 4.45312 h -4.10156 q -3.42774,0 -5.94727,0.82031 -2.51953,0.82032 -4.21875,2.31446 -1.69922,1.49414 -2.60742,3.60351 -0.90821,2.10938 -1.14258,4.7168 l -0.11719,1.20117 q 1.84571,-1.08398 4.24805,-1.72852 2.43164,-0.67382 5.24414,-0.67382 2.90039,0 5.06836,0.84961 2.19726,0.84961 3.63281,2.37304 1.46485,1.49414 2.19727,3.60352 0.73242,2.10937 0.73242,4.6289 z m -5.33203,0.32227 q 0,-1.75781 -0.43946,-3.16406 -0.41015,-1.43555 -1.31835,-2.40235 -0.90821,-0.99609 -2.31446,-1.52343 -1.37695,-0.55664 -3.31054,-0.55664 -1.11329,0 -2.25586,0.20507 -1.14258,0.20508 -2.25586,0.58594 -1.08399,0.35156 -2.08008,0.82031 -0.9961,0.46875 -1.81641,0.9961 0,3.77929 0.52735,6.32812 0.52734,2.51953 1.55273,4.04297 1.05469,1.52344 2.57813,2.16797 1.52343,0.64453 3.51562,0.64453 1.66992,0 3.04688,-0.52734 1.40625,-0.55664 2.40234,-1.61133 1.02539,-1.05469 1.58203,-2.54883 0.58594,-1.52344 0.58594,-3.45703 z"
       style="font-size:60px;font-family:Consolas;dominant-baseline:middle;text-anchor:middle;fill:#000000"
       id="path552" />
  </g>
  <g
     aria-label="×"
     id="text487"
     style="font-size:80px;font-family:Consolas;dominant-baseline:middle;text-anchor:middle;fill:#000000">
    <path
       d="M 566.09375,673.40625 554.33594,685.16406 566.25,697 l -4.57031,4.57031 -11.83594,-11.91406 -11.75781,11.75781 -4.14063,-4.17969 11.75781,-11.75781 -11.95312,-11.83594 4.57031,-4.57031 11.83594,11.95313 11.75781,-11.75782 z"
       style="font-size:80px;font-family:Consolas;dominant-baseline:middle;text-anchor:middle;fill:#000000"
       id="path549" />
  </g>
  <g
     aria-label="@"
     id="text489"
     style="font-size:54px;font-family:calibri;dominant-baseline:middle;text-anchor:middle;fill:#000000">
    <path
       d="m 89.524902,802.26123 q 0,1.79297 -0.237304,3.66504 -0.210938,1.87207 -0.711914,3.63867 -0.500977,1.7666 -1.31836,3.34863 -0.817383,1.55567 -2.003906,2.74219 -1.186523,1.18653 -2.768555,1.87207 -1.555664,0.65918 -3.585937,0.65918 -1.081055,0 -2.003906,-0.2373 -0.922852,-0.26367 -1.634766,-0.73828 -0.711914,-0.47461 -1.212891,-1.21289 -0.474609,-0.76465 -0.659179,-1.74024 -1.054688,1.05469 -2.056641,1.81934 -0.975586,0.73828 -1.924805,1.21289 -0.949218,0.47461 -1.87207,0.68554 -0.896484,0.21094 -1.766602,0.21094 -1.133789,0 -2.003906,-0.21094 -0.870117,-0.2373 -1.555664,-0.65918 -0.65918,-0.44824 -1.133789,-1.08105 -0.474609,-0.63281 -0.791016,-1.42383 -0.316406,-0.79101 -0.448242,-1.74023 -0.131836,-0.94922 -0.131836,-2.05664 0,-1.13379 0.184571,-2.58399 0.18457,-1.47656 0.606445,-3.03222 0.421875,-1.55567 1.160156,-3.03223 0.738281,-1.50293 1.819336,-2.66309 1.107422,-1.18652 2.610352,-1.89843 1.502929,-0.73829 3.506836,-0.73829 0.84375,0 1.608398,0.21094 0.791016,0.18457 1.50293,0.60645 0.711914,0.42187 1.371093,1.05468 0.65918,0.63282 1.344727,1.50293 l 0.448242,-2.32031 q 0.105469,-0.36914 0.47461,-0.55371 0.36914,-0.18457 1.371093,-0.18457 0.47461,0 0.791016,0.0527 0.342773,0.0527 0.527344,0.1582 0.18457,0.0791 0.237304,0.21094 0.0791,0.13183 0.02637,0.3164 l -2.34668,12.12891 q -0.421875,2.29394 0.210937,3.40137 0.632813,1.08105 2.399414,1.08105 1.081055,0 1.951172,-0.52734 0.870118,-0.55371 1.529297,-1.47657 0.65918,-0.92285 1.107422,-2.13574 0.448242,-1.23926 0.738281,-2.58398 0.290039,-1.3711 0.421875,-2.79492 0.131836,-1.42383 0.131836,-2.74219 0,-2.29395 -0.632812,-4.35059 -0.606446,-2.08301 -2.109375,-3.63867 -1.50293,-1.58203 -4.03418,-2.50488 -2.504883,-0.94922 -6.301758,-0.94922 -3.111328,0 -5.537109,0.68555 -2.425781,0.68554 -4.271484,1.87207 -1.845704,1.16015 -3.164063,2.68945 -1.318359,1.5293 -2.241211,3.26953 -0.896484,1.71387 -1.450195,3.5332 -0.553711,1.79297 -0.84375,3.48047 -0.290039,1.66113 -0.395508,3.1377 -0.0791,1.47656 -0.0791,2.50488 0,2.92676 0.65918,5.35254 0.685547,2.42578 2.34668,4.19238 1.661133,1.7666 4.456054,2.74219 2.794922,0.97559 7.04004,0.97559 1.924804,0 3.480468,-0.23731 1.555664,-0.21094 2.689453,-0.47461 1.160157,-0.2373 1.872071,-0.47461 0.711914,-0.21094 0.975586,-0.21094 0.158203,0 0.263672,0.0791 0.131835,0.10546 0.18457,0.29004 0.0791,0.21093 0.105469,0.50097 0.02637,0.31641 0.02637,0.76465 0,0.36914 -0.02637,0.60645 0,0.2373 -0.05273,0.42187 -0.05273,0.21094 -0.158203,0.36914 -0.0791,0.1582 -0.237305,0.29004 -0.158203,0.13184 -0.922851,0.39551 -0.738281,0.26367 -2.030274,0.52734 -1.265625,0.26367 -2.979492,0.44824 -1.713867,0.18457 -3.770508,0.18457 -4.930664,0 -8.358398,-1.16015 -3.401367,-1.16016 -5.563477,-3.32227 -2.135742,-2.16211 -3.084961,-5.19433 -0.949218,-3.03223 -0.949218,-6.77637 0,-1.37109 0.131836,-3.1377 0.158203,-1.79296 0.553711,-3.79687 0.421875,-2.03027 1.160156,-4.11328 0.738281,-2.10938 1.898437,-4.11328 1.186524,-2.00391 2.847657,-3.77051 1.6875,-1.79297 3.955078,-3.11133 2.293945,-1.34473 5.220703,-2.10937 2.953125,-0.76465 6.670898,-0.76465 4.324219,0 7.461914,1.05468 3.164063,1.02832 5.220703,2.92676 2.056641,1.89844 3.058594,4.64063 1.001953,2.71582 1.001953,6.06445 z m -15.292968,1.71387 q -1.001954,-1.6875 -2.056641,-2.58399 -1.054688,-0.89648 -2.399414,-0.89648 -1.107422,0 -2.003906,0.55371 -0.896485,0.52734 -1.555664,1.39746 -0.65918,0.84375 -1.133789,1.92481 -0.448243,1.08105 -0.738282,2.21484 -0.290039,1.13379 -0.421875,2.21484 -0.105468,1.05469 -0.105468,1.87207 0,1.95118 0.685546,3.00586 0.711914,1.05469 2.373047,1.05469 0.632813,0 1.291992,-0.21094 0.65918,-0.2373 1.397461,-0.68554 0.738282,-0.47461 1.555664,-1.21289 0.84375,-0.76465 1.845704,-1.79297 z M 45.86084,788.41846 Z"
       style="font-size:54px;font-family:calibri;dominant-baseline:middle;text-anchor:middle;fill:#000000"
       id="path546" />
  </g>
  <g
     aria-label="1"
     id="text491"
     style="font-size:60px;font-family:Consolas;dominant-baseline:middle;text-anchor:middle;fill:#000000">
    <path
       d="m 202.71484,824.70703 h -24.05273 v -4.74609 h 9.84375 v -27.94922 l -9.16992,4.98047 -1.875,-4.33594 12.1875,-6.41602 h 4.51172 v 33.72071 h 8.55468 z"
       style="font-size:60px;font-family:Consolas;dominant-baseline:middle;text-anchor:middle;fill:#000000"
       id="path543" />
  </g>
  <g
     aria-label="2"
     id="text493"
     style="font-size:60px;font-family:Consolas;dominant-baseline:middle;text-anchor:middle;fill:#000000">
    <path
       d="M 323.03711,824.70703 H 297.8125 v -4.57031 l 9.90234,-9.84375 q 2.43164,-2.40235 3.95508,-4.16016 1.52344,-1.75781 2.37305,-3.19336 0.84961,-1.46484 1.14258,-2.7539 0.29297,-1.28907 0.29297,-2.78321 0,-1.40625 -0.38086,-2.66601 -0.38086,-1.28906 -1.17188,-2.25586 -0.79101,-0.9668 -2.05078,-1.52344 -1.25977,-0.55664 -3.01758,-0.55664 -2.43164,0 -4.42383,1.08398 -1.99218,1.08399 -3.66211,2.8125 l -2.8125,-3.36914 q 2.16797,-2.28515 4.98047,-3.66211 2.8418,-1.37695 6.5918,-1.37695 2.54883,0 4.62891,0.76172 2.10937,0.76172 3.63281,2.19727 1.52344,1.43554 2.34375,3.51562 0.84961,2.08008 0.84961,4.6875 0,2.19727 -0.58594,4.07227 -0.58594,1.875 -1.78711,3.75 -1.17187,1.8457 -2.98828,3.83789 -1.78711,1.99218 -4.24805,4.36523 l -6.94336,6.76758 h 18.60352 z"
       style="font-size:60px;font-family:Consolas;dominant-baseline:middle;text-anchor:middle;fill:#000000"
       id="path540" />
  </g>
  <g
     aria-label="3"
     id="text495"
     style="font-size:60px;font-family:Consolas;dominant-baseline:middle;text-anchor:middle;fill:#000000">
    <path
       d="m 442.30469,813.07617 q 0,2.51953 -1.02539,4.7461 -1.02539,2.19726 -3.07618,3.86718 -2.05078,1.64063 -5.15625,2.60742 -3.10546,0.9375 -7.23632,0.9375 -2.28516,0 -4.10157,-0.14648 -1.8164,-0.14648 -3.39843,-0.38086 v -4.57031 q 1.8164,0.32226 3.83789,0.49805 2.02148,0.17578 4.13086,0.17578 2.87109,0 4.89257,-0.49805 2.05079,-0.52734 3.33985,-1.49414 1.28906,-0.9668 1.875,-2.34375 0.58594,-1.37695 0.58594,-3.10547 0,-1.58203 -0.70313,-2.75391 -0.70312,-1.17187 -1.99219,-1.96289 -1.25976,-0.79101 -3.04687,-1.17187 -1.75781,-0.41016 -3.86719,-0.41016 h -4.36523 v -4.18945 h 4.42382 q 1.72852,0 3.13477,-0.43945 1.43555,-0.46875 2.43164,-1.31836 1.02539,-0.84961 1.55274,-2.08008 0.55664,-1.25977 0.55664,-2.8418 0,-3.07617 -1.875,-4.48242 -1.875,-1.40625 -5.50782,-1.40625 -1.93359,0 -3.98437,0.38086 -2.05078,0.38086 -4.39453,1.14258 v -4.45313 q 0.99609,-0.35156 2.10937,-0.61523 1.14258,-0.29297 2.25586,-0.46875 1.14258,-0.20508 2.25586,-0.29297 1.11328,-0.11719 2.13867,-0.11719 3.04688,0 5.36133,0.67383 2.31445,0.64453 3.86719,1.875 1.55273,1.23047 2.34375,2.98828 0.79101,1.75781 0.79101,3.95508 0,3.28125 -1.69921,5.50781 -1.66993,2.22656 -4.59961,3.54492 1.49414,0.23438 2.92968,0.9375 1.46485,0.70313 2.60743,1.81641 1.17187,1.08398 1.875,2.57812 0.73242,1.49415 0.73242,3.31055 z"
       style="font-size:60px;font-family:Consolas;dominant-baseline:middle;text-anchor:middle;fill:#000000"
       id="path537" />
  </g>
  <g
     aria-label="-"
     id="text497"
     style="font-size:80px;font-family:Consolas;dominant-baseline:middle;text-anchor:middle;fill:#000000">
    <path
       d="m 561.67969,807.02344 h -23.35938 v -6.40625 h 23.35938 z"
       style="font-size:80px;font-family:Consolas;dominant-baseline:middle;text-anchor:middle;fill:#000000"
       id="path534" />
  </g>
  <g
     aria-label="ON"
     id="text499"
     style="font-size:60px;font-family:Consolas;dominant-baseline:middle;text-anchor:middle;fill:#000000">
    <path
       d="m 68.388672,925.3125 q 0,5.15625 -1.230469,8.90625 -1.201172,3.75 -3.28125,6.21094 -2.050781,2.43164 -4.833984,3.63281 -2.753907,1.17187 -5.830078,1.17187 -3.691407,0 -6.445313,-1.31835 -2.724609,-1.34766 -4.541016,-3.86719 -1.787109,-2.51953 -2.666015,-6.12305 -0.878906,-3.63281 -0.878906,-8.17383 0,-5.09765 1.201171,-8.84765 1.201172,-3.75 3.251954,-6.18164 2.080078,-2.46094 4.833984,-3.63282 2.753906,-1.20117 5.830078,-1.20117 3.691406,0 6.416016,1.34766 2.753906,1.34765 4.570312,3.86719 1.816406,2.49023 2.695313,6.09375 0.908203,3.60351 0.908203,8.11523 z m -5.419922,0.38086 q 0,-3.36914 -0.527344,-6.15234 -0.498047,-2.8125 -1.640625,-4.83399 -1.142578,-2.02148 -2.958984,-3.13476 -1.78711,-1.11329 -4.335938,-1.11329 -2.460937,0 -4.248047,1.20118 -1.757812,1.17187 -2.90039,3.22265 -1.142578,2.02149 -1.699219,4.77539 -0.556641,2.72461 -0.556641,5.80078 0,3.39844 0.527344,6.21094 0.527344,2.7832 1.640625,4.80469 1.142578,1.99219 2.929688,3.10547 1.787109,1.11328 4.30664,1.11328 2.460938,0 4.248047,-1.17188 1.78711,-1.20117 2.929688,-3.22265 1.171875,-2.05078 1.728515,-4.77539 0.556641,-2.72461 0.556641,-5.83008 z"
       style="font-size:60px;font-family:Consolas;dominant-baseline:middle;text-anchor:middle;fill:#000000"
       id="path529" />
    <path
       d="M 99.53125,944.70703 H 92.734375 L 81.572266,920.83008 78.349609,913.1543 v 19.30664 12.24609 h -4.863281 v -38.29101 h 6.708984 l 10.634766,22.61718 3.837891,8.75977 v -20.50781 -10.86914 h 4.863281 z"
       style="font-size:60px;font-family:Consolas;dominant-baseline:middle;text-anchor:middle;fill:#000000"
       id="path531" />
  </g>
  <g
     aria-label="0"
     id="text501"
     style="font-size:60px;font-family:Consolas;dominant-baseline:middle;text-anchor:middle;fill:#000000">
    <path
       d="m 203.91602,925.57617 q 0,4.39453 -0.87891,8.02735 -0.87891,3.60351 -2.66602,6.21093 -1.78711,2.57813 -4.45312,4.01367 -2.63672,1.40625 -6.21094,1.40625 -3.07617,0 -5.5957,-1.14257 -2.51953,-1.17188 -4.30664,-3.57422 -1.78711,-2.40235 -2.75391,-6.12305 -0.9668,-3.7207 -0.9668,-8.81836 0,-4.39453 0.87891,-8.02734 0.9082,-3.63281 2.66602,-6.21094 1.78711,-2.60742 4.45312,-4.01367 2.66602,-1.43555 6.21094,-1.43555 3.07617,0 5.5957,1.17188 2.51953,1.14257 4.30664,3.57422 1.78711,2.40234 2.75391,6.12304 0.9668,3.72071 0.9668,8.81836 z m -5.15625,0.17578 q 0,-0.99609 -0.0879,-1.96289 -0.0586,-0.99609 -0.14648,-1.93359 l -16.20117,12.04101 q 0.43945,1.52344 1.11328,2.8125 0.67383,1.28907 1.61133,2.22657 0.96679,0.9082 2.16797,1.43554 1.23047,0.49805 2.7832,0.49805 1.99219,0 3.60352,-0.9668 1.64062,-0.96679 2.7832,-2.87109 1.14258,-1.9043 1.75781,-4.7168 0.61524,-2.84179 0.61524,-6.5625 z m -17.51954,-0.35156 q 0,0.9082 0,1.81641 0.0293,0.9082 0.11719,1.75781 l 16.20117,-11.98242 q -0.43945,-1.49414 -1.11328,-2.72461 -0.67383,-1.23047 -1.61133,-2.10938 -0.9375,-0.9082 -2.13867,-1.40625 -1.20117,-0.49804 -2.69531,-0.49804 -1.99219,0 -3.63281,0.96679 -1.61133,0.9668 -2.75391,2.90039 -1.14258,1.9043 -1.75781,4.7461 -0.61524,2.8125 -0.61524,6.5332 z"
       style="font-size:60px;font-family:Consolas;dominant-baseline:middle;text-anchor:middle;fill:#000000"
       id="path526" />
  </g>
  <g
     aria-label="."
     id="text503"
     style="font-size:60px;font-family:Consolas;dominant-baseline:middle;text-anchor:middle;fill:#000000">
    <path
       d="m 309.76562,931.47852 q 0.9961,0 1.875,0.38085 0.90821,0.38086 1.55274,1.05469 0.67383,0.67383 1.05469,1.58203 0.38086,0.87891 0.38086,1.9043 0,0.99609 -0.38086,1.875 -0.38086,0.87891 -1.05469,1.55273 -0.64453,0.64454 -1.55274,1.0254 -0.8789,0.38085 -1.875,0.38085 -1.02539,0 -1.90429,-0.38085 -0.87891,-0.38086 -1.55274,-1.0254 -0.64453,-0.67382 -1.02539,-1.55273 -0.38086,-0.87891 -0.38086,-1.875 0,-1.02539 0.38086,-1.9043 0.38086,-0.9082 1.02539,-1.58203 0.67383,-0.67383 1.55274,-1.05469 0.8789,-0.38085 1.90429,-0.38085 z"
       style="font-size:60px;font-family:Consolas;dominant-baseline:middle;text-anchor:middle;fill:#000000"
       id="path523" />
  </g>
  <g
     aria-label="⌴"
     id="text505"
     style="font-size:60px;font-family:Consolas;dominant-baseline:middle;text-anchor:middle;fill:#000000">
    <path
       d="m 450.08301,921.97266 v 22.03125 h -40.16602 v -22.03125 h 2.69531 v 19.48242 h 34.7754 v -19.48242 z"
       style="font-size:60px;font-family:Consolas;dominant-baseline:middle;text-anchor:middle;fill:#000000"
       id="path520" />
  </g>
  <g
     aria-label="+"
     id="text507"
     style="font-size:80px;font-family:Consolas;dominant-baseline:middle;text-anchor:middle;fill:#000000">
    <path
       d="m 568.71094,926.78906 h -15.35157 v 15.9375 h -6.71875 v -15.9375 h -15.35156 v -5.9375 h 15.35156 v -15.82031 h 6.71875 v 15.82031 h 15.35157 z"
       style="font-size:80px;font-family:Consolas;dominant-baseline:middle;text-anchor:middle;fill:#000000"
       id="path517" />
  </g>
</svg>
