<svg xmlns="http://www.w3.org/2000/svg" width="620" height="1010">
<rect width="100%" height="100%" fill="black" />

<rect width="100" height="70" x="20" y="50" fill="#C0C0C0" />
<line x1="32" y1="50" x2="32" y2="120" style="stroke:#00FF00;stroke-width:1" />
<line x1="108" y1="50" x2="108" y2="120" style="stroke:#00FF00;stroke-width:1" />
<line x1="20" y1="65" x2="120" y2="65" style="stroke:#00FF00;stroke-width:1" />
<line x1="20" y1="105" x2="120" y2="105" style="stroke:#00FF00;stroke-width:1" />
<text x="70.0" y="90.0" fill="red" dominant-baseline="middle" text-anchor="middle" font-family="Consolas" font-size="60">A</text>

<rect width="100" height="70" x="140" y="50" fill="#C0C0C0" />
<line x1="152" y1="50" x2="152" y2="120" style="stroke:#00FF00;stroke-width:1" />
<line x1="228" y1="50" x2="228" y2="120" style="stroke:#00FF00;stroke-width:1" />
<line x1="140" y1="65" x2="240" y2="65" style="stroke:#00FF00;stroke-width:1" />
<line x1="140" y1="105" x2="240" y2="105" style="stroke:#00FF00;stroke-width:1" />
<text x="190.0" y="90.0" fill="red" dominant-baseline="middle" text-anchor="middle" font-family="Consolas" font-size="60">B</text>

<rect width="100" height="70" x="260" y="50" fill="#C0C0C0" />
<line x1="272" y1="50" x2="272" y2="120" style="stroke:#00FF00;stroke-width:1" />
<line x1="348" y1="50" x2="348" y2="120" style="stroke:#00FF00;stroke-width:1" />
<line x1="260" y1="65" x2="360" y2="65" style="stroke:#00FF00;stroke-width:1" />
<line x1="260" y1="105" x2="360" y2="105" style="stroke:#00FF00;stroke-width:1" />
<text x="310.0" y="90.0" fill="red" dominant-baseline="middle" text-anchor="middle" font-family="Consolas" font-size="60">C</text>

<rect width="100" height="70" x="380" y="50" fill="#C0C0C0" />
<line x1="392" y1="50" x2="392" y2="120" style="stroke:#00FF00;stroke-width:1" />
<line x1="468" y1="50" x2="468" y2="120" style="stroke:#00FF00;stroke-width:1" />
<line x1="380" y1="65" x2="480" y2="65" style="stroke:#00FF00;stroke-width:1" />
<line x1="380" y1="105" x2="480" y2="105" style="stroke:#00FF00;stroke-width:1" />
<text x="430.0" y="90.0" fill="red" dominant-baseline="middle" text-anchor="middle" font-family="Consolas" font-size="60">D</text>

<rect width="100" height="70" x="500" y="50" fill="#C0C0C0" />
<line x1="512" y1="50" x2="512" y2="120" style="stroke:#00FF00;stroke-width:1" />
<line x1="588" y1="50" x2="588" y2="120" style="stroke:#00FF00;stroke-width:1" />
<line x1="500" y1="65" x2="600" y2="65" style="stroke:#00FF00;stroke-width:1" />
<line x1="500" y1="105" x2="600" y2="105" style="stroke:#00FF00;stroke-width:1" />
<text x="550.0" y="90.0" fill="red" dominant-baseline="middle" text-anchor="middle" font-family="Consolas" font-size="60">E</text>

<rect width="100" height="70" x="20" y="170" fill="#C0C0C0" />
<line x1="32" y1="170" x2="32" y2="240" style="stroke:#00FF00;stroke-width:1" />
<line x1="108" y1="170" x2="108" y2="240" style="stroke:#00FF00;stroke-width:1" />
<line x1="20" y1="185" x2="120" y2="185" style="stroke:#00FF00;stroke-width:1" />
<line x1="20" y1="225" x2="120" y2="225" style="stroke:#00FF00;stroke-width:1" />
<text x="70.0" y="206.0" fill="red" dominant-baseline="middle" text-anchor="middle" font-family="Consolas" font-size="60">:</text>

<rect width="100" height="70" x="140" y="170" fill="#C0C0C0" />
<line x1="152" y1="170" x2="152" y2="240" style="stroke:#00FF00;stroke-width:1" />
<line x1="228" y1="170" x2="228" y2="240" style="stroke:#00FF00;stroke-width:1" />
<line x1="140" y1="185" x2="240" y2="185" style="stroke:#00FF00;stroke-width:1" />
<line x1="140" y1="225" x2="240" y2="225" style="stroke:#00FF00;stroke-width:1" />
<text x="190.0" y="206.0" fill="red" dominant-baseline="middle" text-anchor="middle" font-family="Consolas" font-size="60">;</text>

<rect width="100" height="70" x="260" y="170" fill="#C0C0C0" />
<line x1="272" y1="170" x2="272" y2="240" style="stroke:#00FF00;stroke-width:1" />
<line x1="348" y1="170" x2="348" y2="240" style="stroke:#00FF00;stroke-width:1" />
<line x1="260" y1="185" x2="360" y2="185" style="stroke:#00FF00;stroke-width:1" />
<line x1="260" y1="225" x2="360" y2="225" style="stroke:#00FF00;stroke-width:1" />
<text x="310.0" y="207.0" fill="red" dominant-baseline="middle" text-anchor="middle" font-weight="bold" font-family="Consolas" font-size="50">[</text>

<rect width="100" height="70" x="380" y="170" fill="#C0C0C0" />
<line x1="392" y1="170" x2="392" y2="240" style="stroke:#00FF00;stroke-width:1" />
<line x1="468" y1="170" x2="468" y2="240" style="stroke:#00FF00;stroke-width:1" />
<line x1="380" y1="185" x2="480" y2="185" style="stroke:#00FF00;stroke-width:1" />
<line x1="380" y1="225" x2="480" y2="225" style="stroke:#00FF00;stroke-width:1" />
<text x="430.0" y="207.0" fill="red" dominant-baseline="middle" text-anchor="middle" font-weight="bold" font-family="Consolas" font-size="50">]</text>

<rect width="100" height="70" x="500" y="170" fill="#C0C0C0" />
<line x1="512" y1="170" x2="512" y2="240" style="stroke:#00FF00;stroke-width:1" />
<line x1="588" y1="170" x2="588" y2="240" style="stroke:#00FF00;stroke-width:1" />
<line x1="500" y1="185" x2="600" y2="185" style="stroke:#00FF00;stroke-width:1" />
<line x1="500" y1="225" x2="600" y2="225" style="stroke:#00FF00;stroke-width:1" />
<text x="550.0" y="206.0" fill="red" dominant-baseline="middle" text-anchor="middle" font-family="Consolas" font-size="60">,</text>

<rect width="100" height="70" x="20" y="290" fill="#C0C0C0" />
<line x1="32" y1="290" x2="32" y2="360" style="stroke:#00FF00;stroke-width:1" />
<line x1="108" y1="290" x2="108" y2="360" style="stroke:#00FF00;stroke-width:1" />
<line x1="20" y1="305" x2="120" y2="305" style="stroke:#00FF00;stroke-width:1" />
<line x1="20" y1="345" x2="120" y2="345" style="stroke:#00FF00;stroke-width:1" />
<text x="70.0" y="345.0" fill="red" dominant-baseline="middle" text-anchor="middle" font-family="Consolas" font-size="90">'</text>

<rect width="100" height="70" x="140" y="290" fill="#C0C0C0" />
<line x1="152" y1="290" x2="152" y2="360" style="stroke:#00FF00;stroke-width:1" />
<line x1="228" y1="290" x2="228" y2="360" style="stroke:#00FF00;stroke-width:1" />
<line x1="140" y1="305" x2="240" y2="305" style="stroke:#00FF00;stroke-width:1" />
<line x1="140" y1="345" x2="240" y2="345" style="stroke:#00FF00;stroke-width:1" />
<text x="190.0" y="327.0" fill="red" dominant-baseline="middle" text-anchor="middle" font-family="Consolas" font-size="70">&lt;</text>

<rect width="100" height="70" x="260" y="290" fill="#C0C0C0" />
<line x1="272" y1="290" x2="272" y2="360" style="stroke:#00FF00;stroke-width:1" />
<line x1="348" y1="290" x2="348" y2="360" style="stroke:#00FF00;stroke-width:1" />
<line x1="260" y1="305" x2="360" y2="305" style="stroke:#00FF00;stroke-width:1" />
<line x1="260" y1="345" x2="360" y2="345" style="stroke:#00FF00;stroke-width:1" />
<text x="310.0" y="327.0" fill="red" dominant-baseline="middle" text-anchor="middle" font-family="Consolas" font-size="80">=</text>

<rect width="100" height="70" x="380" y="290" fill="#C0C0C0" />
<line x1="392" y1="290" x2="392" y2="360" style="stroke:#00FF00;stroke-width:1" />
<line x1="468" y1="290" x2="468" y2="360" style="stroke:#00FF00;stroke-width:1" />
<line x1="380" y1="305" x2="480" y2="305" style="stroke:#00FF00;stroke-width:1" />
<line x1="380" y1="345" x2="480" y2="345" style="stroke:#00FF00;stroke-width:1" />
<text x="430.0" y="327.0" fill="red" dominant-baseline="middle" text-anchor="middle" font-family="Consolas" font-size="70">></text>

<rect width="100" height="70" x="500" y="290" fill="#C0C0C0" />
<line x1="512" y1="290" x2="512" y2="360" style="stroke:#00FF00;stroke-width:1" />
<line x1="588" y1="290" x2="588" y2="360" style="stroke:#00FF00;stroke-width:1" />
<line x1="500" y1="305" x2="600" y2="305" style="stroke:#00FF00;stroke-width:1" />
<line x1="500" y1="345" x2="600" y2="345" style="stroke:#00FF00;stroke-width:1" />
<text x="550.0" y="349.0" fill="red" dominant-baseline="middle" text-anchor="middle" font-family="Consolas" font-size="100">^</text>

<rect width="100" height="70" x="20" y="410" fill="#C0C0C0" />
<line x1="32" y1="410" x2="32" y2="480" style="stroke:#00FF00;stroke-width:1" />
<line x1="108" y1="410" x2="108" y2="480" style="stroke:#00FF00;stroke-width:1" />
<line x1="20" y1="425" x2="120" y2="425" style="stroke:#00FF00;stroke-width:1" />
<line x1="20" y1="465" x2="120" y2="465" style="stroke:#00FF00;stroke-width:1" />
<text x="70.0" y="450.0" fill="red" dominant-baseline="middle" text-anchor="middle" font-family="Consolas" font-size="50">ENT</text>

<rect width="100" height="70" x="140" y="410" fill="#C0C0C0" />
<line x1="152" y1="410" x2="152" y2="480" style="stroke:#00FF00;stroke-width:1" />
<line x1="228" y1="410" x2="228" y2="480" style="stroke:#00FF00;stroke-width:1" />
<line x1="140" y1="425" x2="240" y2="425" style="stroke:#00FF00;stroke-width:1" />
<line x1="140" y1="465" x2="240" y2="465" style="stroke:#00FF00;stroke-width:1" />
<text x="190.0" y="450.0" fill="red" dominant-baseline="middle" text-anchor="middle" font-family="calibri" font-size="60">$</text>

<rect width="100" height="70" x="260" y="410" fill="#C0C0C0" />
<line x1="272" y1="410" x2="272" y2="480" style="stroke:#00FF00;stroke-width:1" />
<line x1="348" y1="410" x2="348" y2="480" style="stroke:#00FF00;stroke-width:1" />
<line x1="260" y1="425" x2="360" y2="425" style="stroke:#00FF00;stroke-width:1" />
<line x1="260" y1="465" x2="360" y2="465" style="stroke:#00FF00;stroke-width:1" />
<text x="310.0" y="465.0" fill="red" dominant-baseline="middle" text-anchor="middle" font-family="Consolas" font-size="90">"</text>

<rect width="100" height="70" x="380" y="410" fill="#C0C0C0" />
<line x1="392" y1="410" x2="392" y2="480" style="stroke:#00FF00;stroke-width:1" />
<line x1="468" y1="410" x2="468" y2="480" style="stroke:#00FF00;stroke-width:1" />
<line x1="380" y1="425" x2="480" y2="425" style="stroke:#00FF00;stroke-width:1" />
<line x1="380" y1="465" x2="480" y2="465" style="stroke:#00FF00;stroke-width:1" />
<text x="430.0" y="450.0" fill="red" dominant-baseline="middle" text-anchor="middle" font-family="Consolas" font-size="60">EE</text>

<rect width="100" height="70" x="500" y="410" fill="#C0C0C0" />
<line x1="512" y1="410" x2="512" y2="480" style="stroke:#00FF00;stroke-width:1" />
<line x1="588" y1="410" x2="588" y2="480" style="stroke:#00FF00;stroke-width:1" />
<line x1="500" y1="425" x2="600" y2="425" style="stroke:#00FF00;stroke-width:1" />
<line x1="500" y1="465" x2="600" y2="465" style="stroke:#00FF00;stroke-width:1" />
<text x="550.0" y="451.0" fill="red" dominant-baseline="middle" text-anchor="middle" font-family="Consolas" font-size="54">&#x1F868;</text>

<rect width="100" height="70" x="20" y="530" fill="#C0C0C0" />
<line x1="32" y1="530" x2="32" y2="600" style="stroke:#00FF00;stroke-width:1" />
<line x1="108" y1="530" x2="108" y2="600" style="stroke:#00FF00;stroke-width:1" />
<line x1="20" y1="545" x2="120" y2="545" style="stroke:#00FF00;stroke-width:1" />
<line x1="20" y1="585" x2="120" y2="585" style="stroke:#00FF00;stroke-width:1" />
<text x="70.0" y="565.5" fill="red" dominant-baseline="middle" text-anchor="middle" font-family="Consolas" font-size="72">a</text>

<rect width="100" height="70" x="140" y="530" fill="#C0C0C0" />
<line x1="152" y1="530" x2="152" y2="600" style="stroke:#00FF00;stroke-width:1" />
<line x1="228" y1="530" x2="228" y2="600" style="stroke:#00FF00;stroke-width:1" />
<line x1="140" y1="545" x2="240" y2="545" style="stroke:#00FF00;stroke-width:1" />
<line x1="140" y1="585" x2="240" y2="585" style="stroke:#00FF00;stroke-width:1" />
<text x="190.0" y="570.0" fill="red" dominant-baseline="middle" text-anchor="middle" font-family="Consolas" font-size="60">7</text>

<rect width="100" height="70" x="260" y="530" fill="#C0C0C0" />
<line x1="272" y1="530" x2="272" y2="600" style="stroke:#00FF00;stroke-width:1" />
<line x1="348" y1="530" x2="348" y2="600" style="stroke:#00FF00;stroke-width:1" />
<line x1="260" y1="545" x2="360" y2="545" style="stroke:#00FF00;stroke-width:1" />
<line x1="260" y1="585" x2="360" y2="585" style="stroke:#00FF00;stroke-width:1" />
<text x="310.0" y="570.0" fill="red" dominant-baseline="middle" text-anchor="middle" font-family="Consolas" font-size="60">8</text>

<rect width="100" height="70" x="380" y="530" fill="#C0C0C0" />
<line x1="392" y1="530" x2="392" y2="600" style="stroke:#00FF00;stroke-width:1" />
<line x1="468" y1="530" x2="468" y2="600" style="stroke:#00FF00;stroke-width:1" />
<line x1="380" y1="545" x2="480" y2="545" style="stroke:#00FF00;stroke-width:1" />
<line x1="380" y1="585" x2="480" y2="585" style="stroke:#00FF00;stroke-width:1" />
<text x="430.0" y="570.0" fill="red" dominant-baseline="middle" text-anchor="middle" font-family="Consolas" font-size="60">9</text>

<rect width="100" height="70" x="500" y="530" fill="#C0C0C0" />
<line x1="512" y1="530" x2="512" y2="600" style="stroke:#00FF00;stroke-width:1" />
<line x1="588" y1="530" x2="588" y2="600" style="stroke:#00FF00;stroke-width:1" />
<line x1="500" y1="545" x2="600" y2="545" style="stroke:#00FF00;stroke-width:1" />
<line x1="500" y1="585" x2="600" y2="585" style="stroke:#00FF00;stroke-width:1" />
<text x="550.0" y="567.0" fill="red" dominant-baseline="middle" text-anchor="middle" font-family="Consolas" font-size="80">&#xF7;</text>

<rect width="100" height="70" x="20" y="650" fill="#C0C0C0" />
<line x1="32" y1="650" x2="32" y2="720" style="stroke:#00FF00;stroke-width:1" />
<line x1="108" y1="650" x2="108" y2="720" style="stroke:#00FF00;stroke-width:1" />
<line x1="20" y1="665" x2="120" y2="665" style="stroke:#00FF00;stroke-width:1" />
<line x1="20" y1="705" x2="120" y2="705" style="stroke:#00FF00;stroke-width:1" />
<text x="70.0" y="691.0" fill="red" dominant-baseline="middle" text-anchor="middle" font-family="Consolas" font-size="54">&#x1F86A;</text>

<rect width="100" height="70" x="140" y="650" fill="#C0C0C0" />
<line x1="152" y1="650" x2="152" y2="720" style="stroke:#00FF00;stroke-width:1" />
<line x1="228" y1="650" x2="228" y2="720" style="stroke:#00FF00;stroke-width:1" />
<line x1="140" y1="665" x2="240" y2="665" style="stroke:#00FF00;stroke-width:1" />
<line x1="140" y1="705" x2="240" y2="705" style="stroke:#00FF00;stroke-width:1" />
<text x="190.0" y="690.0" fill="red" dominant-baseline="middle" text-anchor="middle" font-family="Consolas" font-size="60">4</text>

<rect width="100" height="70" x="260" y="650" fill="#C0C0C0" />
<line x1="272" y1="650" x2="272" y2="720" style="stroke:#00FF00;stroke-width:1" />
<line x1="348" y1="650" x2="348" y2="720" style="stroke:#00FF00;stroke-width:1" />
<line x1="260" y1="665" x2="360" y2="665" style="stroke:#00FF00;stroke-width:1" />
<line x1="260" y1="705" x2="360" y2="705" style="stroke:#00FF00;stroke-width:1" />
<text x="310.0" y="690.0" fill="red" dominant-baseline="middle" text-anchor="middle" font-family="Consolas" font-size="60">5</text>

<rect width="100" height="70" x="380" y="650" fill="#C0C0C0" />
<line x1="392" y1="650" x2="392" y2="720" style="stroke:#00FF00;stroke-width:1" />
<line x1="468" y1="650" x2="468" y2="720" style="stroke:#00FF00;stroke-width:1" />
<line x1="380" y1="665" x2="480" y2="665" style="stroke:#00FF00;stroke-width:1" />
<line x1="380" y1="705" x2="480" y2="705" style="stroke:#00FF00;stroke-width:1" />
<text x="430.0" y="690.0" fill="red" dominant-baseline="middle" text-anchor="middle" font-family="Consolas" font-size="60">6</text>

<rect width="100" height="70" x="500" y="650" fill="#C0C0C0" />
<line x1="512" y1="650" x2="512" y2="720" style="stroke:#00FF00;stroke-width:1" />
<line x1="588" y1="650" x2="588" y2="720" style="stroke:#00FF00;stroke-width:1" />
<line x1="500" y1="665" x2="600" y2="665" style="stroke:#00FF00;stroke-width:1" />
<line x1="500" y1="705" x2="600" y2="705" style="stroke:#00FF00;stroke-width:1" />
<text x="550.0" y="687.0" fill="red" dominant-baseline="middle" text-anchor="middle" font-family="Consolas" font-size="80">&#xD7;</text>

<rect width="100" height="70" x="20" y="770" fill="#C0C0C0" />
<line x1="32" y1="770" x2="32" y2="840" style="stroke:#00FF00;stroke-width:1" />
<line x1="108" y1="770" x2="108" y2="840" style="stroke:#00FF00;stroke-width:1" />
<line x1="20" y1="785" x2="120" y2="785" style="stroke:#00FF00;stroke-width:1" />
<line x1="20" y1="825" x2="120" y2="825" style="stroke:#00FF00;stroke-width:1" />
<text x="70.0" y="810.0" fill="red" dominant-baseline="middle" text-anchor="middle" font-family="calibri" font-size="54">@</text>

<rect width="100" height="70" x="140" y="770" fill="#C0C0C0" />
<line x1="152" y1="770" x2="152" y2="840" style="stroke:#00FF00;stroke-width:1" />
<line x1="228" y1="770" x2="228" y2="840" style="stroke:#00FF00;stroke-width:1" />
<line x1="140" y1="785" x2="240" y2="785" style="stroke:#00FF00;stroke-width:1" />
<line x1="140" y1="825" x2="240" y2="825" style="stroke:#00FF00;stroke-width:1" />
<text x="190.0" y="810.0" fill="red" dominant-baseline="middle" text-anchor="middle" font-family="Consolas" font-size="60">1</text>

<rect width="100" height="70" x="260" y="770" fill="#C0C0C0" />
<line x1="272" y1="770" x2="272" y2="840" style="stroke:#00FF00;stroke-width:1" />
<line x1="348" y1="770" x2="348" y2="840" style="stroke:#00FF00;stroke-width:1" />
<line x1="260" y1="785" x2="360" y2="785" style="stroke:#00FF00;stroke-width:1" />
<line x1="260" y1="825" x2="360" y2="825" style="stroke:#00FF00;stroke-width:1" />
<text x="310.0" y="810.0" fill="red" dominant-baseline="middle" text-anchor="middle" font-family="Consolas" font-size="60">2</text>

<rect width="100" height="70" x="380" y="770" fill="#C0C0C0" />
<line x1="392" y1="770" x2="392" y2="840" style="stroke:#00FF00;stroke-width:1" />
<line x1="468" y1="770" x2="468" y2="840" style="stroke:#00FF00;stroke-width:1" />
<line x1="380" y1="785" x2="480" y2="785" style="stroke:#00FF00;stroke-width:1" />
<line x1="380" y1="825" x2="480" y2="825" style="stroke:#00FF00;stroke-width:1" />
<text x="430.0" y="810.0" fill="red" dominant-baseline="middle" text-anchor="middle" font-family="Consolas" font-size="60">3</text>

<rect width="100" height="70" x="500" y="770" fill="#C0C0C0" />
<line x1="512" y1="770" x2="512" y2="840" style="stroke:#00FF00;stroke-width:1" />
<line x1="588" y1="770" x2="588" y2="840" style="stroke:#00FF00;stroke-width:1" />
<line x1="500" y1="785" x2="600" y2="785" style="stroke:#00FF00;stroke-width:1" />
<line x1="500" y1="825" x2="600" y2="825" style="stroke:#00FF00;stroke-width:1" />
<text x="550.0" y="805.5" fill="red" dominant-baseline="middle" text-anchor="middle" font-family="Consolas" font-size="80">-</text>

<rect width="100" height="70" x="20" y="890" fill="#C0C0C0" />
<line x1="32" y1="890" x2="32" y2="960" style="stroke:#00FF00;stroke-width:1" />
<line x1="108" y1="890" x2="108" y2="960" style="stroke:#00FF00;stroke-width:1" />
<line x1="20" y1="905" x2="120" y2="905" style="stroke:#00FF00;stroke-width:1" />
<line x1="20" y1="945" x2="120" y2="945" style="stroke:#00FF00;stroke-width:1" />
<text x="70.0" y="930.0" fill="red" dominant-baseline="middle" text-anchor="middle" font-family="Consolas" font-size="60">ON</text>

<rect width="100" height="70" x="140" y="890" fill="#C0C0C0" />
<line x1="152" y1="890" x2="152" y2="960" style="stroke:#00FF00;stroke-width:1" />
<line x1="228" y1="890" x2="228" y2="960" style="stroke:#00FF00;stroke-width:1" />
<line x1="140" y1="905" x2="240" y2="905" style="stroke:#00FF00;stroke-width:1" />
<line x1="140" y1="945" x2="240" y2="945" style="stroke:#00FF00;stroke-width:1" />
<text x="190.0" y="930.0" fill="red" dominant-baseline="middle" text-anchor="middle" font-family="Consolas" font-size="60">0</text>

<rect width="100" height="70" x="260" y="890" fill="#C0C0C0" />
<line x1="272" y1="890" x2="272" y2="960" style="stroke:#00FF00;stroke-width:1" />
<line x1="348" y1="890" x2="348" y2="960" style="stroke:#00FF00;stroke-width:1" />
<line x1="260" y1="905" x2="360" y2="905" style="stroke:#00FF00;stroke-width:1" />
<line x1="260" y1="945" x2="360" y2="945" style="stroke:#00FF00;stroke-width:1" />
<text x="310.0" y="926.0" fill="red" dominant-baseline="middle" text-anchor="middle" font-family="Consolas" font-size="60">.</text>

<rect width="100" height="70" x="380" y="890" fill="#C0C0C0" />
<line x1="392" y1="890" x2="392" y2="960" style="stroke:#00FF00;stroke-width:1" />
<line x1="468" y1="890" x2="468" y2="960" style="stroke:#00FF00;stroke-width:1" />
<line x1="380" y1="905" x2="480" y2="905" style="stroke:#00FF00;stroke-width:1" />
<line x1="380" y1="945" x2="480" y2="945" style="stroke:#00FF00;stroke-width:1" />
<text x="430.0" y="930.0" fill="red" dominant-baseline="middle" text-anchor="middle" font-family="Consolas" font-size="60">&#x2334;</text>

<rect width="100" height="70" x="500" y="890" fill="#C0C0C0" />
<line x1="512" y1="890" x2="512" y2="960" style="stroke:#00FF00;stroke-width:1" />
<line x1="588" y1="890" x2="588" y2="960" style="stroke:#00FF00;stroke-width:1" />
<line x1="500" y1="905" x2="600" y2="905" style="stroke:#00FF00;stroke-width:1" />
<line x1="500" y1="945" x2="600" y2="945" style="stroke:#00FF00;stroke-width:1" />
<text x="550.0" y="925.5" fill="red" dominant-baseline="middle" text-anchor="middle" font-family="Consolas" font-size="80">+</text>

</svg>