<svg xmlns="http://www.w3.org/2000/svg" width="794.4" height="1291.6000000000001">
<rect width="100%" height="100%" fill="black" />

<rect width="120" height="80" x="32.4" y="72.4" fill="#C0C0C0" />
<line x1="52.4" y1="72.4" x2="52.4" y2="152.4" style="stroke:#00FF00;stroke-width:1" />
<line x1="132.4" y1="72.4" x2="132.4" y2="152.4" style="stroke:#00FF00;stroke-width:1" />
<line x1="32.4" y1="92.4" x2="152.4" y2="92.4" style="stroke:#00FF00;stroke-width:1" />
<line x1="32.4" y1="132.4" x2="152.4" y2="132.4" style="stroke:#00FF00;stroke-width:1" />
<text x="92.4" y="117.4" fill="red" dominant-baseline="middle" text-anchor="middle" font-family="Consolas" font-size="60">A</text>

<line x1="32.4" y1="20.400000000000006" x2="152.4" y2="20.400000000000006" style="stroke:#00FF00;stroke-width:1" />
<line x1="152.4" y1="20.400000000000006" x2="152.4" y2="60.400000000000006" style="stroke:#00FF00;stroke-width:1" />
<line x1="152.4" y1="60.400000000000006" x2="32.4" y2="60.400000000000006" style="stroke:#00FF00;stroke-width:1" />
<line x1="32.4" y1="60.400000000000006" x2="32.4" y2="20.400000000000006" style="stroke:#00FF00;stroke-width:1" />
<text x="152.4" y="15.400000000000006" fill="purple" dominant-baseline="hanging" text-anchor="end" font-family="Consolas" font-size="60"></text>

<rect width="120" height="80" x="184.8" y="72.4" fill="#C0C0C0" />
<line x1="204.8" y1="72.4" x2="204.8" y2="152.4" style="stroke:#00FF00;stroke-width:1" />
<line x1="284.8" y1="72.4" x2="284.8" y2="152.4" style="stroke:#00FF00;stroke-width:1" />
<line x1="184.8" y1="92.4" x2="304.8" y2="92.4" style="stroke:#00FF00;stroke-width:1" />
<line x1="184.8" y1="132.4" x2="304.8" y2="132.4" style="stroke:#00FF00;stroke-width:1" />
<text x="244.8" y="117.4" fill="red" dominant-baseline="middle" text-anchor="middle" font-family="Consolas" font-size="60">B</text>

<line x1="184.8" y1="20.400000000000006" x2="304.8" y2="20.400000000000006" style="stroke:#00FF00;stroke-width:1" />
<line x1="304.8" y1="20.400000000000006" x2="304.8" y2="60.400000000000006" style="stroke:#00FF00;stroke-width:1" />
<line x1="304.8" y1="60.400000000000006" x2="184.8" y2="60.400000000000006" style="stroke:#00FF00;stroke-width:1" />
<line x1="184.8" y1="60.400000000000006" x2="184.8" y2="20.400000000000006" style="stroke:#00FF00;stroke-width:1" />
<text x="304.8" y="15.400000000000006" fill="purple" dominant-baseline="hanging" text-anchor="end" font-family="Consolas" font-size="60"></text>

<rect width="120" height="80" x="337.2" y="72.4" fill="#C0C0C0" />
<line x1="357.2" y1="72.4" x2="357.2" y2="152.4" style="stroke:#00FF00;stroke-width:1" />
<line x1="437.2" y1="72.4" x2="437.2" y2="152.4" style="stroke:#00FF00;stroke-width:1" />
<line x1="337.2" y1="92.4" x2="457.2" y2="92.4" style="stroke:#00FF00;stroke-width:1" />
<line x1="337.2" y1="132.4" x2="457.2" y2="132.4" style="stroke:#00FF00;stroke-width:1" />
<text x="397.2" y="117.4" fill="red" dominant-baseline="middle" text-anchor="middle" font-family="Consolas" font-size="60">C</text>

<line x1="337.2" y1="20.400000000000006" x2="457.2" y2="20.400000000000006" style="stroke:#00FF00;stroke-width:1" />
<line x1="457.2" y1="20.400000000000006" x2="457.2" y2="60.400000000000006" style="stroke:#00FF00;stroke-width:1" />
<line x1="457.2" y1="60.400000000000006" x2="337.2" y2="60.400000000000006" style="stroke:#00FF00;stroke-width:1" />
<line x1="337.2" y1="60.400000000000006" x2="337.2" y2="20.400000000000006" style="stroke:#00FF00;stroke-width:1" />
<text x="457.2" y="15.400000000000006" fill="purple" dominant-baseline="hanging" text-anchor="end" font-family="Consolas" font-size="60"></text>

<rect width="120" height="80" x="489.6" y="72.4" fill="#C0C0C0" />
<line x1="509.6" y1="72.4" x2="509.6" y2="152.4" style="stroke:#00FF00;stroke-width:1" />
<line x1="589.6" y1="72.4" x2="589.6" y2="152.4" style="stroke:#00FF00;stroke-width:1" />
<line x1="489.6" y1="92.4" x2="609.6" y2="92.4" style="stroke:#00FF00;stroke-width:1" />
<line x1="489.6" y1="132.4" x2="609.6" y2="132.4" style="stroke:#00FF00;stroke-width:1" />
<text x="549.6" y="117.4" fill="red" dominant-baseline="middle" text-anchor="middle" font-family="Consolas" font-size="60">D</text>

<line x1="489.6" y1="20.400000000000006" x2="609.6" y2="20.400000000000006" style="stroke:#00FF00;stroke-width:1" />
<line x1="609.6" y1="20.400000000000006" x2="609.6" y2="60.400000000000006" style="stroke:#00FF00;stroke-width:1" />
<line x1="609.6" y1="60.400000000000006" x2="489.6" y2="60.400000000000006" style="stroke:#00FF00;stroke-width:1" />
<line x1="489.6" y1="60.400000000000006" x2="489.6" y2="20.400000000000006" style="stroke:#00FF00;stroke-width:1" />
<text x="609.6" y="15.400000000000006" fill="purple" dominant-baseline="hanging" text-anchor="end" font-family="Consolas" font-size="60"></text>

<rect width="120" height="80" x="642.0" y="72.4" fill="#C0C0C0" />
<line x1="662.0" y1="72.4" x2="662.0" y2="152.4" style="stroke:#00FF00;stroke-width:1" />
<line x1="742.0" y1="72.4" x2="742.0" y2="152.4" style="stroke:#00FF00;stroke-width:1" />
<line x1="642.0" y1="92.4" x2="762.0" y2="92.4" style="stroke:#00FF00;stroke-width:1" />
<line x1="642.0" y1="132.4" x2="762.0" y2="132.4" style="stroke:#00FF00;stroke-width:1" />
<text x="702.0" y="117.4" fill="red" dominant-baseline="middle" text-anchor="middle" font-family="Consolas" font-size="60">E</text>

<line x1="642.0" y1="20.400000000000006" x2="762.0" y2="20.400000000000006" style="stroke:#00FF00;stroke-width:1" />
<line x1="762.0" y1="20.400000000000006" x2="762.0" y2="60.400000000000006" style="stroke:#00FF00;stroke-width:1" />
<line x1="762.0" y1="60.400000000000006" x2="642.0" y2="60.400000000000006" style="stroke:#00FF00;stroke-width:1" />
<line x1="642.0" y1="60.400000000000006" x2="642.0" y2="20.400000000000006" style="stroke:#00FF00;stroke-width:1" />
<text x="762.0" y="15.400000000000006" fill="purple" dominant-baseline="hanging" text-anchor="end" font-family="Consolas" font-size="60"></text>

<rect width="120" height="80" x="32.4" y="224.8" fill="#C0C0C0" />
<line x1="52.4" y1="224.8" x2="52.4" y2="304.8" style="stroke:#00FF00;stroke-width:1" />
<line x1="132.4" y1="224.8" x2="132.4" y2="304.8" style="stroke:#00FF00;stroke-width:1" />
<line x1="32.4" y1="244.8" x2="152.4" y2="244.8" style="stroke:#00FF00;stroke-width:1" />
<line x1="32.4" y1="284.8" x2="152.4" y2="284.8" style="stroke:#00FF00;stroke-width:1" />
<text x="92.4" y="265.8" fill="red" dominant-baseline="middle" text-anchor="middle" font-family="Consolas" font-size="60">:</text>

<line x1="32.4" y1="172.8" x2="152.4" y2="172.8" style="stroke:#00FF00;stroke-width:1" />
<line x1="152.4" y1="172.8" x2="152.4" y2="212.8" style="stroke:#00FF00;stroke-width:1" />
<line x1="152.4" y1="212.8" x2="32.4" y2="212.8" style="stroke:#00FF00;stroke-width:1" />
<line x1="32.4" y1="212.8" x2="32.4" y2="172.8" style="stroke:#00FF00;stroke-width:1" />
<text x="152.4" y="167.8" fill="purple" dominant-baseline="hanging" text-anchor="end" font-family="Consolas" font-size="60">F</text>

<rect width="120" height="80" x="184.8" y="224.8" fill="#C0C0C0" />
<line x1="204.8" y1="224.8" x2="204.8" y2="304.8" style="stroke:#00FF00;stroke-width:1" />
<line x1="284.8" y1="224.8" x2="284.8" y2="304.8" style="stroke:#00FF00;stroke-width:1" />
<line x1="184.8" y1="244.8" x2="304.8" y2="244.8" style="stroke:#00FF00;stroke-width:1" />
<line x1="184.8" y1="284.8" x2="304.8" y2="284.8" style="stroke:#00FF00;stroke-width:1" />
<text x="244.8" y="265.8" fill="red" dominant-baseline="middle" text-anchor="middle" font-family="Consolas" font-size="60">;</text>

<line x1="184.8" y1="172.8" x2="304.8" y2="172.8" style="stroke:#00FF00;stroke-width:1" />
<line x1="304.8" y1="172.8" x2="304.8" y2="212.8" style="stroke:#00FF00;stroke-width:1" />
<line x1="304.8" y1="212.8" x2="184.8" y2="212.8" style="stroke:#00FF00;stroke-width:1" />
<line x1="184.8" y1="212.8" x2="184.8" y2="172.8" style="stroke:#00FF00;stroke-width:1" />
<text x="304.8" y="167.8" fill="purple" dominant-baseline="hanging" text-anchor="end" font-family="Consolas" font-size="60">G</text>

<rect width="120" height="80" x="337.2" y="224.8" fill="#C0C0C0" />
<line x1="357.2" y1="224.8" x2="357.2" y2="304.8" style="stroke:#00FF00;stroke-width:1" />
<line x1="437.2" y1="224.8" x2="437.2" y2="304.8" style="stroke:#00FF00;stroke-width:1" />
<line x1="337.2" y1="244.8" x2="457.2" y2="244.8" style="stroke:#00FF00;stroke-width:1" />
<line x1="337.2" y1="284.8" x2="457.2" y2="284.8" style="stroke:#00FF00;stroke-width:1" />
<text x="397.2" y="265.8" fill="red" dominant-baseline="middle" text-anchor="middle" font-weight="bold" font-family="Consolas" font-size="50">[</text>

<line x1="337.2" y1="172.8" x2="457.2" y2="172.8" style="stroke:#00FF00;stroke-width:1" />
<line x1="457.2" y1="172.8" x2="457.2" y2="212.8" style="stroke:#00FF00;stroke-width:1" />
<line x1="457.2" y1="212.8" x2="337.2" y2="212.8" style="stroke:#00FF00;stroke-width:1" />
<line x1="337.2" y1="212.8" x2="337.2" y2="172.8" style="stroke:#00FF00;stroke-width:1" />
<text x="457.2" y="167.8" fill="purple" dominant-baseline="hanging" text-anchor="end" font-family="Consolas" font-size="60">H</text>

<rect width="120" height="80" x="489.6" y="224.8" fill="#C0C0C0" />
<line x1="509.6" y1="224.8" x2="509.6" y2="304.8" style="stroke:#00FF00;stroke-width:1" />
<line x1="589.6" y1="224.8" x2="589.6" y2="304.8" style="stroke:#00FF00;stroke-width:1" />
<line x1="489.6" y1="244.8" x2="609.6" y2="244.8" style="stroke:#00FF00;stroke-width:1" />
<line x1="489.6" y1="284.8" x2="609.6" y2="284.8" style="stroke:#00FF00;stroke-width:1" />
<text x="549.6" y="265.8" fill="red" dominant-baseline="middle" text-anchor="middle" font-weight="bold" font-family="Consolas" font-size="50">]</text>

<line x1="489.6" y1="172.8" x2="609.6" y2="172.8" style="stroke:#00FF00;stroke-width:1" />
<line x1="609.6" y1="172.8" x2="609.6" y2="212.8" style="stroke:#00FF00;stroke-width:1" />
<line x1="609.6" y1="212.8" x2="489.6" y2="212.8" style="stroke:#00FF00;stroke-width:1" />
<line x1="489.6" y1="212.8" x2="489.6" y2="172.8" style="stroke:#00FF00;stroke-width:1" />
<text x="609.6" y="167.8" fill="purple" dominant-baseline="hanging" text-anchor="end" font-family="Consolas" font-size="60">I</text>

<rect width="120" height="80" x="642.0" y="224.8" fill="#C0C0C0" />
<line x1="662.0" y1="224.8" x2="662.0" y2="304.8" style="stroke:#00FF00;stroke-width:1" />
<line x1="742.0" y1="224.8" x2="742.0" y2="304.8" style="stroke:#00FF00;stroke-width:1" />
<line x1="642.0" y1="244.8" x2="762.0" y2="244.8" style="stroke:#00FF00;stroke-width:1" />
<line x1="642.0" y1="284.8" x2="762.0" y2="284.8" style="stroke:#00FF00;stroke-width:1" />
<text x="702.0" y="265.8" fill="red" dominant-baseline="middle" text-anchor="middle" font-family="Consolas" font-size="60">,</text>

<line x1="642.0" y1="172.8" x2="762.0" y2="172.8" style="stroke:#00FF00;stroke-width:1" />
<line x1="762.0" y1="172.8" x2="762.0" y2="212.8" style="stroke:#00FF00;stroke-width:1" />
<line x1="762.0" y1="212.8" x2="642.0" y2="212.8" style="stroke:#00FF00;stroke-width:1" />
<line x1="642.0" y1="212.8" x2="642.0" y2="172.8" style="stroke:#00FF00;stroke-width:1" />
<text x="762.0" y="167.8" fill="purple" dominant-baseline="hanging" text-anchor="end" font-family="Consolas" font-size="60">J</text>

<rect width="120" height="80" x="32.4" y="377.20000000000005" fill="#C0C0C0" />
<line x1="52.4" y1="377.20000000000005" x2="52.4" y2="457.20000000000005" style="stroke:#00FF00;stroke-width:1" />
<line x1="132.4" y1="377.20000000000005" x2="132.4" y2="457.20000000000005" style="stroke:#00FF00;stroke-width:1" />
<line x1="32.4" y1="397.20000000000005" x2="152.4" y2="397.20000000000005" style="stroke:#00FF00;stroke-width:1" />
<line x1="32.4" y1="437.20000000000005" x2="152.4" y2="437.20000000000005" style="stroke:#00FF00;stroke-width:1" />
<text x="92.4" y="432.20000000000005" fill="red" dominant-baseline="middle" text-anchor="middle" font-family="Consolas" font-size="80">'</text>

<line x1="32.4" y1="325.20000000000005" x2="152.4" y2="325.20000000000005" style="stroke:#00FF00;stroke-width:1" />
<line x1="152.4" y1="325.20000000000005" x2="152.4" y2="365.20000000000005" style="stroke:#00FF00;stroke-width:1" />
<line x1="152.4" y1="365.20000000000005" x2="32.4" y2="365.20000000000005" style="stroke:#00FF00;stroke-width:1" />
<line x1="32.4" y1="365.20000000000005" x2="32.4" y2="325.20000000000005" style="stroke:#00FF00;stroke-width:1" />
<text x="152.4" y="320.20000000000005" fill="purple" dominant-baseline="hanging" text-anchor="end" font-family="Consolas" font-size="60">K</text>

<rect width="120" height="80" x="184.8" y="377.20000000000005" fill="#C0C0C0" />
<line x1="204.8" y1="377.20000000000005" x2="204.8" y2="457.20000000000005" style="stroke:#00FF00;stroke-width:1" />
<line x1="284.8" y1="377.20000000000005" x2="284.8" y2="457.20000000000005" style="stroke:#00FF00;stroke-width:1" />
<line x1="184.8" y1="397.20000000000005" x2="304.8" y2="397.20000000000005" style="stroke:#00FF00;stroke-width:1" />
<line x1="184.8" y1="437.20000000000005" x2="304.8" y2="437.20000000000005" style="stroke:#00FF00;stroke-width:1" />
<text x="244.8" y="419.20000000000005" fill="red" dominant-baseline="middle" text-anchor="middle" font-family="Consolas" font-size="80">&lt;</text>

<line x1="184.8" y1="325.20000000000005" x2="304.8" y2="325.20000000000005" style="stroke:#00FF00;stroke-width:1" />
<line x1="304.8" y1="325.20000000000005" x2="304.8" y2="365.20000000000005" style="stroke:#00FF00;stroke-width:1" />
<line x1="304.8" y1="365.20000000000005" x2="184.8" y2="365.20000000000005" style="stroke:#00FF00;stroke-width:1" />
<line x1="184.8" y1="365.20000000000005" x2="184.8" y2="325.20000000000005" style="stroke:#00FF00;stroke-width:1" />
<text x="304.8" y="320.20000000000005" fill="purple" dominant-baseline="hanging" text-anchor="end" font-family="Consolas" font-size="60">L</text>

<rect width="120" height="80" x="337.2" y="377.20000000000005" fill="#C0C0C0" />
<line x1="357.2" y1="377.20000000000005" x2="357.2" y2="457.20000000000005" style="stroke:#00FF00;stroke-width:1" />
<line x1="437.2" y1="377.20000000000005" x2="437.2" y2="457.20000000000005" style="stroke:#00FF00;stroke-width:1" />
<line x1="337.2" y1="397.20000000000005" x2="457.2" y2="397.20000000000005" style="stroke:#00FF00;stroke-width:1" />
<line x1="337.2" y1="437.20000000000005" x2="457.2" y2="437.20000000000005" style="stroke:#00FF00;stroke-width:1" />
<text x="397.2" y="419.20000000000005" fill="red" dominant-baseline="middle" text-anchor="middle" font-family="Consolas" font-size="90">=</text>

<line x1="337.2" y1="325.20000000000005" x2="457.2" y2="325.20000000000005" style="stroke:#00FF00;stroke-width:1" />
<line x1="457.2" y1="325.20000000000005" x2="457.2" y2="365.20000000000005" style="stroke:#00FF00;stroke-width:1" />
<line x1="457.2" y1="365.20000000000005" x2="337.2" y2="365.20000000000005" style="stroke:#00FF00;stroke-width:1" />
<line x1="337.2" y1="365.20000000000005" x2="337.2" y2="325.20000000000005" style="stroke:#00FF00;stroke-width:1" />
<text x="457.2" y="320.20000000000005" fill="purple" dominant-baseline="hanging" text-anchor="end" font-family="Consolas" font-size="60">M</text>

<rect width="120" height="80" x="489.6" y="377.20000000000005" fill="#C0C0C0" />
<line x1="509.6" y1="377.20000000000005" x2="509.6" y2="457.20000000000005" style="stroke:#00FF00;stroke-width:1" />
<line x1="589.6" y1="377.20000000000005" x2="589.6" y2="457.20000000000005" style="stroke:#00FF00;stroke-width:1" />
<line x1="489.6" y1="397.20000000000005" x2="609.6" y2="397.20000000000005" style="stroke:#00FF00;stroke-width:1" />
<line x1="489.6" y1="437.20000000000005" x2="609.6" y2="437.20000000000005" style="stroke:#00FF00;stroke-width:1" />
<text x="549.6" y="419.20000000000005" fill="red" dominant-baseline="middle" text-anchor="middle" font-family="Consolas" font-size="80">></text>

<line x1="489.6" y1="325.20000000000005" x2="609.6" y2="325.20000000000005" style="stroke:#00FF00;stroke-width:1" />
<line x1="609.6" y1="325.20000000000005" x2="609.6" y2="365.20000000000005" style="stroke:#00FF00;stroke-width:1" />
<line x1="609.6" y1="365.20000000000005" x2="489.6" y2="365.20000000000005" style="stroke:#00FF00;stroke-width:1" />
<line x1="489.6" y1="365.20000000000005" x2="489.6" y2="325.20000000000005" style="stroke:#00FF00;stroke-width:1" />
<text x="609.6" y="320.20000000000005" fill="purple" dominant-baseline="hanging" text-anchor="end" font-family="Consolas" font-size="60">N</text>

<rect width="120" height="80" x="642.0" y="377.20000000000005" fill="#C0C0C0" />
<line x1="662.0" y1="377.20000000000005" x2="662.0" y2="457.20000000000005" style="stroke:#00FF00;stroke-width:1" />
<line x1="742.0" y1="377.20000000000005" x2="742.0" y2="457.20000000000005" style="stroke:#00FF00;stroke-width:1" />
<line x1="642.0" y1="397.20000000000005" x2="762.0" y2="397.20000000000005" style="stroke:#00FF00;stroke-width:1" />
<line x1="642.0" y1="437.20000000000005" x2="762.0" y2="437.20000000000005" style="stroke:#00FF00;stroke-width:1" />
<text x="702.0" y="441.20000000000005" fill="red" dominant-baseline="middle" text-anchor="middle" font-family="Consolas" font-size="100">^</text>

<line x1="642.0" y1="325.20000000000005" x2="762.0" y2="325.20000000000005" style="stroke:#00FF00;stroke-width:1" />
<line x1="762.0" y1="325.20000000000005" x2="762.0" y2="365.20000000000005" style="stroke:#00FF00;stroke-width:1" />
<line x1="762.0" y1="365.20000000000005" x2="642.0" y2="365.20000000000005" style="stroke:#00FF00;stroke-width:1" />
<line x1="642.0" y1="365.20000000000005" x2="642.0" y2="325.20000000000005" style="stroke:#00FF00;stroke-width:1" />
<text x="762.0" y="320.20000000000005" fill="purple" dominant-baseline="hanging" text-anchor="end" font-family="Consolas" font-size="60">O</text>

<rect width="120" height="80" x="32.4" y="529.6" fill="#C0C0C0" />
<line x1="52.4" y1="529.6" x2="52.4" y2="609.6" style="stroke:#00FF00;stroke-width:1" />
<line x1="132.4" y1="529.6" x2="132.4" y2="609.6" style="stroke:#00FF00;stroke-width:1" />
<line x1="32.4" y1="549.6" x2="152.4" y2="549.6" style="stroke:#00FF00;stroke-width:1" />
<line x1="32.4" y1="589.6" x2="152.4" y2="589.6" style="stroke:#00FF00;stroke-width:1" />
<text x="92.4" y="574.6" fill="red" dominant-baseline="middle" text-anchor="middle" font-family="Consolas" font-size="60">ENT</text>

<line x1="32.4" y1="477.6" x2="152.4" y2="477.6" style="stroke:#00FF00;stroke-width:1" />
<line x1="152.4" y1="477.6" x2="152.4" y2="517.6" style="stroke:#00FF00;stroke-width:1" />
<line x1="152.4" y1="517.6" x2="32.4" y2="517.6" style="stroke:#00FF00;stroke-width:1" />
<line x1="32.4" y1="517.6" x2="32.4" y2="477.6" style="stroke:#00FF00;stroke-width:1" />
<text x="152.4" y="472.6" fill="purple" dominant-baseline="hanging" text-anchor="end" font-family="Consolas" font-size="60"></text>

<rect width="120" height="80" x="184.8" y="529.6" fill="#C0C0C0" />
<line x1="204.8" y1="529.6" x2="204.8" y2="609.6" style="stroke:#00FF00;stroke-width:1" />
<line x1="284.8" y1="529.6" x2="284.8" y2="609.6" style="stroke:#00FF00;stroke-width:1" />
<line x1="184.8" y1="549.6" x2="304.8" y2="549.6" style="stroke:#00FF00;stroke-width:1" />
<line x1="184.8" y1="589.6" x2="304.8" y2="589.6" style="stroke:#00FF00;stroke-width:1" />
<text x="244.8" y="574.6" fill="red" dominant-baseline="middle" text-anchor="middle" font-family="calibri" font-size="60">$</text>

<line x1="184.8" y1="477.6" x2="304.8" y2="477.6" style="stroke:#00FF00;stroke-width:1" />
<line x1="304.8" y1="477.6" x2="304.8" y2="517.6" style="stroke:#00FF00;stroke-width:1" />
<line x1="304.8" y1="517.6" x2="184.8" y2="517.6" style="stroke:#00FF00;stroke-width:1" />
<line x1="184.8" y1="517.6" x2="184.8" y2="477.6" style="stroke:#00FF00;stroke-width:1" />
<text x="304.8" y="472.6" fill="purple" dominant-baseline="hanging" text-anchor="end" font-family="Consolas" font-size="60">P</text>

<rect width="120" height="80" x="337.2" y="529.6" fill="#C0C0C0" />
<line x1="357.2" y1="529.6" x2="357.2" y2="609.6" style="stroke:#00FF00;stroke-width:1" />
<line x1="437.2" y1="529.6" x2="437.2" y2="609.6" style="stroke:#00FF00;stroke-width:1" />
<line x1="337.2" y1="549.6" x2="457.2" y2="549.6" style="stroke:#00FF00;stroke-width:1" />
<line x1="337.2" y1="589.6" x2="457.2" y2="589.6" style="stroke:#00FF00;stroke-width:1" />
<text x="397.2" y="584.6" fill="red" dominant-baseline="middle" text-anchor="middle" font-family="Consolas" font-size="80">"</text>

<line x1="337.2" y1="477.6" x2="457.2" y2="477.6" style="stroke:#00FF00;stroke-width:1" />
<line x1="457.2" y1="477.6" x2="457.2" y2="517.6" style="stroke:#00FF00;stroke-width:1" />
<line x1="457.2" y1="517.6" x2="337.2" y2="517.6" style="stroke:#00FF00;stroke-width:1" />
<line x1="337.2" y1="517.6" x2="337.2" y2="477.6" style="stroke:#00FF00;stroke-width:1" />
<text x="457.2" y="472.6" fill="purple" dominant-baseline="hanging" text-anchor="end" font-family="Consolas" font-size="54">Q</text>

<rect width="120" height="80" x="489.6" y="529.6" fill="#C0C0C0" />
<line x1="509.6" y1="529.6" x2="509.6" y2="609.6" style="stroke:#00FF00;stroke-width:1" />
<line x1="589.6" y1="529.6" x2="589.6" y2="609.6" style="stroke:#00FF00;stroke-width:1" />
<line x1="489.6" y1="549.6" x2="609.6" y2="549.6" style="stroke:#00FF00;stroke-width:1" />
<line x1="489.6" y1="589.6" x2="609.6" y2="589.6" style="stroke:#00FF00;stroke-width:1" />
<text x="549.6" y="574.6" fill="red" dominant-baseline="middle" text-anchor="middle" font-family="Consolas" font-size="60">EE</text>

<line x1="489.6" y1="477.6" x2="609.6" y2="477.6" style="stroke:#00FF00;stroke-width:1" />
<line x1="609.6" y1="477.6" x2="609.6" y2="517.6" style="stroke:#00FF00;stroke-width:1" />
<line x1="609.6" y1="517.6" x2="489.6" y2="517.6" style="stroke:#00FF00;stroke-width:1" />
<line x1="489.6" y1="517.6" x2="489.6" y2="477.6" style="stroke:#00FF00;stroke-width:1" />
<text x="609.6" y="472.6" fill="purple" dominant-baseline="hanging" text-anchor="end" font-family="Consolas" font-size="60">R</text>

<rect width="120" height="80" x="642.0" y="529.6" fill="#C0C0C0" />
<line x1="662.0" y1="529.6" x2="662.0" y2="609.6" style="stroke:#00FF00;stroke-width:1" />
<line x1="742.0" y1="529.6" x2="742.0" y2="609.6" style="stroke:#00FF00;stroke-width:1" />
<line x1="642.0" y1="549.6" x2="762.0" y2="549.6" style="stroke:#00FF00;stroke-width:1" />
<line x1="642.0" y1="589.6" x2="762.0" y2="589.6" style="stroke:#00FF00;stroke-width:1" />
<text x="702.0" y="575.6" fill="red" dominant-baseline="middle" text-anchor="middle" font-family="Consolas" font-size="54">&#x1F868;</text>

<line x1="642.0" y1="477.6" x2="762.0" y2="477.6" style="stroke:#00FF00;stroke-width:1" />
<line x1="762.0" y1="477.6" x2="762.0" y2="517.6" style="stroke:#00FF00;stroke-width:1" />
<line x1="762.0" y1="517.6" x2="642.0" y2="517.6" style="stroke:#00FF00;stroke-width:1" />
<line x1="642.0" y1="517.6" x2="642.0" y2="477.6" style="stroke:#00FF00;stroke-width:1" />
<text x="762.0" y="472.6" fill="purple" dominant-baseline="hanging" text-anchor="end" font-family="Consolas" font-size="60"></text>

<rect width="120" height="80" x="32.4" y="682.0" fill="#C0C0C0" />
<line x1="52.4" y1="682.0" x2="52.4" y2="762.0" style="stroke:#00FF00;stroke-width:1" />
<line x1="132.4" y1="682.0" x2="132.4" y2="762.0" style="stroke:#00FF00;stroke-width:1" />
<line x1="32.4" y1="702.0" x2="152.4" y2="702.0" style="stroke:#00FF00;stroke-width:1" />
<line x1="32.4" y1="742.0" x2="152.4" y2="742.0" style="stroke:#00FF00;stroke-width:1" />
<text x="92.4" y="721.5" fill="red" dominant-baseline="middle" text-anchor="middle" font-family="Consolas" font-size="70">a</text>

<line x1="32.4" y1="630.0" x2="152.4" y2="630.0" style="stroke:#00FF00;stroke-width:1" />
<line x1="152.4" y1="630.0" x2="152.4" y2="670.0" style="stroke:#00FF00;stroke-width:1" />
<line x1="152.4" y1="670.0" x2="32.4" y2="670.0" style="stroke:#00FF00;stroke-width:1" />
<line x1="32.4" y1="670.0" x2="32.4" y2="630.0" style="stroke:#00FF00;stroke-width:1" />
<text x="152.4" y="625.0" fill="purple" dominant-baseline="hanging" text-anchor="end" font-family="Consolas" font-size="60"></text>

<rect width="120" height="80" x="184.8" y="682.0" fill="#C0C0C0" />
<line x1="204.8" y1="682.0" x2="204.8" y2="762.0" style="stroke:#00FF00;stroke-width:1" />
<line x1="284.8" y1="682.0" x2="284.8" y2="762.0" style="stroke:#00FF00;stroke-width:1" />
<line x1="184.8" y1="702.0" x2="304.8" y2="702.0" style="stroke:#00FF00;stroke-width:1" />
<line x1="184.8" y1="742.0" x2="304.8" y2="742.0" style="stroke:#00FF00;stroke-width:1" />
<text x="244.8" y="727.0" fill="red" dominant-baseline="middle" text-anchor="middle" font-family="Consolas" font-size="60">7</text>

<line x1="184.8" y1="630.0" x2="304.8" y2="630.0" style="stroke:#00FF00;stroke-width:1" />
<line x1="304.8" y1="630.0" x2="304.8" y2="670.0" style="stroke:#00FF00;stroke-width:1" />
<line x1="304.8" y1="670.0" x2="184.8" y2="670.0" style="stroke:#00FF00;stroke-width:1" />
<line x1="184.8" y1="670.0" x2="184.8" y2="630.0" style="stroke:#00FF00;stroke-width:1" />
<text x="304.8" y="625.0" fill="purple" dominant-baseline="hanging" text-anchor="end" font-family="Consolas" font-size="60">S</text>

<rect width="120" height="80" x="337.2" y="682.0" fill="#C0C0C0" />
<line x1="357.2" y1="682.0" x2="357.2" y2="762.0" style="stroke:#00FF00;stroke-width:1" />
<line x1="437.2" y1="682.0" x2="437.2" y2="762.0" style="stroke:#00FF00;stroke-width:1" />
<line x1="337.2" y1="702.0" x2="457.2" y2="702.0" style="stroke:#00FF00;stroke-width:1" />
<line x1="337.2" y1="742.0" x2="457.2" y2="742.0" style="stroke:#00FF00;stroke-width:1" />
<text x="397.2" y="727.0" fill="red" dominant-baseline="middle" text-anchor="middle" font-family="Consolas" font-size="60">8</text>

<line x1="337.2" y1="630.0" x2="457.2" y2="630.0" style="stroke:#00FF00;stroke-width:1" />
<line x1="457.2" y1="630.0" x2="457.2" y2="670.0" style="stroke:#00FF00;stroke-width:1" />
<line x1="457.2" y1="670.0" x2="337.2" y2="670.0" style="stroke:#00FF00;stroke-width:1" />
<line x1="337.2" y1="670.0" x2="337.2" y2="630.0" style="stroke:#00FF00;stroke-width:1" />
<text x="457.2" y="625.0" fill="purple" dominant-baseline="hanging" text-anchor="end" font-family="Consolas" font-size="60">T</text>

<rect width="120" height="80" x="489.6" y="682.0" fill="#C0C0C0" />
<line x1="509.6" y1="682.0" x2="509.6" y2="762.0" style="stroke:#00FF00;stroke-width:1" />
<line x1="589.6" y1="682.0" x2="589.6" y2="762.0" style="stroke:#00FF00;stroke-width:1" />
<line x1="489.6" y1="702.0" x2="609.6" y2="702.0" style="stroke:#00FF00;stroke-width:1" />
<line x1="489.6" y1="742.0" x2="609.6" y2="742.0" style="stroke:#00FF00;stroke-width:1" />
<text x="549.6" y="727.0" fill="red" dominant-baseline="middle" text-anchor="middle" font-family="Consolas" font-size="60">9</text>

<line x1="489.6" y1="630.0" x2="609.6" y2="630.0" style="stroke:#00FF00;stroke-width:1" />
<line x1="609.6" y1="630.0" x2="609.6" y2="670.0" style="stroke:#00FF00;stroke-width:1" />
<line x1="609.6" y1="670.0" x2="489.6" y2="670.0" style="stroke:#00FF00;stroke-width:1" />
<line x1="489.6" y1="670.0" x2="489.6" y2="630.0" style="stroke:#00FF00;stroke-width:1" />
<text x="609.6" y="625.0" fill="purple" dominant-baseline="hanging" text-anchor="end" font-family="Consolas" font-size="60">U</text>

<rect width="120" height="80" x="642.0" y="682.0" fill="#C0C0C0" />
<line x1="662.0" y1="682.0" x2="662.0" y2="762.0" style="stroke:#00FF00;stroke-width:1" />
<line x1="742.0" y1="682.0" x2="742.0" y2="762.0" style="stroke:#00FF00;stroke-width:1" />
<line x1="642.0" y1="702.0" x2="762.0" y2="702.0" style="stroke:#00FF00;stroke-width:1" />
<line x1="642.0" y1="742.0" x2="762.0" y2="742.0" style="stroke:#00FF00;stroke-width:1" />
<text x="702.0" y="724.0" fill="red" dominant-baseline="middle" text-anchor="middle" font-family="Consolas" font-size="80">&#xF7;</text>

<line x1="642.0" y1="630.0" x2="762.0" y2="630.0" style="stroke:#00FF00;stroke-width:1" />
<line x1="762.0" y1="630.0" x2="762.0" y2="670.0" style="stroke:#00FF00;stroke-width:1" />
<line x1="762.0" y1="670.0" x2="642.0" y2="670.0" style="stroke:#00FF00;stroke-width:1" />
<line x1="642.0" y1="670.0" x2="642.0" y2="630.0" style="stroke:#00FF00;stroke-width:1" />
<text x="762.0" y="625.0" fill="purple" dominant-baseline="hanging" text-anchor="end" font-family="Consolas" font-size="60"></text>

<rect width="120" height="80" x="32.4" y="834.4" fill="#C0C0C0" />
<line x1="52.4" y1="834.4" x2="52.4" y2="914.4" style="stroke:#00FF00;stroke-width:1" />
<line x1="132.4" y1="834.4" x2="132.4" y2="914.4" style="stroke:#00FF00;stroke-width:1" />
<line x1="32.4" y1="854.4" x2="152.4" y2="854.4" style="stroke:#00FF00;stroke-width:1" />
<line x1="32.4" y1="894.4" x2="152.4" y2="894.4" style="stroke:#00FF00;stroke-width:1" />
<text x="92.4" y="880.4" fill="red" dominant-baseline="middle" text-anchor="middle" font-family="Consolas" font-size="54">&#x1F86A;</text>

<line x1="32.4" y1="782.4" x2="152.4" y2="782.4" style="stroke:#00FF00;stroke-width:1" />
<line x1="152.4" y1="782.4" x2="152.4" y2="822.4" style="stroke:#00FF00;stroke-width:1" />
<line x1="152.4" y1="822.4" x2="32.4" y2="822.4" style="stroke:#00FF00;stroke-width:1" />
<line x1="32.4" y1="822.4" x2="32.4" y2="782.4" style="stroke:#00FF00;stroke-width:1" />
<text x="152.4" y="777.4" fill="purple" dominant-baseline="hanging" text-anchor="end" font-family="Consolas" font-size="60">!</text>

<rect width="120" height="80" x="184.8" y="834.4" fill="#C0C0C0" />
<line x1="204.8" y1="834.4" x2="204.8" y2="914.4" style="stroke:#00FF00;stroke-width:1" />
<line x1="284.8" y1="834.4" x2="284.8" y2="914.4" style="stroke:#00FF00;stroke-width:1" />
<line x1="184.8" y1="854.4" x2="304.8" y2="854.4" style="stroke:#00FF00;stroke-width:1" />
<line x1="184.8" y1="894.4" x2="304.8" y2="894.4" style="stroke:#00FF00;stroke-width:1" />
<text x="244.8" y="879.4" fill="red" dominant-baseline="middle" text-anchor="middle" font-family="Consolas" font-size="60">4</text>

<line x1="184.8" y1="782.4" x2="304.8" y2="782.4" style="stroke:#00FF00;stroke-width:1" />
<line x1="304.8" y1="782.4" x2="304.8" y2="822.4" style="stroke:#00FF00;stroke-width:1" />
<line x1="304.8" y1="822.4" x2="184.8" y2="822.4" style="stroke:#00FF00;stroke-width:1" />
<line x1="184.8" y1="822.4" x2="184.8" y2="782.4" style="stroke:#00FF00;stroke-width:1" />
<text x="304.8" y="777.4" fill="purple" dominant-baseline="hanging" text-anchor="end" font-family="Consolas" font-size="60">V</text>

<rect width="120" height="80" x="337.2" y="834.4" fill="#C0C0C0" />
<line x1="357.2" y1="834.4" x2="357.2" y2="914.4" style="stroke:#00FF00;stroke-width:1" />
<line x1="437.2" y1="834.4" x2="437.2" y2="914.4" style="stroke:#00FF00;stroke-width:1" />
<line x1="337.2" y1="854.4" x2="457.2" y2="854.4" style="stroke:#00FF00;stroke-width:1" />
<line x1="337.2" y1="894.4" x2="457.2" y2="894.4" style="stroke:#00FF00;stroke-width:1" />
<text x="397.2" y="879.4" fill="red" dominant-baseline="middle" text-anchor="middle" font-family="Consolas" font-size="60">5</text>

<line x1="337.2" y1="782.4" x2="457.2" y2="782.4" style="stroke:#00FF00;stroke-width:1" />
<line x1="457.2" y1="782.4" x2="457.2" y2="822.4" style="stroke:#00FF00;stroke-width:1" />
<line x1="457.2" y1="822.4" x2="337.2" y2="822.4" style="stroke:#00FF00;stroke-width:1" />
<line x1="337.2" y1="822.4" x2="337.2" y2="782.4" style="stroke:#00FF00;stroke-width:1" />
<text x="457.2" y="777.4" fill="purple" dominant-baseline="hanging" text-anchor="end" font-family="Consolas" font-size="60">W</text>

<rect width="120" height="80" x="489.6" y="834.4" fill="#C0C0C0" />
<line x1="509.6" y1="834.4" x2="509.6" y2="914.4" style="stroke:#00FF00;stroke-width:1" />
<line x1="589.6" y1="834.4" x2="589.6" y2="914.4" style="stroke:#00FF00;stroke-width:1" />
<line x1="489.6" y1="854.4" x2="609.6" y2="854.4" style="stroke:#00FF00;stroke-width:1" />
<line x1="489.6" y1="894.4" x2="609.6" y2="894.4" style="stroke:#00FF00;stroke-width:1" />
<text x="549.6" y="879.4" fill="red" dominant-baseline="middle" text-anchor="middle" font-family="Consolas" font-size="60">6</text>

<line x1="489.6" y1="782.4" x2="609.6" y2="782.4" style="stroke:#00FF00;stroke-width:1" />
<line x1="609.6" y1="782.4" x2="609.6" y2="822.4" style="stroke:#00FF00;stroke-width:1" />
<line x1="609.6" y1="822.4" x2="489.6" y2="822.4" style="stroke:#00FF00;stroke-width:1" />
<line x1="489.6" y1="822.4" x2="489.6" y2="782.4" style="stroke:#00FF00;stroke-width:1" />
<text x="609.6" y="777.4" fill="purple" dominant-baseline="hanging" text-anchor="end" font-family="Consolas" font-size="60">X</text>

<rect width="120" height="80" x="642.0" y="834.4" fill="#C0C0C0" />
<line x1="662.0" y1="834.4" x2="662.0" y2="914.4" style="stroke:#00FF00;stroke-width:1" />
<line x1="742.0" y1="834.4" x2="742.0" y2="914.4" style="stroke:#00FF00;stroke-width:1" />
<line x1="642.0" y1="854.4" x2="762.0" y2="854.4" style="stroke:#00FF00;stroke-width:1" />
<line x1="642.0" y1="894.4" x2="762.0" y2="894.4" style="stroke:#00FF00;stroke-width:1" />
<text x="702.0" y="876.4" fill="red" dominant-baseline="middle" text-anchor="middle" font-family="Consolas" font-size="80">&#xD7;</text>

<line x1="642.0" y1="782.4" x2="762.0" y2="782.4" style="stroke:#00FF00;stroke-width:1" />
<line x1="762.0" y1="782.4" x2="762.0" y2="822.4" style="stroke:#00FF00;stroke-width:1" />
<line x1="762.0" y1="822.4" x2="642.0" y2="822.4" style="stroke:#00FF00;stroke-width:1" />
<line x1="642.0" y1="822.4" x2="642.0" y2="782.4" style="stroke:#00FF00;stroke-width:1" />
<text x="762.0" y="777.4" fill="purple" dominant-baseline="hanging" text-anchor="end" font-family="Consolas" font-size="60"></text>

<rect width="120" height="80" x="32.4" y="986.8000000000001" fill="#C0C0C0" />
<line x1="52.4" y1="986.8000000000001" x2="52.4" y2="1066.8000000000002" style="stroke:#00FF00;stroke-width:1" />
<line x1="132.4" y1="986.8000000000001" x2="132.4" y2="1066.8000000000002" style="stroke:#00FF00;stroke-width:1" />
<line x1="32.4" y1="1006.8000000000001" x2="152.4" y2="1006.8000000000001" style="stroke:#00FF00;stroke-width:1" />
<line x1="32.4" y1="1046.8000000000002" x2="152.4" y2="1046.8000000000002" style="stroke:#00FF00;stroke-width:1" />
<text x="92.4" y="1031.8000000000002" fill="red" dominant-baseline="middle" text-anchor="middle" font-weight="bold" font-family="calibri" font-size="54">@</text>

<line x1="32.4" y1="934.8000000000001" x2="152.4" y2="934.8000000000001" style="stroke:#00FF00;stroke-width:1" />
<line x1="152.4" y1="934.8000000000001" x2="152.4" y2="974.8000000000001" style="stroke:#00FF00;stroke-width:1" />
<line x1="152.4" y1="974.8000000000001" x2="32.4" y2="974.8000000000001" style="stroke:#00FF00;stroke-width:1" />
<line x1="32.4" y1="974.8000000000001" x2="32.4" y2="934.8000000000001" style="stroke:#00FF00;stroke-width:1" />
<text x="152.4" y="929.8000000000001" fill="purple" dominant-baseline="hanging" text-anchor="end" font-family="calibri" font-size="60">?</text>

<rect width="120" height="80" x="184.8" y="986.8000000000001" fill="#C0C0C0" />
<line x1="204.8" y1="986.8000000000001" x2="204.8" y2="1066.8000000000002" style="stroke:#00FF00;stroke-width:1" />
<line x1="284.8" y1="986.8000000000001" x2="284.8" y2="1066.8000000000002" style="stroke:#00FF00;stroke-width:1" />
<line x1="184.8" y1="1006.8000000000001" x2="304.8" y2="1006.8000000000001" style="stroke:#00FF00;stroke-width:1" />
<line x1="184.8" y1="1046.8000000000002" x2="304.8" y2="1046.8000000000002" style="stroke:#00FF00;stroke-width:1" />
<text x="244.8" y="1031.8000000000002" fill="red" dominant-baseline="middle" text-anchor="middle" font-family="Consolas" font-size="60">1</text>

<line x1="184.8" y1="934.8000000000001" x2="304.8" y2="934.8000000000001" style="stroke:#00FF00;stroke-width:1" />
<line x1="304.8" y1="934.8000000000001" x2="304.8" y2="974.8000000000001" style="stroke:#00FF00;stroke-width:1" />
<line x1="304.8" y1="974.8000000000001" x2="184.8" y2="974.8000000000001" style="stroke:#00FF00;stroke-width:1" />
<line x1="184.8" y1="974.8000000000001" x2="184.8" y2="934.8000000000001" style="stroke:#00FF00;stroke-width:1" />
<text x="304.8" y="929.8000000000001" fill="purple" dominant-baseline="hanging" text-anchor="end" font-family="Consolas" font-size="60">Y</text>

<rect width="120" height="80" x="337.2" y="986.8000000000001" fill="#C0C0C0" />
<line x1="357.2" y1="986.8000000000001" x2="357.2" y2="1066.8000000000002" style="stroke:#00FF00;stroke-width:1" />
<line x1="437.2" y1="986.8000000000001" x2="437.2" y2="1066.8000000000002" style="stroke:#00FF00;stroke-width:1" />
<line x1="337.2" y1="1006.8000000000001" x2="457.2" y2="1006.8000000000001" style="stroke:#00FF00;stroke-width:1" />
<line x1="337.2" y1="1046.8000000000002" x2="457.2" y2="1046.8000000000002" style="stroke:#00FF00;stroke-width:1" />
<text x="397.2" y="1031.8000000000002" fill="red" dominant-baseline="middle" text-anchor="middle" font-family="Consolas" font-size="60">2</text>

<line x1="337.2" y1="934.8000000000001" x2="457.2" y2="934.8000000000001" style="stroke:#00FF00;stroke-width:1" />
<line x1="457.2" y1="934.8000000000001" x2="457.2" y2="974.8000000000001" style="stroke:#00FF00;stroke-width:1" />
<line x1="457.2" y1="974.8000000000001" x2="337.2" y2="974.8000000000001" style="stroke:#00FF00;stroke-width:1" />
<line x1="337.2" y1="974.8000000000001" x2="337.2" y2="934.8000000000001" style="stroke:#00FF00;stroke-width:1" />
<text x="457.2" y="929.8000000000001" fill="purple" dominant-baseline="hanging" text-anchor="end" font-family="Consolas" font-size="60">Z</text>

<rect width="120" height="80" x="489.6" y="986.8000000000001" fill="#C0C0C0" />
<line x1="509.6" y1="986.8000000000001" x2="509.6" y2="1066.8000000000002" style="stroke:#00FF00;stroke-width:1" />
<line x1="589.6" y1="986.8000000000001" x2="589.6" y2="1066.8000000000002" style="stroke:#00FF00;stroke-width:1" />
<line x1="489.6" y1="1006.8000000000001" x2="609.6" y2="1006.8000000000001" style="stroke:#00FF00;stroke-width:1" />
<line x1="489.6" y1="1046.8000000000002" x2="609.6" y2="1046.8000000000002" style="stroke:#00FF00;stroke-width:1" />
<text x="549.6" y="1031.8000000000002" fill="red" dominant-baseline="middle" text-anchor="middle" font-family="Consolas" font-size="60">3</text>

<line x1="489.6" y1="934.8000000000001" x2="609.6" y2="934.8000000000001" style="stroke:#00FF00;stroke-width:1" />
<line x1="609.6" y1="934.8000000000001" x2="609.6" y2="974.8000000000001" style="stroke:#00FF00;stroke-width:1" />
<line x1="609.6" y1="974.8000000000001" x2="489.6" y2="974.8000000000001" style="stroke:#00FF00;stroke-width:1" />
<line x1="489.6" y1="974.8000000000001" x2="489.6" y2="934.8000000000001" style="stroke:#00FF00;stroke-width:1" />
<text x="609.6" y="918.8000000000001" fill="purple" dominant-baseline="hanging" text-anchor="end" font-family="Consolas" font-size="60">_</text>

<rect width="120" height="80" x="642.0" y="986.8000000000001" fill="#C0C0C0" />
<line x1="662.0" y1="986.8000000000001" x2="662.0" y2="1066.8000000000002" style="stroke:#00FF00;stroke-width:1" />
<line x1="742.0" y1="986.8000000000001" x2="742.0" y2="1066.8000000000002" style="stroke:#00FF00;stroke-width:1" />
<line x1="642.0" y1="1006.8000000000001" x2="762.0" y2="1006.8000000000001" style="stroke:#00FF00;stroke-width:1" />
<line x1="642.0" y1="1046.8000000000002" x2="762.0" y2="1046.8000000000002" style="stroke:#00FF00;stroke-width:1" />
<text x="702.0" y="1028.8000000000002" fill="red" dominant-baseline="middle" text-anchor="middle" font-family="Consolas" font-size="100">-</text>

<line x1="642.0" y1="934.8000000000001" x2="762.0" y2="934.8000000000001" style="stroke:#00FF00;stroke-width:1" />
<line x1="762.0" y1="934.8000000000001" x2="762.0" y2="974.8000000000001" style="stroke:#00FF00;stroke-width:1" />
<line x1="762.0" y1="974.8000000000001" x2="642.0" y2="974.8000000000001" style="stroke:#00FF00;stroke-width:1" />
<line x1="642.0" y1="974.8000000000001" x2="642.0" y2="934.8000000000001" style="stroke:#00FF00;stroke-width:1" />
<text x="762.0" y="929.8000000000001" fill="purple" dominant-baseline="hanging" text-anchor="end" font-family="Consolas" font-size="60"></text>

<rect width="120" height="80" x="32.4" y="1139.2" fill="#C0C0C0" />
<line x1="52.4" y1="1139.2" x2="52.4" y2="1219.2" style="stroke:#00FF00;stroke-width:1" />
<line x1="132.4" y1="1139.2" x2="132.4" y2="1219.2" style="stroke:#00FF00;stroke-width:1" />
<line x1="32.4" y1="1159.2" x2="152.4" y2="1159.2" style="stroke:#00FF00;stroke-width:1" />
<line x1="32.4" y1="1199.2" x2="152.4" y2="1199.2" style="stroke:#00FF00;stroke-width:1" />
<text x="92.4" y="1184.2" fill="red" dominant-baseline="middle" text-anchor="middle" font-family="Consolas" font-size="60">ON</text>

<line x1="32.4" y1="1087.2" x2="152.4" y2="1087.2" style="stroke:#00FF00;stroke-width:1" />
<line x1="152.4" y1="1087.2" x2="152.4" y2="1127.2" style="stroke:#00FF00;stroke-width:1" />
<line x1="152.4" y1="1127.2" x2="32.4" y2="1127.2" style="stroke:#00FF00;stroke-width:1" />
<line x1="32.4" y1="1127.2" x2="32.4" y2="1087.2" style="stroke:#00FF00;stroke-width:1" />
<text x="152.4" y="1082.2" fill="purple" dominant-baseline="hanging" text-anchor="end" font-family="Consolas" font-size="60"></text>

<rect width="120" height="80" x="184.8" y="1139.2" fill="#C0C0C0" />
<line x1="204.8" y1="1139.2" x2="204.8" y2="1219.2" style="stroke:#00FF00;stroke-width:1" />
<line x1="284.8" y1="1139.2" x2="284.8" y2="1219.2" style="stroke:#00FF00;stroke-width:1" />
<line x1="184.8" y1="1159.2" x2="304.8" y2="1159.2" style="stroke:#00FF00;stroke-width:1" />
<line x1="184.8" y1="1199.2" x2="304.8" y2="1199.2" style="stroke:#00FF00;stroke-width:1" />
<text x="244.8" y="1184.2" fill="red" dominant-baseline="middle" text-anchor="middle" font-family="Consolas" font-size="60">0</text>

<line x1="184.8" y1="1087.2" x2="304.8" y2="1087.2" style="stroke:#00FF00;stroke-width:1" />
<line x1="304.8" y1="1087.2" x2="304.8" y2="1127.2" style="stroke:#00FF00;stroke-width:1" />
<line x1="304.8" y1="1127.2" x2="184.8" y2="1127.2" style="stroke:#00FF00;stroke-width:1" />
<line x1="184.8" y1="1127.2" x2="184.8" y2="1087.2" style="stroke:#00FF00;stroke-width:1" />
<text x="304.8" y="1082.2" fill="purple" dominant-baseline="hanging" text-anchor="end" font-family="Consolas" font-size="60"></text>

<rect width="120" height="80" x="337.2" y="1139.2" fill="#C0C0C0" />
<line x1="357.2" y1="1139.2" x2="357.2" y2="1219.2" style="stroke:#00FF00;stroke-width:1" />
<line x1="437.2" y1="1139.2" x2="437.2" y2="1219.2" style="stroke:#00FF00;stroke-width:1" />
<line x1="337.2" y1="1159.2" x2="457.2" y2="1159.2" style="stroke:#00FF00;stroke-width:1" />
<line x1="337.2" y1="1199.2" x2="457.2" y2="1199.2" style="stroke:#00FF00;stroke-width:1" />
<text x="397.2" y="1180.2" fill="red" dominant-baseline="middle" text-anchor="middle" font-family="Consolas" font-size="60">.</text>

<line x1="337.2" y1="1087.2" x2="457.2" y2="1087.2" style="stroke:#00FF00;stroke-width:1" />
<line x1="457.2" y1="1087.2" x2="457.2" y2="1127.2" style="stroke:#00FF00;stroke-width:1" />
<line x1="457.2" y1="1127.2" x2="337.2" y2="1127.2" style="stroke:#00FF00;stroke-width:1" />
<line x1="337.2" y1="1127.2" x2="337.2" y2="1087.2" style="stroke:#00FF00;stroke-width:1" />
<text x="457.2" y="1082.2" fill="purple" dominant-baseline="hanging" text-anchor="end" font-family="Consolas" font-size="60"></text>

<rect width="120" height="80" x="489.6" y="1139.2" fill="#C0C0C0" />
<line x1="509.6" y1="1139.2" x2="509.6" y2="1219.2" style="stroke:#00FF00;stroke-width:1" />
<line x1="589.6" y1="1139.2" x2="589.6" y2="1219.2" style="stroke:#00FF00;stroke-width:1" />
<line x1="489.6" y1="1159.2" x2="609.6" y2="1159.2" style="stroke:#00FF00;stroke-width:1" />
<line x1="489.6" y1="1199.2" x2="609.6" y2="1199.2" style="stroke:#00FF00;stroke-width:1" />
<text x="549.6" y="1184.2" fill="red" dominant-baseline="middle" text-anchor="middle" font-family="Consolas" font-size="60">SP</text>

<line x1="489.6" y1="1087.2" x2="609.6" y2="1087.2" style="stroke:#00FF00;stroke-width:1" />
<line x1="609.6" y1="1087.2" x2="609.6" y2="1127.2" style="stroke:#00FF00;stroke-width:1" />
<line x1="609.6" y1="1127.2" x2="489.6" y2="1127.2" style="stroke:#00FF00;stroke-width:1" />
<line x1="489.6" y1="1127.2" x2="489.6" y2="1087.2" style="stroke:#00FF00;stroke-width:1" />
<text x="609.6" y="1082.2" fill="purple" dominant-baseline="hanging" text-anchor="end" font-family="Consolas" font-size="60"></text>

<rect width="120" height="80" x="642.0" y="1139.2" fill="#C0C0C0" />
<line x1="662.0" y1="1139.2" x2="662.0" y2="1219.2" style="stroke:#00FF00;stroke-width:1" />
<line x1="742.0" y1="1139.2" x2="742.0" y2="1219.2" style="stroke:#00FF00;stroke-width:1" />
<line x1="642.0" y1="1159.2" x2="762.0" y2="1159.2" style="stroke:#00FF00;stroke-width:1" />
<line x1="642.0" y1="1199.2" x2="762.0" y2="1199.2" style="stroke:#00FF00;stroke-width:1" />
<text x="702.0" y="1181.2" fill="red" dominant-baseline="middle" text-anchor="middle" font-family="Consolas" font-size="80">+</text>

<line x1="642.0" y1="1087.2" x2="762.0" y2="1087.2" style="stroke:#00FF00;stroke-width:1" />
<line x1="762.0" y1="1087.2" x2="762.0" y2="1127.2" style="stroke:#00FF00;stroke-width:1" />
<line x1="762.0" y1="1127.2" x2="642.0" y2="1127.2" style="stroke:#00FF00;stroke-width:1" />
<line x1="642.0" y1="1127.2" x2="642.0" y2="1087.2" style="stroke:#00FF00;stroke-width:1" />
<text x="762.0" y="1082.2" fill="purple" dominant-baseline="hanging" text-anchor="end" font-family="Consolas" font-size="60"></text>

</svg>