solid OpenSCAD_Model
  facet normal -1 0 0
    outer loop
      vertex 10 26 0
      vertex 10 21 1.2
      vertex 10 26 1.2
    endloop
  endfacet
  facet normal -1 0 0
    outer loop
      vertex 10 21 1.2
      vertex 10 13 1.2
      vertex 10 21 4
    endloop
  endfacet
  facet normal -1 0 0
    outer loop
      vertex 10 12 0
      vertex 10 21 1.2
      vertex 10 26 0
    endloop
  endfacet
  facet normal -1 -0 0
    outer loop
      vertex 10 21 1.2
      vertex 10 12 0
      vertex 10 13 1.2
    endloop
  endfacet
  facet normal -1 -0 0
    outer loop
      vertex 10 13 1.2
      vertex 10 12 0
      vertex 10 12 1.2
    endloop
  endfacet
  facet normal -1 -0 0
    outer loop
      vertex 10 21 4
      vertex 10 13 1.2
      vertex 10 13 4
    endloop
  endfacet
  facet normal -0 0 1
    outer loop
      vertex 10 13 1.2
      vertex 22 12 1.2
      vertex 22 13 1.2
    endloop
  endfacet
  facet normal 0 0 1
    outer loop
      vertex 22 12 1.2
      vertex 10 13 1.2
      vertex 10 12 1.2
    endloop
  endfacet
  facet normal 0 0 1
    outer loop
      vertex 70.96 22 1.2
      vertex 82.96 22 1.2
      vertex 82.96 26 1.2
    endloop
  endfacet
  facet normal 0 0 1
    outer loop
      vertex 82.96 22 1.2
      vertex 70.96 22 1.2
      vertex 82.96 21 1.2
    endloop
  endfacet
  facet normal 0 0 1
    outer loop
      vertex 82.96 26 1.2
      vertex 67.72 22 1.2
      vertex 70.96 22 1.2
    endloop
  endfacet
  facet normal 0 0 1
    outer loop
      vertex 67.72 22 1.2
      vertex 55.72 22 1.2
      vertex 67.72 21 1.2
    endloop
  endfacet
  facet normal 0 0 1
    outer loop
      vertex 82.96 26 1.2
      vertex 55.72 22 1.2
      vertex 67.72 22 1.2
    endloop
  endfacet
  facet normal 0 0 1
    outer loop
      vertex 82.96 26 1.2
      vertex 52.48 22 1.2
      vertex 55.72 22 1.2
    endloop
  endfacet
  facet normal 0 0 1
    outer loop
      vertex 52.48 22 1.2
      vertex 40.48 22 1.2
      vertex 52.48 21 1.2
    endloop
  endfacet
  facet normal 0 0 1
    outer loop
      vertex 82.96 26 1.2
      vertex 40.48 22 1.2
      vertex 52.48 22 1.2
    endloop
  endfacet
  facet normal -0 0 1
    outer loop
      vertex 10 26 1.2
      vertex 40.48 22 1.2
      vertex 82.96 26 1.2
    endloop
  endfacet
  facet normal 0 0 1
    outer loop
      vertex 37.24 22 1.2
      vertex 25.24 22 1.2
      vertex 37.24 21 1.2
    endloop
  endfacet
  facet normal 0 0 1
    outer loop
      vertex 40.48 22 1.2
      vertex 10 26 1.2
      vertex 37.24 22 1.2
    endloop
  endfacet
  facet normal 0 0 1
    outer loop
      vertex 37.24 22 1.2
      vertex 10 26 1.2
      vertex 25.24 22 1.2
    endloop
  endfacet
  facet normal 0 0 1
    outer loop
      vertex 25.24 22 1.2
      vertex 10 26 1.2
      vertex 22 22 1.2
    endloop
  endfacet
  facet normal 0 0 1
    outer loop
      vertex 10 21 1.2
      vertex 22 22 1.2
      vertex 10 26 1.2
    endloop
  endfacet
  facet normal 0 0 1
    outer loop
      vertex 22 22 1.2
      vertex 10 21 1.2
      vertex 22 21 1.2
    endloop
  endfacet
  facet normal 0 0 1
    outer loop
      vertex 82.96 21 1.2
      vertex 70.96 22 1.2
      vertex 70.96 21 1.2
    endloop
  endfacet
  facet normal 0 0 1
    outer loop
      vertex 67.72 21 1.2
      vertex 55.72 22 1.2
      vertex 55.72 21 1.2
    endloop
  endfacet
  facet normal 0 0 1
    outer loop
      vertex 52.48 21 1.2
      vertex 40.48 22 1.2
      vertex 40.48 21 1.2
    endloop
  endfacet
  facet normal 0 0 1
    outer loop
      vertex 37.24 21 1.2
      vertex 25.24 22 1.2
      vertex 25.24 21 1.2
    endloop
  endfacet
  facet normal 1 0 0
    outer loop
      vertex 22 21 4
      vertex 22 13 4
      vertex 22 21 1.2
    endloop
  endfacet
  facet normal 1 -0 0
    outer loop
      vertex 22 21 1.2
      vertex 22 22 0
      vertex 22 22 1.2
    endloop
  endfacet
  facet normal 1 0 0
    outer loop
      vertex 22 13 1.2
      vertex 22 21 1.2
      vertex 22 13 4
    endloop
  endfacet
  facet normal 1 0 0
    outer loop
      vertex 22 21 1.2
      vertex 22 13 1.2
      vertex 22 22 0
    endloop
  endfacet
  facet normal 1 0 0
    outer loop
      vertex 22 12 0
      vertex 22 13 1.2
      vertex 22 12 1.2
    endloop
  endfacet
  facet normal 1 0 0
    outer loop
      vertex 22 13 1.2
      vertex 22 12 0
      vertex 22 22 0
    endloop
  endfacet
  facet normal 0 0 1
    outer loop
      vertex 25.24 22 0
      vertex 22 22 0
      vertex 25.24 12 0
    endloop
  endfacet
  facet normal 0 0 1
    outer loop
      vertex 40.48 22 0
      vertex 37.24 22 0
      vertex 40.48 12 0
    endloop
  endfacet
  facet normal 0 0 1
    outer loop
      vertex 55.72 22 0
      vertex 52.48 22 0
      vertex 55.72 12 0
    endloop
  endfacet
  facet normal 0 0 1
    outer loop
      vertex 70.96 22 0
      vertex 67.72 22 0
      vertex 70.96 12 0
    endloop
  endfacet
  facet normal 0 0 1
    outer loop
      vertex 82.96 22 0
      vertex 93 33 0
      vertex 82.96 26 0
    endloop
  endfacet
  facet normal -0 0 1
    outer loop
      vertex 3 33 0
      vertex 82.96 26 0
      vertex 93 33 0
    endloop
  endfacet
  facet normal 0 0 1
    outer loop
      vertex 10 26 0
      vertex 3 33 0
      vertex 10 12 0
    endloop
  endfacet
  facet normal 0 0 1
    outer loop
      vertex 82.96 26 0
      vertex 3 33 0
      vertex 10 26 0
    endloop
  endfacet
  facet normal 0 0 1
    outer loop
      vertex 93 33 0
      vertex 82.96 22 0
      vertex 93 3 0
    endloop
  endfacet
  facet normal -0 0 1
    outer loop
      vertex 82.96 12 0
      vertex 93 3 0
      vertex 82.96 22 0
    endloop
  endfacet
  facet normal -0 0 1
    outer loop
      vertex 70.96 12 0
      vertex 93 3 0
      vertex 82.96 12 0
    endloop
  endfacet
  facet normal 0 0 1
    outer loop
      vertex 67.72 12 0
      vertex 70.96 12 0
      vertex 67.72 22 0
    endloop
  endfacet
  facet normal -0 0 1
    outer loop
      vertex 67.72 12 0
      vertex 93 3 0
      vertex 70.96 12 0
    endloop
  endfacet
  facet normal -0 0 1
    outer loop
      vertex 55.72 12 0
      vertex 93 3 0
      vertex 67.72 12 0
    endloop
  endfacet
  facet normal 0 0 1
    outer loop
      vertex 52.48 12 0
      vertex 55.72 12 0
      vertex 52.48 22 0
    endloop
  endfacet
  facet normal -0 0 1
    outer loop
      vertex 52.48 12 0
      vertex 93 3 0
      vertex 55.72 12 0
    endloop
  endfacet
  facet normal 0 0 1
    outer loop
      vertex 3 3 0
      vertex 52.48 12 0
      vertex 40.48 12 0
    endloop
  endfacet
  facet normal 0 0 1
    outer loop
      vertex 37.24 12 0
      vertex 40.48 12 0
      vertex 37.24 22 0
    endloop
  endfacet
  facet normal 0 0 1
    outer loop
      vertex 3 3 0
      vertex 40.48 12 0
      vertex 37.24 12 0
    endloop
  endfacet
  facet normal 0 0 1
    outer loop
      vertex 3 3 0
      vertex 37.24 12 0
      vertex 25.24 12 0
    endloop
  endfacet
  facet normal 0 0 1
    outer loop
      vertex 22 12 0
      vertex 25.24 12 0
      vertex 22 22 0
    endloop
  endfacet
  facet normal 0 0 1
    outer loop
      vertex 3 3 0
      vertex 25.24 12 0
      vertex 22 12 0
    endloop
  endfacet
  facet normal 0 0 1
    outer loop
      vertex 3 3 0
      vertex 22 12 0
      vertex 10 12 0
    endloop
  endfacet
  facet normal 0 0 1
    outer loop
      vertex 52.48 12 0
      vertex 3 3 0
      vertex 93 3 0
    endloop
  endfacet
  facet normal 0 0 1
    outer loop
      vertex 3 3 0
      vertex 10 12 0
      vertex 3 33 0
    endloop
  endfacet
  facet normal 0 -1 0
    outer loop
      vertex 10 12 0
      vertex 22 12 1.2
      vertex 10 12 1.2
    endloop
  endfacet
  facet normal 0 -1 -0
    outer loop
      vertex 22 12 1.2
      vertex 10 12 0
      vertex 22 12 0
    endloop
  endfacet
  facet normal 0 -1 0
    outer loop
      vertex 67.72 22 0
      vertex 70.96 22 1.2
      vertex 67.72 22 1.2
    endloop
  endfacet
  facet normal 0 -1 -0
    outer loop
      vertex 70.96 22 1.2
      vertex 67.72 22 0
      vertex 70.96 22 0
    endloop
  endfacet
  facet normal 0 -1 0
    outer loop
      vertex 52.48 22 0
      vertex 55.72 22 1.2
      vertex 52.48 22 1.2
    endloop
  endfacet
  facet normal 0 -1 -0
    outer loop
      vertex 55.72 22 1.2
      vertex 52.48 22 0
      vertex 55.72 22 0
    endloop
  endfacet
  facet normal 0 -1 0
    outer loop
      vertex 37.24 22 0
      vertex 40.48 22 1.2
      vertex 37.24 22 1.2
    endloop
  endfacet
  facet normal 0 -1 -0
    outer loop
      vertex 40.48 22 1.2
      vertex 37.24 22 0
      vertex 40.48 22 0
    endloop
  endfacet
  facet normal 0 -1 0
    outer loop
      vertex 22 22 0
      vertex 25.24 22 1.2
      vertex 22 22 1.2
    endloop
  endfacet
  facet normal 0 -1 -0
    outer loop
      vertex 25.24 22 1.2
      vertex 22 22 0
      vertex 25.24 22 0
    endloop
  endfacet
  facet normal -0 0 1
    outer loop
      vertex 10 21 4
      vertex 22 13 4
      vertex 22 21 4
    endloop
  endfacet
  facet normal 0 0 1
    outer loop
      vertex 22 13 4
      vertex 10 21 4
      vertex 10 13 4
    endloop
  endfacet
  facet normal 0 -1 0
    outer loop
      vertex 10 13 1.2
      vertex 22 13 4
      vertex 10 13 4
    endloop
  endfacet
  facet normal 0 -1 -0
    outer loop
      vertex 22 13 4
      vertex 10 13 1.2
      vertex 22 13 1.2
    endloop
  endfacet
  facet normal 0 1 -0
    outer loop
      vertex 22 21 1.2
      vertex 10 21 4
      vertex 22 21 4
    endloop
  endfacet
  facet normal 0 1 0
    outer loop
      vertex 10 21 4
      vertex 22 21 1.2
      vertex 10 21 1.2
    endloop
  endfacet
  facet normal -1 0 0
    outer loop
      vertex 25.24 22 0
      vertex 25.24 21 1.2
      vertex 25.24 22 1.2
    endloop
  endfacet
  facet normal -1 0 0
    outer loop
      vertex 25.24 21 1.2
      vertex 25.24 13 1.2
      vertex 25.24 21 4
    endloop
  endfacet
  facet normal -1 0 0
    outer loop
      vertex 25.24 22 0
      vertex 25.24 13 1.2
      vertex 25.24 21 1.2
    endloop
  endfacet
  facet normal -1 0 0
    outer loop
      vertex 25.24 12 0
      vertex 25.24 13 1.2
      vertex 25.24 22 0
    endloop
  endfacet
  facet normal -1 -0 0
    outer loop
      vertex 25.24 13 1.2
      vertex 25.24 12 0
      vertex 25.24 12 1.2
    endloop
  endfacet
  facet normal -1 -0 0
    outer loop
      vertex 25.24 21 4
      vertex 25.24 13 1.2
      vertex 25.24 13 4
    endloop
  endfacet
  facet normal -0 0 1
    outer loop
      vertex 25.24 13 1.2
      vertex 37.24 12 1.2
      vertex 37.24 13 1.2
    endloop
  endfacet
  facet normal 0 0 1
    outer loop
      vertex 37.24 12 1.2
      vertex 25.24 13 1.2
      vertex 25.24 12 1.2
    endloop
  endfacet
  facet normal 1 0 0
    outer loop
      vertex 37.24 21 4
      vertex 37.24 13 4
      vertex 37.24 21 1.2
    endloop
  endfacet
  facet normal 1 -0 0
    outer loop
      vertex 37.24 21 1.2
      vertex 37.24 22 0
      vertex 37.24 22 1.2
    endloop
  endfacet
  facet normal 1 0 0
    outer loop
      vertex 37.24 13 1.2
      vertex 37.24 21 1.2
      vertex 37.24 13 4
    endloop
  endfacet
  facet normal 1 0 0
    outer loop
      vertex 37.24 21 1.2
      vertex 37.24 13 1.2
      vertex 37.24 22 0
    endloop
  endfacet
  facet normal 1 0 0
    outer loop
      vertex 37.24 12 0
      vertex 37.24 13 1.2
      vertex 37.24 12 1.2
    endloop
  endfacet
  facet normal 1 0 0
    outer loop
      vertex 37.24 13 1.2
      vertex 37.24 12 0
      vertex 37.24 22 0
    endloop
  endfacet
  facet normal 0 -1 0
    outer loop
      vertex 25.24 12 0
      vertex 37.24 12 1.2
      vertex 25.24 12 1.2
    endloop
  endfacet
  facet normal 0 -1 -0
    outer loop
      vertex 37.24 12 1.2
      vertex 25.24 12 0
      vertex 37.24 12 0
    endloop
  endfacet
  facet normal -0 0 1
    outer loop
      vertex 25.24 21 4
      vertex 37.24 13 4
      vertex 37.24 21 4
    endloop
  endfacet
  facet normal 0 0 1
    outer loop
      vertex 37.24 13 4
      vertex 25.24 21 4
      vertex 25.24 13 4
    endloop
  endfacet
  facet normal 0 -1 0
    outer loop
      vertex 25.24 13 1.2
      vertex 37.24 13 4
      vertex 25.24 13 4
    endloop
  endfacet
  facet normal 0 -1 -0
    outer loop
      vertex 37.24 13 4
      vertex 25.24 13 1.2
      vertex 37.24 13 1.2
    endloop
  endfacet
  facet normal 0 1 -0
    outer loop
      vertex 37.24 21 1.2
      vertex 25.24 21 4
      vertex 37.24 21 4
    endloop
  endfacet
  facet normal 0 1 0
    outer loop
      vertex 25.24 21 4
      vertex 37.24 21 1.2
      vertex 25.24 21 1.2
    endloop
  endfacet
  facet normal -1 0 0
    outer loop
      vertex 40.48 22 0
      vertex 40.48 21 1.2
      vertex 40.48 22 1.2
    endloop
  endfacet
  facet normal -1 0 0
    outer loop
      vertex 40.48 21 1.2
      vertex 40.48 13 1.2
      vertex 40.48 21 4
    endloop
  endfacet
  facet normal -1 0 0
    outer loop
      vertex 40.48 22 0
      vertex 40.48 13 1.2
      vertex 40.48 21 1.2
    endloop
  endfacet
  facet normal -1 0 0
    outer loop
      vertex 40.48 12 0
      vertex 40.48 13 1.2
      vertex 40.48 22 0
    endloop
  endfacet
  facet normal -1 -0 0
    outer loop
      vertex 40.48 13 1.2
      vertex 40.48 12 0
      vertex 40.48 12 1.2
    endloop
  endfacet
  facet normal -1 -0 0
    outer loop
      vertex 40.48 21 4
      vertex 40.48 13 1.2
      vertex 40.48 13 4
    endloop
  endfacet
  facet normal -0 0 1
    outer loop
      vertex 40.48 13 1.2
      vertex 52.48 12 1.2
      vertex 52.48 13 1.2
    endloop
  endfacet
  facet normal 0 0 1
    outer loop
      vertex 52.48 12 1.2
      vertex 40.48 13 1.2
      vertex 40.48 12 1.2
    endloop
  endfacet
  facet normal 1 0 0
    outer loop
      vertex 52.48 21 4
      vertex 52.48 13 4
      vertex 52.48 21 1.2
    endloop
  endfacet
  facet normal 1 -0 0
    outer loop
      vertex 52.48 21 1.2
      vertex 52.48 22 0
      vertex 52.48 22 1.2
    endloop
  endfacet
  facet normal 1 0 0
    outer loop
      vertex 52.48 13 1.2
      vertex 52.48 21 1.2
      vertex 52.48 13 4
    endloop
  endfacet
  facet normal 1 0 0
    outer loop
      vertex 52.48 21 1.2
      vertex 52.48 13 1.2
      vertex 52.48 22 0
    endloop
  endfacet
  facet normal 1 0 0
    outer loop
      vertex 52.48 12 0
      vertex 52.48 13 1.2
      vertex 52.48 12 1.2
    endloop
  endfacet
  facet normal 1 0 0
    outer loop
      vertex 52.48 13 1.2
      vertex 52.48 12 0
      vertex 52.48 22 0
    endloop
  endfacet
  facet normal 0 -1 0
    outer loop
      vertex 40.48 12 0
      vertex 52.48 12 1.2
      vertex 40.48 12 1.2
    endloop
  endfacet
  facet normal 0 -1 -0
    outer loop
      vertex 52.48 12 1.2
      vertex 40.48 12 0
      vertex 52.48 12 0
    endloop
  endfacet
  facet normal -0 0 1
    outer loop
      vertex 40.48 21 4
      vertex 52.48 13 4
      vertex 52.48 21 4
    endloop
  endfacet
  facet normal 0 0 1
    outer loop
      vertex 52.48 13 4
      vertex 40.48 21 4
      vertex 40.48 13 4
    endloop
  endfacet
  facet normal 0 -1 0
    outer loop
      vertex 40.48 13 1.2
      vertex 52.48 13 4
      vertex 40.48 13 4
    endloop
  endfacet
  facet normal 0 -1 -0
    outer loop
      vertex 52.48 13 4
      vertex 40.48 13 1.2
      vertex 52.48 13 1.2
    endloop
  endfacet
  facet normal 0 1 -0
    outer loop
      vertex 52.48 21 1.2
      vertex 40.48 21 4
      vertex 52.48 21 4
    endloop
  endfacet
  facet normal 0 1 0
    outer loop
      vertex 40.48 21 4
      vertex 52.48 21 1.2
      vertex 40.48 21 1.2
    endloop
  endfacet
  facet normal -1 0 0
    outer loop
      vertex 55.72 22 0
      vertex 55.72 21 1.2
      vertex 55.72 22 1.2
    endloop
  endfacet
  facet normal -1 0 0
    outer loop
      vertex 55.72 21 1.2
      vertex 55.72 13 1.2
      vertex 55.72 21 4
    endloop
  endfacet
  facet normal -1 0 0
    outer loop
      vertex 55.72 22 0
      vertex 55.72 13 1.2
      vertex 55.72 21 1.2
    endloop
  endfacet
  facet normal -1 0 0
    outer loop
      vertex 55.72 12 0
      vertex 55.72 13 1.2
      vertex 55.72 22 0
    endloop
  endfacet
  facet normal -1 -0 0
    outer loop
      vertex 55.72 13 1.2
      vertex 55.72 12 0
      vertex 55.72 12 1.2
    endloop
  endfacet
  facet normal -1 -0 0
    outer loop
      vertex 55.72 21 4
      vertex 55.72 13 1.2
      vertex 55.72 13 4
    endloop
  endfacet
  facet normal -0 0 1
    outer loop
      vertex 55.72 13 1.2
      vertex 67.72 12 1.2
      vertex 67.72 13 1.2
    endloop
  endfacet
  facet normal 0 0 1
    outer loop
      vertex 67.72 12 1.2
      vertex 55.72 13 1.2
      vertex 55.72 12 1.2
    endloop
  endfacet
  facet normal 1 0 0
    outer loop
      vertex 67.72 21 4
      vertex 67.72 13 4
      vertex 67.72 21 1.2
    endloop
  endfacet
  facet normal 1 -0 0
    outer loop
      vertex 67.72 21 1.2
      vertex 67.72 22 0
      vertex 67.72 22 1.2
    endloop
  endfacet
  facet normal 1 0 0
    outer loop
      vertex 67.72 13 1.2
      vertex 67.72 21 1.2
      vertex 67.72 13 4
    endloop
  endfacet
  facet normal 1 0 0
    outer loop
      vertex 67.72 21 1.2
      vertex 67.72 13 1.2
      vertex 67.72 22 0
    endloop
  endfacet
  facet normal 1 0 0
    outer loop
      vertex 67.72 12 0
      vertex 67.72 13 1.2
      vertex 67.72 12 1.2
    endloop
  endfacet
  facet normal 1 0 0
    outer loop
      vertex 67.72 13 1.2
      vertex 67.72 12 0
      vertex 67.72 22 0
    endloop
  endfacet
  facet normal 0 -1 0
    outer loop
      vertex 55.72 12 0
      vertex 67.72 12 1.2
      vertex 55.72 12 1.2
    endloop
  endfacet
  facet normal 0 -1 -0
    outer loop
      vertex 67.72 12 1.2
      vertex 55.72 12 0
      vertex 67.72 12 0
    endloop
  endfacet
  facet normal -0 0 1
    outer loop
      vertex 55.72 21 4
      vertex 67.72 13 4
      vertex 67.72 21 4
    endloop
  endfacet
  facet normal 0 0 1
    outer loop
      vertex 67.72 13 4
      vertex 55.72 21 4
      vertex 55.72 13 4
    endloop
  endfacet
  facet normal 0 -1 0
    outer loop
      vertex 55.72 13 1.2
      vertex 67.72 13 4
      vertex 55.72 13 4
    endloop
  endfacet
  facet normal 0 -1 -0
    outer loop
      vertex 67.72 13 4
      vertex 55.72 13 1.2
      vertex 67.72 13 1.2
    endloop
  endfacet
  facet normal 0 1 -0
    outer loop
      vertex 67.72 21 1.2
      vertex 55.72 21 4
      vertex 67.72 21 4
    endloop
  endfacet
  facet normal 0 1 0
    outer loop
      vertex 55.72 21 4
      vertex 67.72 21 1.2
      vertex 55.72 21 1.2
    endloop
  endfacet
  facet normal -1 0 0
    outer loop
      vertex 70.96 22 0
      vertex 70.96 21 1.2
      vertex 70.96 22 1.2
    endloop
  endfacet
  facet normal -1 0 0
    outer loop
      vertex 70.96 21 1.2
      vertex 70.96 13 1.2
      vertex 70.96 21 4
    endloop
  endfacet
  facet normal -1 0 0
    outer loop
      vertex 70.96 22 0
      vertex 70.96 13 1.2
      vertex 70.96 21 1.2
    endloop
  endfacet
  facet normal -1 0 0
    outer loop
      vertex 70.96 12 0
      vertex 70.96 13 1.2
      vertex 70.96 22 0
    endloop
  endfacet
  facet normal -1 -0 0
    outer loop
      vertex 70.96 13 1.2
      vertex 70.96 12 0
      vertex 70.96 12 1.2
    endloop
  endfacet
  facet normal -1 -0 0
    outer loop
      vertex 70.96 21 4
      vertex 70.96 13 1.2
      vertex 70.96 13 4
    endloop
  endfacet
  facet normal -0 0 1
    outer loop
      vertex 70.96 13 1.2
      vertex 82.96 12 1.2
      vertex 82.96 13 1.2
    endloop
  endfacet
  facet normal 0 0 1
    outer loop
      vertex 82.96 12 1.2
      vertex 70.96 13 1.2
      vertex 70.96 12 1.2
    endloop
  endfacet
  facet normal 1 0 0
    outer loop
      vertex 82.96 21 4
      vertex 82.96 13 4
      vertex 82.96 21 1.2
    endloop
  endfacet
  facet normal 1 -0 0
    outer loop
      vertex 82.96 21 1.2
      vertex 82.96 22 0
      vertex 82.96 22 1.2
    endloop
  endfacet
  facet normal 1 0 0
    outer loop
      vertex 82.96 13 1.2
      vertex 82.96 21 1.2
      vertex 82.96 13 4
    endloop
  endfacet
  facet normal 1 0 0
    outer loop
      vertex 82.96 21 1.2
      vertex 82.96 13 1.2
      vertex 82.96 22 0
    endloop
  endfacet
  facet normal 1 0 0
    outer loop
      vertex 82.96 12 0
      vertex 82.96 13 1.2
      vertex 82.96 12 1.2
    endloop
  endfacet
  facet normal 1 0 0
    outer loop
      vertex 82.96 13 1.2
      vertex 82.96 12 0
      vertex 82.96 22 0
    endloop
  endfacet
  facet normal 0 -1 0
    outer loop
      vertex 70.96 12 0
      vertex 82.96 12 1.2
      vertex 70.96 12 1.2
    endloop
  endfacet
  facet normal 0 -1 -0
    outer loop
      vertex 82.96 12 1.2
      vertex 70.96 12 0
      vertex 82.96 12 0
    endloop
  endfacet
  facet normal -0 0 1
    outer loop
      vertex 70.96 21 4
      vertex 82.96 13 4
      vertex 82.96 21 4
    endloop
  endfacet
  facet normal 0 0 1
    outer loop
      vertex 82.96 13 4
      vertex 70.96 21 4
      vertex 70.96 13 4
    endloop
  endfacet
  facet normal 0 -1 0
    outer loop
      vertex 70.96 13 1.2
      vertex 82.96 13 4
      vertex 70.96 13 4
    endloop
  endfacet
  facet normal 0 -1 -0
    outer loop
      vertex 82.96 13 4
      vertex 70.96 13 1.2
      vertex 82.96 13 1.2
    endloop
  endfacet
  facet normal 0 1 -0
    outer loop
      vertex 82.96 21 1.2
      vertex 70.96 21 4
      vertex 82.96 21 4
    endloop
  endfacet
  facet normal 0 1 0
    outer loop
      vertex 70.96 21 4
      vertex 82.96 21 1.2
      vertex 70.96 21 1.2
    endloop
  endfacet
  facet normal 1 -0 0
    outer loop
      vertex 82.96 22 1.2
      vertex 82.96 26 0
      vertex 82.96 26 1.2
    endloop
  endfacet
  facet normal 1 0 0
    outer loop
      vertex 82.96 26 0
      vertex 82.96 22 1.2
      vertex 82.96 22 0
    endloop
  endfacet
  facet normal 0 1 -0
    outer loop
      vertex 82.96 26 0
      vertex 10 26 1.2
      vertex 82.96 26 1.2
    endloop
  endfacet
  facet normal 0 1 0
    outer loop
      vertex 10 26 1.2
      vertex 82.96 26 0
      vertex 10 26 0
    endloop
  endfacet
  facet normal -1 0 0
    outer loop
      vertex 0 0 -2
      vertex 0 36 15
      vertex 0 36 -2
    endloop
  endfacet
  facet normal -1 -0 0
    outer loop
      vertex 0 36 15
      vertex 0 0 -2
      vertex 0 0 15
    endloop
  endfacet
  facet normal 0 0 1
    outer loop
      vertex 96 36 15
      vertex 93 33 15
      vertex 96 0 15
    endloop
  endfacet
  facet normal 0 0 1
    outer loop
      vertex 96 36 15
      vertex 3 33 15
      vertex 93 33 15
    endloop
  endfacet
  facet normal 0 0 1
    outer loop
      vertex 3 33 15
      vertex 0 36 15
      vertex 3 3 15
    endloop
  endfacet
  facet normal -0 0 1
    outer loop
      vertex 0 36 15
      vertex 3 33 15
      vertex 96 36 15
    endloop
  endfacet
  facet normal -0 0 1
    outer loop
      vertex 93 3 15
      vertex 96 0 15
      vertex 93 33 15
    endloop
  endfacet
  facet normal -0 0 1
    outer loop
      vertex 3 3 15
      vertex 96 0 15
      vertex 93 3 15
    endloop
  endfacet
  facet normal 0 0 1
    outer loop
      vertex 3 3 15
      vertex 0 0 15
      vertex 96 0 15
    endloop
  endfacet
  facet normal 0 0 1
    outer loop
      vertex 0 0 15
      vertex 3 3 15
      vertex 0 36 15
    endloop
  endfacet
  facet normal 1 -0 0
    outer loop
      vertex 96 0 15
      vertex 96 36 -2
      vertex 96 36 15
    endloop
  endfacet
  facet normal 1 0 0
    outer loop
      vertex 96 36 -2
      vertex 96 0 15
      vertex 96 0 -2
    endloop
  endfacet
  facet normal 0 1 -0
    outer loop
      vertex 96 36 -2
      vertex 0 36 15
      vertex 96 36 15
    endloop
  endfacet
  facet normal 0 1 0
    outer loop
      vertex 0 36 15
      vertex 96 36 -2
      vertex 0 36 -2
    endloop
  endfacet
  facet normal 0 0 -1
    outer loop
      vertex 0 0 -2
      vertex 96 36 -2
      vertex 96 0 -2
    endloop
  endfacet
  facet normal -0 0 -1
    outer loop
      vertex 96 36 -2
      vertex 0 0 -2
      vertex 0 36 -2
    endloop
  endfacet
  facet normal 0 -1 0
    outer loop
      vertex 0 0 -2
      vertex 96 0 15
      vertex 0 0 15
    endloop
  endfacet
  facet normal 0 -1 -0
    outer loop
      vertex 96 0 15
      vertex 0 0 -2
      vertex 96 0 -2
    endloop
  endfacet
  facet normal 1 -0 0
    outer loop
      vertex 3 3 15
      vertex 3 33 0
      vertex 3 33 15
    endloop
  endfacet
  facet normal 1 0 0
    outer loop
      vertex 3 33 0
      vertex 3 3 15
      vertex 3 3 0
    endloop
  endfacet
  facet normal -1 0 0
    outer loop
      vertex 93 3 0
      vertex 93 33 15
      vertex 93 33 0
    endloop
  endfacet
  facet normal -1 -0 0
    outer loop
      vertex 93 33 15
      vertex 93 3 0
      vertex 93 3 15
    endloop
  endfacet
  facet normal 0 -1 0
    outer loop
      vertex 3 33 0
      vertex 93 33 15
      vertex 3 33 15
    endloop
  endfacet
  facet normal 0 -1 -0
    outer loop
      vertex 93 33 15
      vertex 3 33 0
      vertex 93 33 0
    endloop
  endfacet
  facet normal 0 1 -0
    outer loop
      vertex 93 3 0
      vertex 3 3 15
      vertex 93 3 15
    endloop
  endfacet
  facet normal 0 1 0
    outer loop
      vertex 3 3 15
      vertex 93 3 0
      vertex 3 3 0
    endloop
  endfacet
endsolid OpenSCAD_Model
