solid OpenSCAD_Model
  facet normal -1 0 0
    outer loop
      vertex 0 0 -2
      vertex 0 36 30
      vertex 0 36 -2
    endloop
  endfacet
  facet normal -1 -0 0
    outer loop
      vertex 0 36 30
      vertex 0 0 -2
      vertex 0 0 30
    endloop
  endfacet
  facet normal 0 0 1
    outer loop
      vertex 96 36 30
      vertex 93 33 30
      vertex 96 0 30
    endloop
  endfacet
  facet normal 0 0 1
    outer loop
      vertex 96 36 30
      vertex 3 33 30
      vertex 93 33 30
    endloop
  endfacet
  facet normal 0 0 1
    outer loop
      vertex 3 33 30
      vertex 0 36 30
      vertex 3 3 30
    endloop
  endfacet
  facet normal -0 0 1
    outer loop
      vertex 0 36 30
      vertex 3 33 30
      vertex 96 36 30
    endloop
  endfacet
  facet normal -0 0 1
    outer loop
      vertex 93 3 30
      vertex 96 0 30
      vertex 93 33 30
    endloop
  endfacet
  facet normal -0 0 1
    outer loop
      vertex 3 3 30
      vertex 96 0 30
      vertex 93 3 30
    endloop
  endfacet
  facet normal 0 0 1
    outer loop
      vertex 3 3 30
      vertex 0 0 30
      vertex 96 0 30
    endloop
  endfacet
  facet normal 0 0 1
    outer loop
      vertex 0 0 30
      vertex 3 3 30
      vertex 0 36 30
    endloop
  endfacet
  facet normal 1 -0 0
    outer loop
      vertex 96 0 30
      vertex 96 36 -2
      vertex 96 36 30
    endloop
  endfacet
  facet normal 1 0 0
    outer loop
      vertex 96 36 -2
      vertex 96 0 30
      vertex 96 0 -2
    endloop
  endfacet
  facet normal 0 0 -1
    outer loop
      vertex 0 0 -2
      vertex 96 36 -2
      vertex 96 0 -2
    endloop
  endfacet
  facet normal -0 0 -1
    outer loop
      vertex 96 36 -2
      vertex 0 0 -2
      vertex 0 36 -2
    endloop
  endfacet
  facet normal 0 -1 0
    outer loop
      vertex 0 0 -2
      vertex 96 0 30
      vertex 0 0 30
    endloop
  endfacet
  facet normal 0 -1 -0
    outer loop
      vertex 96 0 30
      vertex 0 0 -2
      vertex 96 0 -2
    endloop
  endfacet
  facet normal 0 1 -0
    outer loop
      vertex 96 36 -2
      vertex 0 36 30
      vertex 96 36 30
    endloop
  endfacet
  facet normal 0 1 0
    outer loop
      vertex 0 36 30
      vertex 96 36 -2
      vertex 0 36 -2
    endloop
  endfacet
  facet normal 1 -0 0
    outer loop
      vertex 3 3 30
      vertex 3 33 0
      vertex 3 33 30
    endloop
  endfacet
  facet normal 1 0 0
    outer loop
      vertex 3 33 0
      vertex 3 3 30
      vertex 3 3 0
    endloop
  endfacet
  facet normal -1 0 0
    outer loop
      vertex 93 3 0
      vertex 93 33 30
      vertex 93 33 0
    endloop
  endfacet
  facet normal -1 -0 0
    outer loop
      vertex 93 33 30
      vertex 93 3 0
      vertex 93 3 30
    endloop
  endfacet
  facet normal -0 0 1
    outer loop
      vertex 3 33 0
      vertex 93 3 0
      vertex 93 33 0
    endloop
  endfacet
  facet normal 0 0 1
    outer loop
      vertex 93 3 0
      vertex 3 33 0
      vertex 3 3 0
    endloop
  endfacet
  facet normal 0 1 -0
    outer loop
      vertex 93 3 0
      vertex 3 3 30
      vertex 93 3 30
    endloop
  endfacet
  facet normal 0 1 0
    outer loop
      vertex 3 3 30
      vertex 93 3 0
      vertex 3 3 0
    endloop
  endfacet
  facet normal 0 -1 0
    outer loop
      vertex 3 33 0
      vertex 93 33 30
      vertex 3 33 30
    endloop
  endfacet
  facet normal 0 -1 -0
    outer loop
      vertex 93 33 30
      vertex 3 33 0
      vertex 93 33 0
    endloop
  endfacet
endsolid OpenSCAD_Model
