solid OpenSCAD_Model
  facet normal -1 0 0
    outer loop
      vertex 0 0 0
      vertex 0 54.48 18
      vertex 0 54.48 0
    endloop
  endfacet
  facet normal -1 -0 0
    outer loop
      vertex 0 54.48 18
      vertex 0 0 0
      vertex 0 0 18
    endloop
  endfacet
  facet normal 0 0 1
    outer loop
      vertex 117.92 54.48 18
      vertex 114.92 51.48 18
      vertex 117.92 0 18
    endloop
  endfacet
  facet normal 0 0 1
    outer loop
      vertex 117.92 54.48 18
      vertex 3 51.48 18
      vertex 114.92 51.48 18
    endloop
  endfacet
  facet normal 0 0 1
    outer loop
      vertex 3 51.48 18
      vertex 0 54.48 18
      vertex 3 3 18
    endloop
  endfacet
  facet normal -0 0 1
    outer loop
      vertex 0 54.48 18
      vertex 3 51.48 18
      vertex 117.92 54.48 18
    endloop
  endfacet
  facet normal -0 0 1
    outer loop
      vertex 114.92 3 18
      vertex 117.92 0 18
      vertex 114.92 51.48 18
    endloop
  endfacet
  facet normal -0 0 1
    outer loop
      vertex 3 3 18
      vertex 117.92 0 18
      vertex 114.92 3 18
    endloop
  endfacet
  facet normal 0 0 1
    outer loop
      vertex 3 3 18
      vertex 0 0 18
      vertex 117.92 0 18
    endloop
  endfacet
  facet normal 0 0 1
    outer loop
      vertex 0 0 18
      vertex 3 3 18
      vertex 0 54.48 18
    endloop
  endfacet
  facet normal 1 -0 0
    outer loop
      vertex 117.92 0 18
      vertex 117.92 54.48 0
      vertex 117.92 54.48 18
    endloop
  endfacet
  facet normal 1 0 0
    outer loop
      vertex 117.92 54.48 0
      vertex 117.92 0 18
      vertex 117.92 0 0
    endloop
  endfacet
  facet normal 0 1 -0
    outer loop
      vertex 117.92 54.48 0
      vertex 0 54.48 18
      vertex 117.92 54.48 18
    endloop
  endfacet
  facet normal 0 1 0
    outer loop
      vertex 0 54.48 18
      vertex 117.92 54.48 0
      vertex 0 54.48 0
    endloop
  endfacet
  facet normal 0 0 -1
    outer loop
      vertex 0 0 0
      vertex 117.92 54.48 0
      vertex 117.92 0 0
    endloop
  endfacet
  facet normal -0 0 -1
    outer loop
      vertex 117.92 54.48 0
      vertex 0 0 0
      vertex 0 54.48 0
    endloop
  endfacet
  facet normal 0 -1 0
    outer loop
      vertex 0 0 0
      vertex 117.92 0 18
      vertex 0 0 18
    endloop
  endfacet
  facet normal 0 -1 -0
    outer loop
      vertex 117.92 0 18
      vertex 0 0 0
      vertex 117.92 0 0
    endloop
  endfacet
  facet normal 1 -0 0
    outer loop
      vertex 3 3 18
      vertex 3 51.48 2
      vertex 3 51.48 18
    endloop
  endfacet
  facet normal 1 0 0
    outer loop
      vertex 3 51.48 2
      vertex 3 3 18
      vertex 3 3 2
    endloop
  endfacet
  facet normal -1 0 0
    outer loop
      vertex 114.92 3 2
      vertex 114.92 51.48 18
      vertex 114.92 51.48 2
    endloop
  endfacet
  facet normal -1 -0 0
    outer loop
      vertex 114.92 51.48 18
      vertex 114.92 3 2
      vertex 114.92 3 18
    endloop
  endfacet
  facet normal 0 0 1
    outer loop
      vertex 114.92 51.48 2
      vertex 111.92 48.48 2
      vertex 114.92 3 2
    endloop
  endfacet
  facet normal 0 0 1
    outer loop
      vertex 114.92 51.48 2
      vertex 6 48.48 2
      vertex 111.92 48.48 2
    endloop
  endfacet
  facet normal 0 0 1
    outer loop
      vertex 6 48.48 2
      vertex 3 51.48 2
      vertex 6 6 2
    endloop
  endfacet
  facet normal -0 0 1
    outer loop
      vertex 3 51.48 2
      vertex 6 48.48 2
      vertex 114.92 51.48 2
    endloop
  endfacet
  facet normal -0 0 1
    outer loop
      vertex 111.92 6 2
      vertex 114.92 3 2
      vertex 111.92 48.48 2
    endloop
  endfacet
  facet normal -0 0 1
    outer loop
      vertex 6 6 2
      vertex 114.92 3 2
      vertex 111.92 6 2
    endloop
  endfacet
  facet normal 0 0 1
    outer loop
      vertex 6 6 2
      vertex 3 3 2
      vertex 114.92 3 2
    endloop
  endfacet
  facet normal 0 0 1
    outer loop
      vertex 3 3 2
      vertex 6 6 2
      vertex 3 51.48 2
    endloop
  endfacet
  facet normal 0 1 -0
    outer loop
      vertex 114.92 3 2
      vertex 3 3 18
      vertex 114.92 3 18
    endloop
  endfacet
  facet normal 0 1 0
    outer loop
      vertex 3 3 18
      vertex 114.92 3 2
      vertex 3 3 2
    endloop
  endfacet
  facet normal 0 -1 0
    outer loop
      vertex 3 51.48 2
      vertex 114.92 51.48 18
      vertex 3 51.48 18
    endloop
  endfacet
  facet normal 0 -1 -0
    outer loop
      vertex 114.92 51.48 18
      vertex 3 51.48 2
      vertex 114.92 51.48 2
    endloop
  endfacet
  facet normal -1 0 0
    outer loop
      vertex 6 6 2
      vertex 6 48.48 10
      vertex 6 48.48 2
    endloop
  endfacet
  facet normal -1 -0 0
    outer loop
      vertex 6 48.48 10
      vertex 6 6 2
      vertex 6 6 10
    endloop
  endfacet
  facet normal -0 0 1
    outer loop
      vertex 6 48.48 10
      vertex 111.92 6 10
      vertex 111.92 48.48 10
    endloop
  endfacet
  facet normal 0 0 1
    outer loop
      vertex 111.92 6 10
      vertex 6 48.48 10
      vertex 6 6 10
    endloop
  endfacet
  facet normal 1 -0 0
    outer loop
      vertex 111.92 6 10
      vertex 111.92 48.48 2
      vertex 111.92 48.48 10
    endloop
  endfacet
  facet normal 1 0 0
    outer loop
      vertex 111.92 48.48 2
      vertex 111.92 6 10
      vertex 111.92 6 2
    endloop
  endfacet
  facet normal 0 1 -0
    outer loop
      vertex 111.92 48.48 2
      vertex 6 48.48 10
      vertex 111.92 48.48 10
    endloop
  endfacet
  facet normal 0 1 0
    outer loop
      vertex 6 48.48 10
      vertex 111.92 48.48 2
      vertex 6 48.48 2
    endloop
  endfacet
  facet normal 0 -1 0
    outer loop
      vertex 6 6 2
      vertex 111.92 6 10
      vertex 6 6 10
    endloop
  endfacet
  facet normal 0 -1 -0
    outer loop
      vertex 111.92 6 10
      vertex 6 6 2
      vertex 111.92 6 2
    endloop
  endfacet
endsolid OpenSCAD_Model
