<?xml version="1.0" encoding="UTF-8" standalone="no"?>
<svg
   xmlns:dc="http://purl.org/dc/elements/1.1/"
   xmlns:cc="http://creativecommons.org/ns#"
   xmlns:rdf="http://www.w3.org/1999/02/22-rdf-syntax-ns#"
   xmlns:svg="http://www.w3.org/2000/svg"
   xmlns="http://www.w3.org/2000/svg"
   xmlns:sodipodi="http://sodipodi.sourceforge.net/DTD/sodipodi-0.dtd"
   xmlns:inkscape="http://www.inkscape.org/namespaces/inkscape"
   width="794.4"
   height="1291.6000000000001"
   version="1.1"
   id="svg162"
   sodipodi:docname="keypad_path.svg"
   inkscape:version="1.0.1 (3bc2e813f5, 2020-09-07)">
  <metadata
     id="metadata168">
    <rdf:RDF>
      <cc:Work
         rdf:about="">
        <dc:format>image/svg+xml</dc:format>
        <dc:type
           rdf:resource="http://purl.org/dc/dcmitype/StillImage" />
        <dc:title></dc:title>
      </cc:Work>
    </rdf:RDF>
  </metadata>
  <defs
     id="defs166" />
  <sodipodi:namedview
     pagecolor="#ffffff"
     bordercolor="#666666"
     borderopacity="1"
     objecttolerance="10"
     gridtolerance="10"
     guidetolerance="10"
     inkscape:pageopacity="0"
     inkscape:pageshadow="2"
     inkscape:window-width="773"
     inkscape:window-height="480"
     id="namedview164"
     showgrid="false"
     inkscape:zoom="0.64261382"
     inkscape:cx="397.20001"
     inkscape:cy="645.79999"
     inkscape:window-x="696"
     inkscape:window-y="160"
     inkscape:window-maximized="0"
     inkscape:current-layer="svg162" />
  <g
     aria-label="A"
     id="text2"
     style="font-size:64px;font-family:Consolas;dominant-baseline:middle;text-anchor:middle;fill:#000000">
    <path
       d="m 109.68125,133.0875 h -6.0625 L 100.775,124.18125 H 83.775002 l -2.875,8.90625 h -5.78125 l 13.5625,-40.843748 h 7.625 z m -10.499998,-13.875 -6.90625,-21.843748 -6.90625,21.843748 z"
       style="font-size:64px;font-family:Consolas;dominant-baseline:middle;text-anchor:middle;fill:#000000"
       id="path385" />
  </g>
  <g
     id="text4"
     style="font-size:64px;font-family:Consolas;dominant-baseline:hanging;text-anchor:end;fill:#000000" />
  <g
     aria-label="B"
     id="text6"
     style="font-size:64px;font-family:Consolas;dominant-baseline:middle;text-anchor:middle;fill:#000000">
    <path
       d="m 258.95625,120.86875 q 0,2.9375 -1.15625,5.21875 -1.125,2.25 -3.25,3.8125 -2.09375,1.5625 -5.09375,2.375 -2.96875,0.8125 -6.625,0.8125 h -10.6875 V 92.243752 h 11.6875 q 13.65625,0 13.65625,9.937498 0,3.3125 -1.59375,5.6875 -1.5625,2.375 -5.125,3.53125 1.65625,0.3125 3.125,1.0625 1.5,0.75 2.625,1.9375 1.125,1.1875 1.78125,2.8125 0.65625,1.625 0.65625,3.65625 z m -7.25,-17.9375 q 0,-1.25 -0.375,-2.34375 -0.375,-1.124998 -1.3125,-1.906248 -0.9375,-0.8125 -2.53125,-1.28125 -1.59375,-0.46875 -4.03125,-0.46875 h -5.75 V 109.7125 h 5.5625 q 1.90625,0 3.4375,-0.40625 1.5625,-0.40625 2.65625,-1.25 1.125,-0.84375 1.71875,-2.09375 0.625,-1.28125 0.625,-3.03125 z m 1.34375,18.125 q 0,-1.5625 -0.65625,-2.8125 -0.65625,-1.25 -1.90625,-2.09375 -1.25,-0.875 -3.0625,-1.34375 -1.78125,-0.46875 -4.03125,-0.46875 h -5.6875 V 128.4 h 5.875 q 4.78125,0 7.125,-1.78125 2.34375,-1.78125 2.34375,-5.5625 z"
       style="font-size:64px;font-family:Consolas;dominant-baseline:middle;text-anchor:middle;fill:#000000"
       id="path381" />
  </g>
  <g
     id="text8"
     style="font-size:64px;font-family:Consolas;dominant-baseline:hanging;text-anchor:end;fill:#000000" />
  <g
     aria-label="C"
     id="text10"
     style="font-size:64px;font-family:Consolas;dominant-baseline:middle;text-anchor:middle;fill:#000000">
    <path
       d="m 410.70001,131.55625 q -4.90625,2.03125 -10.28125,2.03125 -8.65625,0 -13.3125,-5.15625 -4.625,-5.1875 -4.625,-15.3125 0,-4.90625 1.28125,-8.875 1.28125,-3.96875 3.65625,-6.718748 2.375,-2.78125 5.75,-4.28125 3.375,-1.5 7.5625,-1.5 2.84375,0 5.28125,0.5 2.4375,0.46875 4.6875,1.46875 v 5.46875 q -2.21875,-1.21875 -4.59375,-1.84375 -2.375,-0.65625 -5.1875,-0.65625 -2.875,0 -5.21875,1.09375 -2.3125,1.0625 -3.9375,3.124998 -1.625,2.03125 -2.5,5 -0.875,2.9375 -0.875,6.71875 0,7.9375 3.21875,11.96875 3.21875,4.03125 9.4375,4.03125 2.625,0 5.03125,-0.59375 2.40625,-0.625 4.625,-1.71875 z"
       style="font-size:64px;font-family:Consolas;dominant-baseline:middle;text-anchor:middle;fill:#000000"
       id="path377" />
  </g>
  <g
     id="text12"
     style="font-size:64px;font-family:Consolas;dominant-baseline:hanging;text-anchor:end;fill:#000000" />
  <g
     aria-label="D"
     id="text14"
     style="font-size:64px;font-family:Consolas;dominant-baseline:middle;text-anchor:middle;fill:#000000">
    <path
       d="m 564.91248,112.2125 q 0,2.9375 -0.46875,5.625 -0.4375,2.6875 -1.4375,5 -1,2.3125 -2.59375,4.21875 -1.59375,1.875 -3.90625,3.21875 -2.3125,1.34375 -5.375,2.09375 -3.0625,0.71875 -6.96875,0.71875 h -8.75 V 92.243752 h 10.53125 q 9.5625,0 14.25,4.9375 4.71875,4.906248 4.71875,15.031248 z m -5.84375,0.40625 q 0,-4.34375 -0.8125,-7.34375 -0.8125,-3 -2.46875,-4.84375 -1.65625,-1.843748 -4.15625,-2.656248 -2.5,-0.84375 -5.875,-0.84375 h -4.78125 V 128.275 h 4.15625 q 13.9375,0 13.9375,-15.65625 z"
       style="font-size:64px;font-family:Consolas;dominant-baseline:middle;text-anchor:middle;fill:#000000"
       id="path373" />
  </g>
  <g
     id="text16"
     style="font-size:64px;font-family:Consolas;dominant-baseline:hanging;text-anchor:end;fill:#000000" />
  <g
     aria-label="E"
     id="text18"
     style="font-size:64px;font-family:Consolas;dominant-baseline:middle;text-anchor:middle;fill:#000000">
    <path
       d="M 713.90625,133.0875 H 690.6875 V 92.243752 h 23.21875 v 4.6875 H 696.25 V 109.5875 h 16.96875 v 4.6875 H 696.25 v 14.0625 h 17.65625 z"
       style="font-size:64px;font-family:Consolas;dominant-baseline:middle;text-anchor:middle;fill:#000000"
       id="path369" />
  </g>
  <g
     id="text20"
     style="font-size:64px;font-family:Consolas;dominant-baseline:hanging;text-anchor:end;fill:#000000" />
  <g
     aria-label=":"
     id="text22"
     style="font-size:64px;font-family:Consolas;dominant-baseline:middle;text-anchor:middle;fill:#000000">
    <path
       d="m 92.400002,249.54999 q 0.96875,0 1.84375,0.40625 0.875,0.375 1.53125,1.03125 0.65625,0.65625 1.03125,1.53125 0.40625,0.875 0.40625,1.84375 0,1 -0.40625,1.875 -0.375,0.84375 -1.03125,1.5 -0.65625,0.65625 -1.53125,1.03125 -0.875,0.375 -1.84375,0.375 -1,0 -1.875,-0.375 -0.84375,-0.375 -1.5,-1.03125 -0.65625,-0.65625 -1.03125,-1.5 -0.375,-0.875 -0.375,-1.875 0,-0.96875 0.375,-1.84375 0.375,-0.875 1.03125,-1.53125 0.65625,-0.65625 1.5,-1.03125 0.875,-0.40625 1.875,-0.40625 z m 0,22.90625 q 0.96875,0 1.84375,0.40625 0.875,0.375 1.53125,1.03125 0.65625,0.65625 1.03125,1.53125 0.40625,0.875 0.40625,1.84375 0,1 -0.40625,1.875 -0.375,0.84375 -1.03125,1.5 -0.65625,0.65625 -1.53125,1.03125 -0.875,0.375 -1.84375,0.375 -1,0 -1.875,-0.375 -0.84375,-0.375 -1.5,-1.03125 -0.65625,-0.65625 -1.03125,-1.5 -0.375,-0.875 -0.375,-1.875 0,-0.96875 0.375,-1.84375 0.375,-0.875 1.03125,-1.53125 0.65625,-0.65625 1.5,-1.03125 0.875,-0.40625 1.875,-0.40625 z"
       style="font-size:64px;font-family:Consolas;dominant-baseline:middle;text-anchor:middle;fill:#000000"
       id="path365" />
  </g>
  <g
     aria-label="F"
     id="text24"
     style="font-size:64px;font-family:Consolas;dominant-baseline:hanging;text-anchor:end;fill:#000000">
    <path
       d="m 146.64999,169.73125 h -17.34375 v 13.25 h 16.4375 v 4.65625 h -16.4375 v 18.1875 h -5.6875 v -40.84375 h 23.03125 z"
       style="font-size:64px;font-family:Consolas;dominant-baseline:hanging;text-anchor:end;fill:#000000"
       id="path362" />
  </g>
  <g
     aria-label=";"
     id="text26"
     style="font-size:64px;font-family:Consolas;dominant-baseline:middle;text-anchor:middle;fill:#000000">
    <path
       d="m 235.01875,287.89374 q 1.59375,0.0625 3.09375,-0.28125 1.5,-0.34375 2.625,-1.03125 1.15625,-0.65625 1.84375,-1.65625 0.6875,-1 0.6875,-2.28125 0,-1.3125 -0.46875,-2.125 -0.4375,-0.8125 -1,-1.5 -0.5625,-0.6875 -1.03125,-1.46875 -0.4375,-0.78125 -0.4375,-2.09375 0,-0.65625 0.25,-1.375 0.25,-0.71875 0.75,-1.3125 0.53125,-0.59375 1.3125,-0.96875 0.8125,-0.375 1.90625,-0.375 1.09375,0 2.09375,0.46875 1.03125,0.4375 1.78125,1.375 0.78125,0.9375 1.21875,2.34375 0.46875,1.40625 0.46875,3.3125 0,2.59375 -0.96875,4.96875 -0.9375,2.40625 -2.84375,4.25 -1.875,1.84375 -4.71875,2.9375 -2.8125,1.09375 -6.5625,1.09375 z M 244.8,249.54999 q 0.96875,0 1.84375,0.40625 0.875,0.375 1.53125,1.03125 0.65625,0.65625 1.03125,1.53125 0.40625,0.875 0.40625,1.84375 0,1 -0.40625,1.875 -0.375,0.84375 -1.03125,1.5 -0.65625,0.65625 -1.53125,1.03125 -0.875,0.375 -1.84375,0.375 -1,0 -1.875,-0.375 -0.84375,-0.375 -1.5,-1.03125 -0.65625,-0.65625 -1.03125,-1.5 -0.375,-0.875 -0.375,-1.875 0,-0.96875 0.375,-1.84375 0.375,-0.875 1.03125,-1.53125 0.65625,-0.65625 1.5,-1.03125 0.875,-0.40625 1.875,-0.40625 z"
       style="font-size:64px;font-family:Consolas;dominant-baseline:middle;text-anchor:middle;fill:#000000"
       id="path359" />
  </g>
  <g
     aria-label="G"
     id="text28"
     style="font-size:64px;font-family:Consolas;dominant-baseline:hanging;text-anchor:end;fill:#000000">
    <path
       d="m 301.04999,171.98125 q -2.28125,-1.21875 -4.6875,-1.875 -2.40625,-0.6875 -5.25,-0.6875 -3.25,0 -5.78125,1.15625 -2.53125,1.15625 -4.28125,3.28125 -1.71875,2.09375 -2.65625,5.0625 -0.90625,2.96875 -0.90625,6.5625 0,3.75 0.75,6.71875 0.75,2.96875 2.34375,5.03125 1.59375,2.0625 4.0625,3.15625 2.5,1.09375 5.96875,1.09375 0.59375,0 1.28125,-0.0625 0.6875,-0.0625 1.375,-0.15625 0.6875,-0.125 1.3125,-0.28125 0.65625,-0.15625 1.15625,-0.34375 v -13 h -8.34375 v -4.59375 h 13.84375 v 20.875 q -1.28125,0.59375 -2.71875,1.0625 -1.40625,0.46875 -2.90625,0.78125 -1.46875,0.3125 -2.9375,0.46875 -1.46875,0.15625 -2.84375,0.15625 -4.1875,0 -7.5625,-1.3125 -3.34375,-1.3125 -5.71875,-3.875 -2.34375,-2.59375 -3.625,-6.4375 -1.25,-3.84375 -1.25,-8.90625 0,-5.03125 1.40625,-9 1.40625,-4 3.9375,-6.75 2.5625,-2.78125 6.125,-4.21875 3.59375,-1.46875 7.90625,-1.46875 2.75,0 5.21875,0.5 2.5,0.46875 4.78125,1.53125 z"
       style="font-size:64px;font-family:Consolas;dominant-baseline:hanging;text-anchor:end;fill:#000000"
       id="path356" />
  </g>
  <g
     aria-label="["
     id="text30"
     style="font-weight:bold;font-size:50px;font-family:Consolas;dominant-baseline:middle;text-anchor:middle;fill:#000000">
    <path
       d="m 390.90118,287.89471 v -45.28808 h 12.8418 v 4.63867 h -7.34863 v 36.01074 h 7.34863 v 4.63867 z"
       style="font-weight:bold;font-size:50px;font-family:Consolas;dominant-baseline:middle;text-anchor:middle;fill:#000000"
       id="path353" />
  </g>
  <g
     aria-label="H"
     id="text32"
     style="font-size:64px;font-family:Consolas;dominant-baseline:hanging;text-anchor:end;fill:#000000">
    <path
       d="m 453.76251,205.825 h -5.5625 v -18.75 h -17.15625 v 18.75 h -5.5625 v -40.84375 h 5.5625 v 17.28125 h 17.15625 v -17.28125 h 5.5625 z"
       style="font-size:64px;font-family:Consolas;dominant-baseline:hanging;text-anchor:end;fill:#000000"
       id="path350" />
  </g>
  <g
     aria-label="]"
     id="text34"
     style="font-weight:bold;font-size:50px;font-family:Consolas;dominant-baseline:middle;text-anchor:middle;fill:#000000">
    <path
       d="m 542.30017,287.89471 v -4.63867 h 7.29981 V 247.2453 h -7.29981 v -4.63867 h 12.79297 v 45.28808 z"
       style="font-weight:bold;font-size:50px;font-family:Consolas;dominant-baseline:middle;text-anchor:middle;fill:#000000"
       id="path347" />
  </g>
  <g
     aria-label="I"
     id="text36"
     style="font-size:64px;font-family:Consolas;dominant-baseline:hanging;text-anchor:end;fill:#000000">
    <path
       d="m 589.19373,169.66875 h -9.40625 v -4.6875 h 24.4375 v 4.6875 h -9.40625 V 201.075 h 9.40625 v 4.75 h -24.4375 v -4.75 h 9.40625 z"
       style="font-size:64px;font-family:Consolas;dominant-baseline:hanging;text-anchor:end;fill:#000000"
       id="path344" />
  </g>
  <g
     aria-label=","
     id="text38"
     style="font-size:64px;font-family:Consolas;dominant-baseline:middle;text-anchor:middle;fill:#000000">
    <path
       d="m 691.84375,287.89374 q 1.59375,0.0625 3.09375,-0.28125 1.5,-0.34375 2.625,-1.03125 1.15625,-0.65625 1.84375,-1.65625 0.6875,-1 0.6875,-2.28125 0,-1.3125 -0.46875,-2.125 -0.4375,-0.8125 -1,-1.5 -0.5625,-0.6875 -1.03125,-1.46875 -0.4375,-0.78125 -0.4375,-2.09375 0,-0.65625 0.25,-1.375 0.25,-0.71875 0.75,-1.3125 0.53125,-0.59375 1.3125,-0.96875 0.8125,-0.375 1.90625,-0.375 1.09375,0 2.09375,0.46875 1.03125,0.4375 1.78125,1.375 0.78125,0.9375 1.21875,2.34375 0.46875,1.40625 0.46875,3.3125 0,2.59375 -0.96875,4.96875 -0.9375,2.40625 -2.84375,4.25 -1.875,1.84375 -4.71875,2.9375 -2.8125,1.09375 -6.5625,1.09375 z"
       style="font-size:64px;font-family:Consolas;dominant-baseline:middle;text-anchor:middle;fill:#000000"
       id="path341" />
  </g>
  <g
     aria-label="J"
     id="text40"
     style="font-size:64px;font-family:Consolas;dominant-baseline:hanging;text-anchor:end;fill:#000000">
    <path
       d="m 754.21875,164.98125 v 28.375 q 0,2.625 -0.78125,5 -0.78125,2.34375 -2.375,4.09375 -1.59375,1.75 -4,2.78125 -2.40625,1.03125 -5.65625,1.03125 -1.21875,0 -2.5,-0.1875 -1.25,-0.15625 -2.4375,-0.4375 -1.15625,-0.3125 -2.1875,-0.71875 -1.03125,-0.4375 -1.78125,-0.9375 v -5.59375 q 1.9375,1.40625 4.28125,2.21875 2.375,0.8125 4.6875,0.8125 3.40625,0 5.25,-2.0625 1.84375,-2.09375 1.84375,-6 v -23.5625 h -15.53125 v -4.8125 z"
       style="font-size:64px;font-family:Consolas;dominant-baseline:hanging;text-anchor:end;fill:#000000"
       id="path338" />
  </g>
  <g
     aria-label="'"
     id="text42"
     style="font-size:80px;font-family:Consolas;dominant-baseline:middle;text-anchor:middle;fill:#000000">
    <path
       d="m 96.892189,396.61407 -1.132812,18.32032 h -6.71875 l -1.09375,-18.32032 z"
       style="font-size:80px;font-family:Consolas;dominant-baseline:middle;text-anchor:middle;fill:#000000"
       id="path335" />
  </g>
  <g
     aria-label="K"
     id="text44"
     style="font-size:64px;font-family:Consolas;dominant-baseline:hanging;text-anchor:end;fill:#000000">
    <path
       d="m 149.93124,358.22501 h -7 l -15.28125,-20.03125 v 20.03125 h -5.5625 v -40.84375 h 5.5625 v 18.96875 l 14.96875,-18.96875 h 6.59375 l -16.125,19.40625 z"
       style="font-size:64px;font-family:Consolas;dominant-baseline:hanging;text-anchor:end;fill:#000000"
       id="path332" />
  </g>
  <g
     aria-label="&lt;"
     id="text46"
     style="font-size:80px;font-family:Consolas;dominant-baseline:middle;text-anchor:middle;fill:#000000">
    <path
       d="m 258.66719,435.13751 -4.25781,4.29688 -26.25,-21.91407 26.25,-21.91406 4.25781,4.33594 -21.28906,17.5 z"
       style="font-size:80px;font-family:Consolas;dominant-baseline:middle;text-anchor:middle;fill:#000000"
       id="path329" />
  </g>
  <g
     aria-label="L"
     id="text48"
     style="font-size:64px;font-family:Consolas;dominant-baseline:hanging;text-anchor:end;fill:#000000">
    <path
       d="m 300.39374,358.22501 h -23.5 v -40.84375 h 5.65625 v 36.09375 h 17.84375 z"
       style="font-size:64px;font-family:Consolas;dominant-baseline:hanging;text-anchor:end;fill:#000000"
       id="path326" />
  </g>
  <g
     aria-label="="
     id="text50"
     style="font-size:90px;font-family:Consolas;dominant-baseline:middle;text-anchor:middle;fill:#000000">
    <path
       d="m 416.0965,412.87189 h -37.79297 v -6.45996 h 37.79297 z m 0,15.29297 h -37.79297 v -6.45996 h 37.79297 z"
       style="font-size:90px;font-family:Consolas;dominant-baseline:middle;text-anchor:middle;fill:#000000"
       id="path323" />
  </g>
  <g
     aria-label="M"
     id="text52"
     style="font-size:64px;font-family:Consolas;dominant-baseline:hanging;text-anchor:end;fill:#000000">
    <path
       d="m 455.66876,358.22501 h -5.4375 l -0.8125,-25.46875 -0.34375,-9.78125 -1.90625,5.6875 -6.03125,16.25 h -3.84375 l -5.75,-15.625 -1.90625,-6.3125 -0.125,10.21875 -0.71875,25.03125 h -5.25 l 2,-40.84375 h 6.59375 l 5.5,15.375 1.78125,5.1875 1.71875,-5.1875 5.78125,-15.375 h 6.78125 z"
       style="font-size:64px;font-family:Consolas;dominant-baseline:hanging;text-anchor:end;fill:#000000"
       id="path320" />
  </g>
  <g
     aria-label="&gt;"
     id="text54"
     style="font-size:80px;font-family:Consolas;dominant-baseline:middle;text-anchor:middle;fill:#000000">
    <path
       d="m 535.77185,399.9422 4.21875,-4.33594 26.25,21.91406 -26.25,21.91407 -4.21875,-4.29688 21.28906,-17.53906 z"
       style="font-size:80px;font-family:Consolas;dominant-baseline:middle;text-anchor:middle;fill:#000000"
       id="path317" />
  </g>
  <g
     aria-label="N"
     id="text56"
     style="font-size:64px;font-family:Consolas;dominant-baseline:hanging;text-anchor:end;fill:#000000">
    <path
       d="m 605.91248,358.22501 h -7.25 l -11.90625,-25.46875 -3.4375,-8.1875 v 20.59375 13.0625 h -5.1875 v -40.84375 h 7.15625 l 11.34375,24.125 4.09375,9.34375 v -21.875 -11.59375 h 5.1875 z"
       style="font-size:64px;font-family:Consolas;dominant-baseline:hanging;text-anchor:end;fill:#000000"
       id="path314" />
  </g>
  <g
     aria-label="^"
     id="text58"
     style="font-size:100px;font-family:Consolas;dominant-baseline:middle;text-anchor:middle;fill:#000000">
    <path
       d="m 724.02148,433.09454 h -8.49609 l -14.11133,-24.46289 -13.28125,24.46289 h -7.71484 l 17.87109,-31.20117 h 6.9336 z"
       style="font-size:100px;font-family:Consolas;dominant-baseline:middle;text-anchor:middle;fill:#000000"
       id="path311" />
  </g>
  <g
     aria-label="O"
     id="text60"
     style="font-size:64px;font-family:Consolas;dominant-baseline:hanging;text-anchor:end;fill:#000000">
    <path
       d="m 760.28125,337.53751 q 0,5.5 -1.3125,9.5 -1.28125,4 -3.5,6.625 -2.1875,2.59375 -5.15625,3.875 -2.9375,1.25 -6.21875,1.25 -3.9375,0 -6.875,-1.40625 -2.90625,-1.4375 -4.84375,-4.125 -1.90625,-2.6875 -2.84375,-6.53125 -0.9375,-3.875 -0.9375,-8.71875 0,-5.4375 1.28125,-9.4375 1.28125,-4 3.46875,-6.59375 2.21875,-2.625 5.15625,-3.875 2.9375,-1.28125 6.21875,-1.28125 3.9375,0 6.84375,1.4375 2.9375,1.4375 4.875,4.125 1.9375,2.65625 2.875,6.5 0.96875,3.84375 0.96875,8.65625 z M 754.5,337.94376 q 0,-3.59375 -0.5625,-6.5625 -0.53125,-3 -1.75,-5.15625 -1.21875,-2.15625 -3.15625,-3.34375 -1.90625,-1.1875 -4.625,-1.1875 -2.625,0 -4.53125,1.28125 -1.875,1.25 -3.09375,3.4375 -1.21875,2.15625 -1.8125,5.09375 -0.59375,2.90625 -0.59375,6.1875 0,3.625 0.5625,6.625 0.5625,2.96875 1.75,5.125 1.21875,2.125 3.125,3.3125 1.90625,1.1875 4.59375,1.1875 2.625,0 4.53125,-1.25 1.90625,-1.28125 3.125,-3.4375 1.25,-2.1875 1.84375,-5.09375 0.59375,-2.90625 0.59375,-6.21875 z"
       style="font-size:64px;font-family:Consolas;dominant-baseline:hanging;text-anchor:end;fill:#000000"
       id="path308" />
  </g>
  <g
     aria-label="ENT"
     id="text62"
     style="font-size:64px;font-family:Consolas;dominant-baseline:middle;text-anchor:middle;fill:#000000">
    <path
       d="m 69.118752,590.28748 h -23.21875 v -40.84375 h 23.21875 v 4.6875 h -17.65625 v 12.65625 h 16.96875 v 4.6875 h -16.96875 v 14.0625 h 17.65625 z"
       style="font-size:64px;font-family:Consolas;dominant-baseline:middle;text-anchor:middle;fill:#000000"
       id="path301" />
    <path
       d="m 106.30625,590.28748 h -7.249998 l -11.90625,-25.46875 -3.4375,-8.1875 v 20.59375 13.0625 h -5.1875 v -40.84375 h 7.15625 l 11.34375,24.125 4.093748,9.34375 v -21.875 -11.59375 h 5.1875 z"
       style="font-size:64px;font-family:Consolas;dominant-baseline:middle;text-anchor:middle;fill:#000000"
       id="path303" />
    <path
       d="M 142.49375,554.19373 H 130.4 v 36.09375 h -5.625 v -36.09375 h -12.09375 v -4.75 h 29.8125 z"
       style="font-size:64px;font-family:Consolas;dominant-baseline:middle;text-anchor:middle;fill:#000000"
       id="path305" />
  </g>
  <g
     id="text64"
     style="font-size:64px;font-family:Consolas;dominant-baseline:hanging;text-anchor:end;fill:#000000" />
  <g
     aria-label="$"
     id="text66"
     style="font-size:64px;font-family:calibri;dominant-baseline:middle;text-anchor:middle;fill:#000000">
    <path
       d="m 257.70625,578.02185 q 0,2.5 -0.96875,4.5625 -0.9375,2.03125 -2.6875,3.5 -1.75,1.46875 -4.28125,2.34375 -2.53125,0.875 -5.65625,1.03125 l -0.6875,6.78125 q -0.0312,0.1875 -0.125,0.34375 -0.0625,0.1875 -0.28125,0.28125 -0.21875,0.125 -0.625,0.1875 -0.375,0.0625 -1,0.0625 -0.71875,0 -1.15625,-0.0937 -0.40625,-0.0625 -0.65625,-0.1875 -0.25,-0.0937 -0.34375,-0.3125 -0.0625,-0.1875 0,-0.4375 l 0.71875,-6.75 q -1.5,-0.1875 -2.78125,-0.46875 -1.28125,-0.3125 -2.28125,-0.65625 -1,-0.34375 -1.71875,-0.71875 -0.6875,-0.375 -1.03125,-0.6875 -0.3125,-0.34375 -0.4375,-0.875 -0.125,-0.53125 -0.125,-1.46875 0,-0.6875 0.0625,-1.125 0.0625,-0.46875 0.1875,-0.75 0.125,-0.3125 0.3125,-0.40625 0.21875,-0.125 0.5,-0.125 0.40625,0 1.15625,0.46875 0.75,0.4375 1.96875,1 1.25,0.53125 3.03125,1 1.78125,0.46875 4.28125,0.46875 4.4375,0 6.71875,-1.75 2.3125,-1.75 2.3125,-4.75 0,-1.84375 -0.84375,-3.0625 -0.84375,-1.25 -2.25,-2.125 -1.375,-0.90625 -3.15625,-1.53125 -1.75,-0.65625 -3.59375,-1.3125 -1.8125,-0.65625 -3.59375,-1.5 -1.75,-0.84375 -3.125,-2.09375 -1.375,-1.25 -2.21875,-3.03125 -0.84375,-1.8125 -0.84375,-4.4375 0,-2.09375 0.71875,-3.90625 0.71875,-1.8125 2.15625,-3.15625 1.4375,-1.375 3.625,-2.21875 2.1875,-0.875 5.09375,-1.0625 l 0.625,-6.3125 q 0.0312,-0.1875 0.0937,-0.34375 0.0937,-0.1875 0.3125,-0.3125 0.21875,-0.125 0.59375,-0.15625 0.375,-0.0625 1.03125,-0.0625 0.6875,0 1.125,0.0625 0.46875,0.0625 0.6875,0.21875 0.25,0.125 0.3125,0.3125 0.0625,0.1875 0.0625,0.4375 l -0.6875,6.25 q 0.9375,0.0937 1.9375,0.34375 1.03125,0.21875 1.90625,0.53125 0.90625,0.28125 1.625,0.65625 0.71875,0.34375 0.96875,0.59375 0.28125,0.25 0.375,0.46875 0.125,0.21875 0.1875,0.5 0.0625,0.28125 0.0937,0.65625 0.0625,0.375 0.0625,0.84375 0,0.59375 -0.0625,1.03125 -0.0312,0.4375 -0.125,0.6875 -0.0937,0.25 -0.25,0.375 -0.15625,0.125 -0.375,0.125 -0.34375,0 -1.09375,-0.40625 -0.75,-0.40625 -1.90625,-0.875 -1.125,-0.46875 -2.625,-0.875 -1.5,-0.40625 -3.34375,-0.40625 -2.09375,0 -3.59375,0.40625 -1.46875,0.40625 -2.40625,1.15625 -0.90625,0.71875 -1.34375,1.75 -0.40625,1.03125 -0.40625,2.25 0,1.875 0.84375,3.125 0.875,1.25 2.25,2.125 1.40625,0.875 3.1875,1.5 1.78125,0.625 3.625,1.3125 1.875,0.65625 3.65625,1.46875 1.78125,0.8125 3.15625,2.0625 1.40625,1.25 2.25,3.0625 0.875,1.78125 0.875,4.40625 z"
       style="font-size:64px;font-family:calibri;dominant-baseline:middle;text-anchor:middle;fill:#000000"
       id="path297" />
  </g>
  <g
     aria-label="P"
     id="text68"
     style="font-size:64px;font-family:Consolas;dominant-baseline:hanging;text-anchor:end;fill:#000000">
    <path
       d="m 301.36249,482.28126 q 0,2.5 -0.9375,4.96875 -0.9375,2.4375 -2.90625,4.375 -1.96875,1.9375 -5.03125,3.15625 -3.0625,1.1875 -7.3125,1.1875 h -5.0625 v 14.65625 h -5.5625 v -40.84375 h 11.5 q 3.03125,0 5.8125,0.6875 2.78125,0.65625 4.875,2.15625 2.125,1.5 3.375,3.875 1.25,2.375 1.25,5.78125 z m -5.78125,0.25 q 0,-3.9375 -2.59375,-6.03125 -2.5625,-2.09375 -7.1875,-2.09375 h -5.6875 v 16.8125 h 5.1875 q 4.9375,0 7.59375,-2.15625 2.6875,-2.15625 2.6875,-6.53125 z"
       style="font-size:64px;font-family:Consolas;dominant-baseline:hanging;text-anchor:end;fill:#000000"
       id="path294" />
  </g>
  <g
     aria-label="&quot;"
     id="text70"
     style="font-size:80px;font-family:Consolas;dominant-baseline:middle;text-anchor:middle;fill:#000000">
    <path
       d="m 393.91876,549.01404 -1.09375,18.32031 h -6.40625 l -1.13281,-18.32031 z m 15.19531,0 -1.09375,18.32031 h -6.40625 l -1.13281,-18.32031 z"
       style="font-size:80px;font-family:Consolas;dominant-baseline:middle;text-anchor:middle;fill:#000000"
       id="path291" />
  </g>
  <g
     aria-label="Q"
     id="text72"
     style="font-size:54px;font-family:Consolas;dominant-baseline:hanging;text-anchor:end;fill:#000000">
    <path
       d="m 439.82404,505.00001 q -2.74219,-0.39551 -4.77247,-1.74024 -2.03027,-1.34472 -3.375,-3.5332 -1.34472,-2.21484 -2.0039,-5.19434 -0.65918,-3.00586 -0.65918,-6.64453 0,-4.69336 1.08105,-8.12109 1.08106,-3.42774 2.92676,-5.64258 1.87207,-2.24121 4.35059,-3.2959 2.47851,-1.08105 5.24707,-1.08105 3.32226,0 5.77441,1.21289 2.47852,1.18652 4.11328,3.4541 1.63477,2.24121 2.42578,5.45801 0.81739,3.19043 0.81739,7.19824 0,4.21875 -0.89649,7.40918 -0.89648,3.16406 -2.45215,5.37891 -1.55566,2.21484 -3.66503,3.48046 -2.10938,1.26563 -4.53516,1.66114 0.39551,2.32031 1.8457,3.71777 1.4502,1.42383 4.08692,1.42383 1.26562,0 2.47851,-0.42188 1.23926,-0.42187 2.50488,-1.42382 l 2.08301,3.24316 q -1.74023,1.42383 -3.58594,2.03027 -1.8457,0.60645 -3.79687,0.60645 -2.10938,0 -3.87598,-0.58008 -1.7666,-0.58008 -3.08496,-1.74023 -1.29199,-1.13379 -2.08301,-2.87403 -0.79101,-1.71386 -0.94921,-3.98144 z m 11.04785,-17.37598 q 0,-3.05859 -0.47461,-5.56348 -0.44824,-2.53125 -1.47656,-4.32421 -1.02832,-1.81934 -2.66309,-2.82129 -1.6084,-1.00196 -3.90234,-1.00196 -2.21485,0 -3.82325,1.05469 -1.58203,1.05469 -2.61035,2.87402 -1.02832,1.79297 -1.52929,4.21875 -0.50098,2.39942 -0.50098,5.11524 0,3.13769 0.47461,5.69531 0.47461,2.53125 1.47656,4.35059 1.02832,1.81933 2.63672,2.82129 1.6084,0.97558 3.87598,0.97558 2.21484,0 3.82324,-1.05469 1.6084,-1.05468 2.63672,-2.87402 1.05468,-1.81933 1.55566,-4.24512 0.50098,-2.45214 0.50098,-5.2207 z"
       style="font-size:54px;font-family:Consolas;dominant-baseline:hanging;text-anchor:end;fill:#000000"
       id="path288" />
  </g>
  <g
     aria-label="EE"
     id="text74"
     style="font-size:64px;font-family:Consolas;dominant-baseline:middle;text-anchor:middle;fill:#000000">
    <path
       d="m 543.91248,590.28748 h -23.21875 v -40.84375 h 23.21875 v 4.6875 h -17.65625 v 12.65625 h 16.96875 v 4.6875 h -16.96875 v 14.0625 h 17.65625 z"
       style="font-size:64px;font-family:Consolas;dominant-baseline:middle;text-anchor:middle;fill:#000000"
       id="path283" />
    <path
       d="m 579.09998,590.28748 h -23.21875 v -40.84375 h 23.21875 v 4.6875 h -17.65625 v 12.65625 h 16.96875 v 4.6875 h -16.96875 v 14.0625 h 17.65625 z"
       style="font-size:64px;font-family:Consolas;dominant-baseline:middle;text-anchor:middle;fill:#000000"
       id="path285" />
  </g>
  <g
     aria-label="R"
     id="text76"
     style="font-size:64px;font-family:Consolas;dominant-baseline:hanging;text-anchor:end;fill:#000000">
    <path
       d="m 607.25623,510.62501 h -6.28125 l -6.09375,-13.0625 q -0.6875,-1.5 -1.40625,-2.46875 -0.71875,-1 -1.5625,-1.5625 -0.8125,-0.59375 -1.8125,-0.84375 -0.96875,-0.25 -2.1875,-0.25 h -2.625 v 18.1875 h -5.5625 v -40.84375 h 10.9375 q 3.5625,0 6.125,0.78125 2.5625,0.78125 4.1875,2.1875 1.65625,1.40625 2.40625,3.40625 0.78125,1.96875 0.78125,4.375 0,1.90625 -0.5625,3.625 -0.5625,1.6875 -1.6875,3.09375 -1.09375,1.375 -2.75,2.40625 -1.625,1 -3.75,1.5 1.71875,0.59375 2.90625,2.09375 1.21875,1.46875 2.46875,3.9375 z m -8.90625,-29.625 q 0,-3.28125 -2.0625,-4.90625 -2.03125,-1.625 -5.75,-1.625 h -5.25 v 13.5 h 4.5 q 1.96875,0 3.53125,-0.4375 1.59375,-0.46875 2.6875,-1.34375 1.125,-0.90625 1.71875,-2.1875 0.625,-1.3125 0.625,-3 z"
       style="font-size:64px;font-family:Consolas;dominant-baseline:hanging;text-anchor:end;fill:#000000"
       id="path280" />
  </g>
  <g
     aria-label="🡨"
     id="text78"
     style="font-size:54px;font-family:Consolas;dominant-baseline:middle;text-anchor:middle;fill:#000000">
    <path
       d="m 680.7085,569.58826 19.51171,-19.51172 h 8.2793 l -16.50586,16.63769 h 33.16992 v 5.74805 h -33.16992 l 16.50586,16.6377 h -8.2793 z"
       style="font-size:54px;font-family:Consolas;dominant-baseline:middle;text-anchor:middle;fill:#000000"
       id="path277" />
  </g>
  <g
     id="text80"
     style="font-size:64px;font-family:Consolas;dominant-baseline:hanging;text-anchor:end;fill:#000000" />
  <g
     aria-label="a"
     id="text82"
     style="font-size:70px;font-family:Consolas;dominant-baseline:middle;text-anchor:middle;fill:#000000">
    <path
       d="m 100.67149,738.6582 -0.13672,-4.61425 q -2.802737,2.76855 -5.708011,3.99902 -2.871093,1.23047 -6.049804,1.23047 -2.939453,0 -5.024414,-0.75196 -2.084961,-0.75195 -3.452149,-2.05078 -1.333008,-1.333 -1.982422,-3.11035 -0.615234,-1.77734 -0.615234,-3.8623 0,-5.16114 3.828125,-8.06641 3.862305,-2.93945 11.381836,-2.93945 h 7.109373 v -3.00782 q 0,-3.04199 -1.94824,-4.85351 -1.948243,-1.8457 -5.947266,-1.8457 -2.905273,0 -5.742187,0.64941 -2.802735,0.64941 -5.810547,1.8457 v -5.36621 q 1.127929,-0.41015 2.495117,-0.78613 1.401367,-0.41016 2.939453,-0.71777 1.538086,-0.30762 3.212891,-0.47852 1.674804,-0.20508 3.383789,-0.20508 3.110351,0 5.605468,0.6836 2.495122,0.68359 4.204102,2.08496 1.74316,1.40136 2.66602,3.5205 0.92285,2.11915 0.92285,4.99024 v 23.65234 z m -0.64942,-15.62011 h -7.553709 q -2.22168,0 -3.828125,0.44433 -1.606445,0.44434 -2.631836,1.26465 -1.025391,0.82031 -1.538086,1.98242 -0.478516,1.12793 -0.478516,2.56348 0,0.99121 0.307618,1.91406 0.307617,0.88867 0.991211,1.60645 0.683593,0.68359 1.777343,1.09375 1.09375,0.41015 2.666016,0.41015 2.050781,0 4.682617,-1.23047 2.666016,-1.26464 5.605467,-3.96484 z"
       style="font-size:70px;font-family:Consolas;dominant-baseline:middle;text-anchor:middle;fill:#000000"
       id="path273" />
  </g>
  <g
     id="text84"
     style="font-size:64px;font-family:Consolas;dominant-baseline:hanging;text-anchor:end;fill:#000000" />
  <g
     aria-label="7"
     id="text86"
     style="font-size:64px;font-family:Consolas;dominant-baseline:middle;text-anchor:middle;fill:#000000">
    <path
       d="m 258.4875,706.90625 -17.125,35.78125 h -6.21875 L 252.925,706.90625 h -22.0625 v -5.0625 h 27.625 z"
       style="font-size:64px;font-family:Consolas;dominant-baseline:middle;text-anchor:middle;fill:#000000"
       id="path269" />
  </g>
  <g
     aria-label="S"
     id="text88"
     style="font-size:64px;font-family:Consolas;dominant-baseline:hanging;text-anchor:end;fill:#000000">
    <path
       d="m 300.76874,651.9625 q 0,2.90625 -1.1875,5.09375 -1.1875,2.1875 -3.3125,3.65625 -2.125,1.4375 -5.125,2.15625 -2.96875,0.71875 -6.5625,0.71875 -1.625,0 -3.25,-0.125 -1.59375,-0.125 -3.09375,-0.3125 -1.46875,-0.1875 -2.78125,-0.4375 -1.3125,-0.25 -2.375,-0.53125 v -5.375 q 2.34375,0.875 5.25,1.375 2.9375,0.5 6.65625,0.5 2.6875,0 4.5625,-0.40625 1.90625,-0.4375 3.09375,-1.25 1.21875,-0.84375 1.75,-2.03125 0.5625,-1.1875 0.5625,-2.71875 0,-1.65625 -0.9375,-2.8125 -0.90625,-1.1875 -2.40625,-2.09375 -1.5,-0.9375 -3.4375,-1.6875 -1.90625,-0.78125 -3.90625,-1.59375 -2,-0.8125 -3.9375,-1.75 -1.90625,-0.96875 -3.40625,-2.25 -1.5,-1.3125 -2.4375,-3.0625 -0.90625,-1.75 -0.90625,-4.15625 0,-2.09375 0.875,-4.125 0.875,-2.03125 2.71875,-3.59375 1.84375,-1.59375 4.71875,-2.5625 2.90625,-0.96875 6.90625,-0.96875 1.03125,0 2.21875,0.0937 1.21875,0.0937 2.4375,0.28125 1.25,0.15625 2.4375,0.375 1.21875,0.21875 2.25,0.46875 v 5 q -2.40625,-0.6875 -4.8125,-1.03125 -2.40625,-0.375 -4.65625,-0.375 -4.78125,0 -7.03125,1.59375 -2.25,1.59375 -2.25,4.28125 0,1.65625 0.90625,2.84375 0.9375,1.1875 2.4375,2.125 1.5,0.9375 3.40625,1.71875 1.9375,0.75 3.9375,1.5625 2,0.8125 3.90625,1.78125 1.9375,0.96875 3.4375,2.3125 1.5,1.3125 2.40625,3.09375 0.9375,1.78125 0.9375,4.21875 z"
       style="font-size:64px;font-family:Consolas;dominant-baseline:hanging;text-anchor:end;fill:#000000"
       id="path266" />
  </g>
  <g
     aria-label="8"
     id="text90"
     style="font-size:64px;font-family:Consolas;dominant-baseline:middle;text-anchor:middle;fill:#000000">
    <path
       d="m 411.10626,732.4375 q 0,2.59375 -1.0625,4.625 -1.0625,2 -2.96875,3.375 -1.90625,1.375 -4.5,2.09375 -2.59375,0.71875 -5.625,0.71875 -3.34375,0 -5.90625,-0.75 -2.53125,-0.75 -4.25,-2.09375 -1.71875,-1.34375 -2.59375,-3.1875 -0.875,-1.84375 -0.875,-4.0625 0,-3.75 2.09375,-6.46875 2.09375,-2.71875 6.46875,-4.9375 -4,-2.03125 -5.84375,-4.5 -1.84375,-2.5 -1.84375,-5.71875 0,-1.96875 0.8125,-3.8125 0.8125,-1.84375 2.4375,-3.28125 1.65625,-1.4375 4.125,-2.28125 2.46875,-0.875 5.8125,-0.875 3.15625,0 5.53125,0.6875 2.40625,0.65625 4.03125,1.90625 1.625,1.25 2.4375,3.03125 0.8125,1.78125 0.8125,3.96875 0,3.5625 -2,6.0625 -1.96875,2.5 -5.625,4.375 1.8125,0.90625 3.375,2 1.5625,1.09375 2.71875,2.4375 1.15625,1.34375 1.78125,3 0.65625,1.65625 0.65625,3.6875 z m -6.46875,-21.125 q 0,-2.78125 -1.96875,-4.125 -1.9375,-1.375 -5.46875,-1.375 -3.5,0 -5.46875,1.34375 -1.9375,1.34375 -1.9375,4.03125 0,1.21875 0.46875,2.25 0.46875,1.03125 1.4375,1.9375 1,0.90625 2.46875,1.78125 1.46875,0.875 3.5,1.78125 3.53125,-1.65625 5.25,-3.4375 1.71875,-1.8125 1.71875,-4.1875 z m 0.5625,21.53125 q 0,-1.15625 -0.375,-2.25 -0.375,-1.09375 -1.34375,-2.15625 -0.96875,-1.0625 -2.59375,-2.125 -1.625,-1.0625 -4.125,-2.1875 -2.125,1.03125 -3.59375,2.0625 -1.4375,1 -2.34375,2.0625 -0.875,1.03125 -1.25,2.15625 -0.375,1.125 -0.375,2.375 0,1.40625 0.59375,2.5 0.625,1.0625 1.6875,1.8125 1.0625,0.75 2.53125,1.125 1.46875,0.375 3.1875,0.375 1.65625,0 3.125,-0.34375 1.46875,-0.34375 2.53125,-1.03125 1.09375,-0.71875 1.71875,-1.78125 0.625,-1.09375 0.625,-2.59375 z"
       style="font-size:64px;font-family:Consolas;dominant-baseline:middle;text-anchor:middle;fill:#000000"
       id="path263" />
  </g>
  <g
     aria-label="T"
     id="text92"
     style="font-size:64px;font-family:Consolas;dominant-baseline:hanging;text-anchor:end;fill:#000000">
    <path
       d="M 454.51251,626.93125 H 442.41876 V 663.025 h -5.625 v -36.09375 h -12.09375 v -4.75 h 29.8125 z"
       style="font-size:64px;font-family:Consolas;dominant-baseline:hanging;text-anchor:end;fill:#000000"
       id="path260" />
  </g>
  <g
     aria-label="9"
     id="text94"
     style="font-size:64px;font-family:Consolas;dominant-baseline:middle;text-anchor:middle;fill:#000000">
    <path
       d="m 563.28748,719.96875 q 0,5.96875 -1.4375,10.28125 -1.4375,4.28125 -4.25,7.0625 -2.8125,2.75 -6.96875,4.0625 -4.15625,1.3125 -9.59375,1.3125 h -3.40625 v -4.75 h 3.78125 q 4.03125,0 6.96875,-0.8125 2.9375,-0.8125 4.875,-2.375 1.96875,-1.59375 3,-3.84375 1.03125,-2.28125 1.28125,-5.1875 l 0.125,-1.28125 q -1.96875,1.15625 -4.53125,1.875 -2.5625,0.6875 -5.5625,0.6875 -3.09375,0 -5.4375,-0.90625 -2.34375,-0.90625 -3.90625,-2.53125 -1.53125,-1.625 -2.3125,-3.84375 -0.78125,-2.25 -0.78125,-4.875 0,-2.84375 1.03125,-5.3125 1.03125,-2.46875 2.875,-4.28125 1.875,-1.84375 4.46875,-2.90625 2.59375,-1.0625 5.71875,-1.0625 3.03125,0 5.59375,1 2.59375,1 4.46875,3.25 1.875,2.21875 2.9375,5.78125 1.0625,3.5625 1.0625,8.65625 z M 548.97498,705.75 q -1.75,0 -3.25,0.59375 -1.46875,0.5625 -2.5625,1.6875 -1.0625,1.09375 -1.6875,2.71875 -0.625,1.625 -0.625,3.71875 0,1.90625 0.4375,3.40625 0.46875,1.5 1.40625,2.5625 0.96875,1.03125 2.46875,1.59375 1.5,0.5625 3.5625,0.5625 1.15625,0 2.375,-0.21875 1.25,-0.21875 2.40625,-0.59375 1.1875,-0.375 2.25,-0.875 1.0625,-0.5 1.90625,-1.0625 0,-4.03125 -0.59375,-6.71875 -0.59375,-2.71875 -1.71875,-4.34375 -1.125,-1.65625 -2.75,-2.34375 -1.59375,-0.6875 -3.625,-0.6875 z"
       style="font-size:64px;font-family:Consolas;dominant-baseline:middle;text-anchor:middle;fill:#000000"
       id="path257" />
  </g>
  <g
     aria-label="U"
     id="text96"
     style="font-size:64px;font-family:Consolas;dominant-baseline:hanging;text-anchor:end;fill:#000000">
    <path
       d="m 606.22498,648.80625 q 0,3.375 -0.96875,6.125 -0.9375,2.71875 -2.78125,4.65625 -1.84375,1.90625 -4.53125,2.96875 -2.65625,1.03125 -6.125,1.03125 -3.8125,0 -6.46875,-1 -2.65625,-1 -4.34375,-2.8125 -1.65625,-1.84375 -2.4375,-4.40625 -0.75,-2.5625 -0.75,-5.71875 v -27.46875 h 5.5625 v 27.03125 q 0,2.40625 0.4375,4.21875 0.46875,1.8125 1.5,3.03125 1.03125,1.21875 2.65625,1.84375 1.65625,0.625 4.03125,0.625 4.4375,0 6.53125,-2.5625 2.125,-2.5625 2.125,-7.21875 v -26.96875 h 5.5625 z"
       style="font-size:64px;font-family:Consolas;dominant-baseline:hanging;text-anchor:end;fill:#000000"
       id="path254" />
  </g>
  <g
     aria-label="÷"
     id="text98"
     style="font-size:80px;font-family:Consolas;dominant-baseline:middle;text-anchor:middle;fill:#000000">
    <path
       d="m 720.71094,725.28906 h -37.42188 v -5.9375 h 37.42188 z m -18.78907,7.10938 q 1.05469,0 1.99219,0.42968 0.9375,0.39063 1.60156,1.09375 0.70313,0.70313 1.09375,1.67969 0.42969,0.9375 0.42969,1.99219 0,1.05469 -0.42969,1.99219 -0.39062,0.9375 -1.09375,1.64062 -0.66406,0.66406 -1.60156,1.09375 -0.9375,0.39063 -1.99219,0.39063 -1.09375,0 -2.03125,-0.39063 -0.9375,-0.42969 -1.64062,-1.09375 -0.70313,-0.70312 -1.13281,-1.64062 -0.39063,-0.9375 -0.39063,-1.99219 0,-1.05469 0.39063,-1.99219 0.42968,-0.97656 1.13281,-1.67969 0.70312,-0.70312 1.64062,-1.09375 0.9375,-0.42968 2.03125,-0.42968 z m 0,-20.15625 q -1.09375,0 -2.03125,-0.39063 -0.9375,-0.42969 -1.64062,-1.13281 -0.70313,-0.70313 -1.13281,-1.64063 -0.39063,-0.9375 -0.39063,-2.03125 0,-1.05468 0.39063,-1.99218 0.42968,-0.9375 1.13281,-1.60157 0.70312,-0.70312 1.64062,-1.09375 0.9375,-0.42968 2.03125,-0.42968 1.05469,0 1.99219,0.42968 0.9375,0.39063 1.60156,1.09375 0.70313,0.66407 1.09375,1.60157 0.42969,0.9375 0.42969,1.99218 0,1.09375 -0.42969,2.03125 -0.39062,0.9375 -1.09375,1.64063 -0.66406,0.70312 -1.60156,1.13281 -0.9375,0.39063 -1.99219,0.39063 z"
       style="font-size:80px;font-family:Consolas;dominant-baseline:middle;text-anchor:middle;fill:#000000"
       id="path251" />
  </g>
  <g
     id="text100"
     style="font-size:64px;font-family:Consolas;dominant-baseline:hanging;text-anchor:end;fill:#000000" />
  <g
     aria-label="🡪"
     id="text102"
     style="font-size:54px;font-family:Consolas;dominant-baseline:middle;text-anchor:middle;fill:#000000">
    <path
       d="M 96.051857,893.90002 H 87.77256 l 16.50586,-16.63769 H 71.108498 v -5.74805 H 104.27842 L 87.77256,854.87659 h 8.279297 l 19.511723,19.51172 z"
       style="font-size:54px;font-family:Consolas;dominant-baseline:middle;text-anchor:middle;fill:#000000"
       id="path247" />
  </g>
  <g
     aria-label="!"
     id="text104"
     style="font-size:64px;font-family:Consolas;dominant-baseline:hanging;text-anchor:end;fill:#000000">
    <path
       d="m 138.02499,771.26878 -0.84375,32.1875 h -4.8125 l -0.9375,-32.1875 z m -3.28125,36.46875 q 0.84375,0 1.59375,0.34375 0.75,0.3125 1.28125,0.875 0.5625,0.5625 0.875,1.34375 0.34375,0.75 0.34375,1.59375 0,0.84375 -0.34375,1.59375 -0.3125,0.75 -0.875,1.3125 -0.53125,0.53125 -1.28125,0.84375 -0.75,0.34375 -1.59375,0.34375 -0.875,0 -1.625,-0.34375 -0.75,-0.3125 -1.3125,-0.84375 -0.5625,-0.5625 -0.90625,-1.3125 -0.3125,-0.75 -0.3125,-1.59375 0,-0.84375 0.3125,-1.59375 0.34375,-0.78125 0.90625,-1.34375 0.5625,-0.5625 1.3125,-0.875 0.75,-0.34375 1.625,-0.34375 z"
       style="font-size:64px;font-family:Consolas;dominant-baseline:hanging;text-anchor:end;fill:#000000"
       id="path244" />
  </g>
  <g
     aria-label="4"
     id="text106"
     style="font-size:64px;font-family:Consolas;dominant-baseline:middle;text-anchor:middle;fill:#000000">
    <path
       d="m 260.7375,886.05627 h -6.96875 v 9.03125 h -5.5625 v -9.03125 H 228.55 v -4.78125 l 17.40625,-27.03125 h 7.8125 v 27.03125 h 6.96875 z m -12.53125,-26.5625 -14.21875,21.78125 h 14.21875 z"
       style="font-size:64px;font-family:Consolas;dominant-baseline:middle;text-anchor:middle;fill:#000000"
       id="path241" />
  </g>
  <g
     aria-label="V"
     id="text108"
     style="font-size:64px;font-family:Consolas;dominant-baseline:hanging;text-anchor:end;fill:#000000">
    <path
       d="m 304.67499,774.58128 -13.875,40.84375 h -7.5 l -13.5625,-40.84375 h 6.28125 l 8.8125,27.53125 2.5,8.0625 2.5625,-8.0625 8.84375,-27.53125 z"
       style="font-size:64px;font-family:Consolas;dominant-baseline:hanging;text-anchor:end;fill:#000000"
       id="path238" />
  </g>
  <g
     aria-label="5"
     id="text110"
     style="font-size:64px;font-family:Consolas;dominant-baseline:middle;text-anchor:middle;fill:#000000">
    <path
       d="m 410.07501,882.02502 q 0,3.03125 -1.3125,5.53125 -1.3125,2.5 -3.625,4.3125 -2.28125,1.78125 -5.40625,2.78125 -3.125,1 -6.75,1 -0.90625,0 -1.96875,-0.0625 -1.03125,-0.0312 -2.0625,-0.125 -1.03125,-0.0625 -2.03125,-0.15625 -0.96875,-0.0937 -1.75,-0.21875 v -4.9375 q 1.6875,0.40625 3.84375,0.59375 2.1875,0.1875 4.40625,0.1875 2.5,0 4.5,-0.59375 2,-0.59375 3.40625,-1.6875 1.40625,-1.125 2.15625,-2.6875 0.75,-1.59375 0.75,-3.5625 0,-3.8125 -2.75,-5.53125 -2.71875,-1.75 -7.84375,-1.75 h -7.75 v -20.875 h 22 v 4.75 h -16.875 v 11.46875 h 3.5625 q 2.9375,0 5.71875,0.53125 2.78125,0.53125 4.9375,1.875 2.1875,1.3125 3.5,3.5625 1.34375,2.21875 1.34375,5.59375 z"
       style="font-size:64px;font-family:Consolas;dominant-baseline:middle;text-anchor:middle;fill:#000000"
       id="path235" />
  </g>
  <g
     aria-label="W"
     id="text112"
     style="font-size:64px;font-family:Consolas;dominant-baseline:hanging;text-anchor:end;fill:#000000">
    <path
       d="m 455.79376,774.58128 -2.75,40.84375 h -7.21875 l -5.0625,-14.53125 -1.40625,-4.65625 -1.46875,5.03125 -4.6875,14.15625 h -6.96875 l -2.8125,-40.84375 h 5.25 l 1.59375,27.78125 0.46875,7.625 1.96875,-6.46875 4.9375,-15.15625 h 3.84375 l 5.6875,16.25 1.90625,5.375 0.125,-5.625 1.625,-29.78125 z"
       style="font-size:64px;font-family:Consolas;dominant-baseline:hanging;text-anchor:end;fill:#000000"
       id="path232" />
  </g>
  <g
     aria-label="6"
     id="text114"
     style="font-size:64px;font-family:Consolas;dominant-baseline:middle;text-anchor:middle;fill:#000000">
    <path
       d="m 564.00623,882.15002 q 0,2.8125 -1.03125,5.28125 -1,2.46875 -2.875,4.3125 -1.875,1.8125 -4.53125,2.875 -2.625,1.03125 -5.84375,1.03125 -3.375,0 -5.96875,-1.0625 -2.59375,-1.09375 -4.34375,-3.3125 -1.75,-2.25 -2.65625,-5.65625 -0.90625,-3.40625 -0.90625,-8.0625 0,-3.125 0.40625,-6.0625 0.40625,-2.9375 1.34375,-5.53125 0.9375,-2.59375 2.5,-4.75 1.5625,-2.15625 3.875,-3.6875 2.34375,-1.5625 5.5,-2.40625 3.15625,-0.875 7.3125,-0.875 h 4.03125 v 4.75 h -4.375 q -3.65625,0 -6.34375,0.875 -2.6875,0.875 -4.5,2.46875 -1.8125,1.59375 -2.78125,3.84375 -0.96875,2.25 -1.21875,5.03125 l -0.125,1.28125 q 1.96875,-1.15625 4.53125,-1.84375 2.59375,-0.71875 5.59375,-0.71875 3.09375,0 5.40625,0.90625 2.34375,0.90625 3.875,2.53125 1.5625,1.59375 2.34375,3.84375 0.78125,2.25 0.78125,4.9375 z m -5.6875,0.34375 q 0,-1.875 -0.46875,-3.375 -0.4375,-1.53125 -1.40625,-2.5625 -0.96875,-1.0625 -2.46875,-1.625 -1.46875,-0.59375 -3.53125,-0.59375 -1.1875,0 -2.40625,0.21875 -1.21875,0.21875 -2.40625,0.625 -1.15625,0.375 -2.21875,0.875 -1.0625,0.5 -1.9375,1.0625 0,4.03125 0.5625,6.75 0.5625,2.6875 1.65625,4.3125 1.125,1.625 2.75,2.3125 1.625,0.6875 3.75,0.6875 1.78125,0 3.25,-0.5625 1.5,-0.59375 2.5625,-1.71875 1.09375,-1.125 1.6875,-2.71875 0.625,-1.625 0.625,-3.6875 z"
       style="font-size:64px;font-family:Consolas;dominant-baseline:middle;text-anchor:middle;fill:#000000"
       id="path229" />
  </g>
  <g
     aria-label="X"
     id="text116"
     style="font-size:64px;font-family:Consolas;dominant-baseline:hanging;text-anchor:end;fill:#000000">
    <path
       d="m 608.84998,815.42503 h -7.03125 l -9.9375,-16.5 -9.96875,16.5 h -6.9375 l 13.59375,-20.875 -12.5,-19.96875 h 6.59375 l 9.34375,15.375 9.40625,-15.375 h 6.40625 l -12.53125,19.71875 z"
       style="font-size:64px;font-family:Consolas;dominant-baseline:hanging;text-anchor:end;fill:#000000"
       id="path226" />
  </g>
  <g
     aria-label="×"
     id="text118"
     style="font-size:80px;font-family:Consolas;dominant-baseline:middle;text-anchor:middle;fill:#000000">
    <path
       d="m 718.09375,862.80627 -11.75781,11.75782 11.91406,11.83593 -4.57031,4.57032 -11.83594,-11.91407 -11.75781,11.75782 -4.14063,-4.17969 11.75781,-11.75781 -11.95312,-11.83594 4.57031,-4.57031 11.83594,11.95312 11.75781,-11.75781 z"
       style="font-size:80px;font-family:Consolas;dominant-baseline:middle;text-anchor:middle;fill:#000000"
       id="path223" />
  </g>
  <g
     id="text120"
     style="font-size:64px;font-family:Consolas;dominant-baseline:hanging;text-anchor:end;fill:#000000" />
  <g
     aria-label="@"
     id="text122"
     style="font-weight:bold;font-size:54px;font-family:calibri;dominant-baseline:middle;text-anchor:middle;fill:#000000">
    <path
       d="m 113.25645,1024.1799 q 0,1.9248 -0.26368,3.9024 -0.26367,1.9511 -0.87011,3.7705 -0.58008,1.793 -1.50293,3.375 -0.92285,1.582 -2.24121,2.7422 -1.292,1.1601 -3.00586,1.8457 -1.71387,0.6592 -3.87598,0.6592 -1.29199,0 -2.346678,-0.2374 -1.054688,-0.2636 -1.845704,-0.7382 -0.791015,-0.501 -1.318359,-1.2129 -0.500977,-0.7383 -0.764648,-1.6875 -1.028321,1.0547 -2.030274,1.7929 -0.975586,0.712 -1.951172,1.1866 -0.949218,0.4746 -1.898437,0.6855 -0.949219,0.211 -1.924805,0.211 -1.239258,0 -2.188476,-0.2901 -0.949219,-0.3164 -1.661133,-0.8437 -0.685547,-0.5274 -1.160157,-1.2129 -0.448242,-0.7119 -0.738281,-1.5557 -0.290039,-0.8437 -0.421875,-1.7666 -0.105469,-0.9228 -0.105469,-1.8721 0,-1.2392 0.184571,-2.7685 0.210937,-1.5293 0.659179,-3.1113 0.47461,-1.6084 1.239258,-3.085 0.764649,-1.5029 1.898438,-2.6631 1.133789,-1.1865 2.636719,-1.8984 1.529296,-0.7119 3.506835,-0.7119 0.896485,0 1.661133,0.1845 0.764649,0.1846 1.476563,0.5801 0.711914,0.3955 1.371094,1.0283 0.685546,0.6328 1.423828,1.5557 l 0.448242,-2.0303 q 0.105469,-0.4746 0.632812,-0.7119 0.553711,-0.2373 1.924806,-0.2373 0.68555,0 1.13379,0.079 0.47461,0.053 0.73828,0.1846 0.26367,0.1054 0.34277,0.29 0.0791,0.1582 0.0527,0.3955 l -2.26758,11.7861 q -0.369142,1.9512 0.10547,2.8741 0.50097,0.8965 1.9248,0.8965 0.92285,0 1.6875,-0.501 0.76465,-0.501 1.31836,-1.3447 0.58008,-0.8702 0.97559,-1.9776 0.39551,-1.1338 0.63281,-2.3467 0.26367,-1.2392 0.36914,-2.4785 0.13184,-1.2656 0.13184,-2.4258 0,-2.1093 -0.58008,-3.9814 -0.58008,-1.8984 -2.05664,-3.3223 -1.4502,-1.4502 -3.95508,-2.2676 -2.478516,-0.8437 -6.328125,-0.8437 -2.583984,0 -4.719727,0.5273 -2.109375,0.501 -3.796875,1.4239 -1.6875,0.8965 -3.005859,2.1357 -1.318359,1.2393 -2.293945,2.7158 -0.975586,1.4502 -1.661133,3.1114 -0.65918,1.6347 -1.054688,3.3222 -0.395507,1.6875 -0.580078,3.375 -0.18457,1.6875 -0.18457,3.2696 0,2.874 0.632812,5.1416 0.632813,2.2675 2.188477,3.8496 1.555664,1.582 4.139648,2.3994 2.610352,0.8437 6.512696,0.8437 2.030273,0 3.691406,-0.2373 1.6875,-0.2373 2.926758,-0.5009 1.265625,-0.2637 2.05664,-0.501 0.791013,-0.2373 1.081053,-0.2373 0.18457,0 0.31641,0.079 0.13183,0.1054 0.21094,0.3691 0.0791,0.2637 0.10546,0.7119 0.0527,0.4483 0.0527,1.1338 0,0.5801 -0.0264,0.9756 -0.0264,0.3955 -0.10547,0.6592 -0.0527,0.29 -0.1582,0.4746 -0.10547,0.2109 -0.26367,0.3428 -0.15821,0.1582 -1.001955,0.4482 -0.817383,0.29 -2.214844,0.5537 -1.371094,0.2901 -3.243164,0.501 -1.845703,0.2109 -4.060547,0.2109 -5.009765,0 -8.542968,-1.1601 -3.533204,-1.1338 -5.800782,-3.3223 -2.241211,-2.1621 -3.295898,-5.2471 -1.02832,-3.1113 -1.02832,-6.9873 0,-2.1621 0.290039,-4.4033 0.316406,-2.2412 0.949218,-4.4297 0.632813,-2.1884 1.634766,-4.2451 1.02832,-2.083 2.425781,-3.9287 1.397461,-1.8457 3.216797,-3.375 1.845703,-1.5557 4.113281,-2.6631 2.293946,-1.1074 5.036133,-1.7139 2.768555,-0.6064 6.064453,-0.6064 4.825196,0 8.25293,1.0811 3.4541,1.081 5.66895,3.0585 2.21484,1.9776 3.24316,4.7725 1.05469,2.7686 1.05469,6.1699 z m -17.718753,2.3467 q -0.791016,-1.4502 -1.661133,-2.1885 -0.84375,-0.7382 -1.924805,-0.7382 -0.922851,0 -1.661132,0.4482 -0.711915,0.4219 -1.265625,1.1602 -0.553711,0.7119 -0.949219,1.6347 -0.369141,0.8965 -0.632813,1.8457 -0.237304,0.9492 -0.342773,1.8721 -0.105469,0.8965 -0.105469,1.582 0,1.5821 0.580078,2.5049 0.580078,0.9229 1.951172,0.9229 0.500977,0 1.02832,-0.1582 0.553711,-0.1846 1.133789,-0.5538 0.606446,-0.3955 1.265625,-1.0019 0.685547,-0.6328 1.50293,-1.5029 z m -27.395508,-16.1894 z"
       style="font-weight:bold;font-size:54px;font-family:calibri;dominant-baseline:middle;text-anchor:middle;fill:#000000"
       id="path219" />
  </g>
  <g
     aria-label="?"
     id="text124"
     style="font-size:64px;font-family:calibri;dominant-baseline:hanging;text-anchor:end;fill:#000000">
    <path
       d="m 149.46249,937.23124 q 0,2.75 -0.78125,4.875 -0.78125,2.125 -2.1875,3.625 -1.40625,1.5 -3.375,2.34375 -1.96875,0.84375 -4.375,1 l -0.21875,7.53125 q 0,0.46875 -0.5625,0.71875 -0.53125,0.21875 -1.75,0.21875 -0.65625,0 -1.125,-0.0312 -0.46875,-0.0625 -0.75,-0.15625 -0.28125,-0.125 -0.40625,-0.3125 -0.125,-0.1875 -0.125,-0.4375 l -0.1875,-8.65625 q -0.0312,-0.71875 0.0937,-1.15625 0.15625,-0.46875 0.4375,-0.75 0.28125,-0.3125 0.71875,-0.40625 0.4375,-0.125 1,-0.125 h 0.6875 q 2.03125,0 3.46875,-0.625 1.4375,-0.65625 2.3125,-1.71875 0.90625,-1.0625 1.3125,-2.5 0.40625,-1.4375 0.40625,-3 0,-1.78125 -0.5,-3.25 -0.5,-1.5 -1.5,-2.5625 -1,-1.09375 -2.53125,-1.6875 -1.5,-0.59375 -3.5625,-0.59375 -1.8125,0 -3.1875,0.40625 -1.34375,0.375 -2.34375,0.84375 -1,0.46875 -1.65625,0.84375 -0.625,0.375 -0.9375,0.375 -0.21875,0 -0.40625,-0.0937 -0.15625,-0.0937 -0.28125,-0.34375 -0.125,-0.28125 -0.1875,-0.71875 -0.0625,-0.46875 -0.0625,-1.15625 0,-0.75 0.0937,-1.125 0.0937,-0.40625 0.40625,-0.6875 0.3125,-0.3125 1.1875,-0.78125 0.90625,-0.5 2.15625,-0.90625 1.28125,-0.40625 2.78125,-0.6875 1.53125,-0.28125 3.15625,-0.28125 3.34375,0 5.75,0.96875 2.40625,0.9375 3.96875,2.5625 1.5625,1.625 2.3125,3.8125 0.75,2.1875 0.75,4.625 z m -9.875,27.71875 q 0,1.03125 -0.15625,1.71875 -0.125,0.65625 -0.5,1.09375 -0.375,0.40625 -1.03125,0.5625 -0.625,0.1875 -1.5625,0.1875 -1,0 -1.625,-0.1875 -0.625,-0.15625 -1.03125,-0.5625 -0.375,-0.4375 -0.53125,-1.09375 -0.125,-0.6875 -0.125,-1.71875 0,-1.03125 0.125,-1.71875 0.15625,-0.71875 0.53125,-1.09375 0.40625,-0.40625 1.03125,-0.5625 0.625,-0.1875 1.625,-0.1875 0.9375,0 1.5625,0.1875 0.65625,0.15625 1.03125,0.5625 0.375,0.375 0.5,1.09375 0.15625,0.6875 0.15625,1.71875 z"
       style="font-size:64px;font-family:calibri;dominant-baseline:hanging;text-anchor:end;fill:#000000"
       id="path216" />
  </g>
  <g
     aria-label="1"
     id="text126"
     style="font-size:64px;font-family:Consolas;dominant-baseline:middle;text-anchor:middle;fill:#000000">
    <path
       d="m 258.3625,1047.4875 h -25.65625 v -5.0625 h 10.5 v -29.8125 l -9.78125,5.3125 -2,-4.625 13,-6.8437 h 4.8125 v 35.9687 h 9.125 z"
       style="font-size:64px;font-family:Consolas;dominant-baseline:middle;text-anchor:middle;fill:#000000"
       id="path213" />
  </g>
  <g
     aria-label="Y"
     id="text128"
     style="font-size:64px;font-family:Consolas;dominant-baseline:hanging;text-anchor:end;fill:#000000">
    <path
       d="m 304.79999,926.98124 -14.78125,26.25 v 14.59375 h -5.625 v -14.71875 l -14.78125,-26.125 h 6.71875 l 8.125,14.9375 3,6 2.75,-5.4375 8.21875,-15.5 z"
       style="font-size:64px;font-family:Consolas;dominant-baseline:hanging;text-anchor:end;fill:#000000"
       id="path210" />
  </g>
  <g
     aria-label="2"
     id="text130"
     style="font-size:64px;font-family:Consolas;dominant-baseline:middle;text-anchor:middle;fill:#000000">
    <path
       d="m 411.10626,1047.4875 h -26.90625 v -4.875 l 10.5625,-10.5 q 2.59375,-2.5625 4.21875,-4.4375 1.625,-1.875 2.53125,-3.4062 0.90625,-1.5625 1.21875,-2.9375 0.3125,-1.375 0.3125,-2.9688 0,-1.5 -0.40625,-2.8437 -0.40625,-1.375 -1.25,-2.4063 -0.84375,-1.0312 -2.1875,-1.625 -1.34375,-0.5937 -3.21875,-0.5937 -2.59375,0 -4.71875,1.1562 -2.125,1.1563 -3.90625,3 l -3,-3.5937 q 2.3125,-2.4375 5.3125,-3.9063 3.03125,-1.4687 7.03125,-1.4687 2.71875,0 4.9375,0.8125 2.25,0.8125 3.875,2.3437 1.625,1.5313 2.5,3.75 0.90625,2.2188 0.90625,5 0,2.3438 -0.625,4.3438 -0.625,2 -1.90625,4 -1.25,1.9687 -3.1875,4.0937 -1.90625,2.125 -4.53125,4.6563 l -7.40625,7.2187 h 19.84375 z"
       style="font-size:64px;font-family:Consolas;dominant-baseline:middle;text-anchor:middle;fill:#000000"
       id="path207" />
  </g>
  <g
     aria-label="Z"
     id="text132"
     style="font-size:64px;font-family:Consolas;dominant-baseline:hanging;text-anchor:end;fill:#000000">
    <path
       d="m 453.29376,931.35624 -20.84375,31.28125 h 21.25 v 5.1875 h -28.21875 v -4.15625 l 20.96875,-31.625 h -20.40625 v -5.0625 h 27.25 z"
       style="font-size:64px;font-family:Consolas;dominant-baseline:hanging;text-anchor:end;fill:#000000"
       id="path204" />
  </g>
  <g
     aria-label="3"
     id="text134"
     style="font-size:64px;font-family:Consolas;dominant-baseline:middle;text-anchor:middle;fill:#000000">
    <path
       d="m 562.72498,1035.0813 q 0,2.6875 -1.09375,5.0625 -1.09375,2.3437 -3.28125,4.125 -2.1875,1.75 -5.5,2.7812 -3.3125,1 -7.71875,1 -2.4375,0 -4.375,-0.1562 -1.9375,-0.1563 -3.625,-0.4063 v -4.875 q 1.9375,0.3438 4.09375,0.5313 2.15625,0.1875 4.40625,0.1875 3.0625,0 5.21875,-0.5313 2.1875,-0.5625 3.5625,-1.5937 1.375,-1.0313 2,-2.5 0.625,-1.4688 0.625,-3.3125 0,-1.6875 -0.75,-2.9375 -0.75,-1.25 -2.125,-2.0938 -1.34375,-0.8437 -3.25,-1.25 -1.875,-0.4375 -4.125,-0.4375 h -4.65625 v -4.4687 h 4.71875 q 1.84375,0 3.34375,-0.4688 1.53125,-0.5 2.59375,-1.4062 1.09375,-0.9063 1.65625,-2.2188 0.59375,-1.3437 0.59375,-3.0312 0,-3.2813 -2,-4.7813 -2,-1.5 -5.875,-1.5 -2.0625,0 -4.25,0.4063 -2.1875,0.4062 -4.6875,1.2187 v -4.75 q 1.0625,-0.375 2.25,-0.6562 1.21875,-0.3125 2.40625,-0.5 1.21875,-0.2188 2.40625,-0.3125 1.1875,-0.125 2.28125,-0.125 3.25,0 5.71875,0.7187 2.46875,0.6875 4.125,2 1.65625,1.3125 2.5,3.1875 0.84375,1.875 0.84375,4.2188 0,3.5 -1.8125,5.875 -1.78125,2.375 -4.90625,3.7812 1.59375,0.25 3.125,1 1.5625,0.75 2.78125,1.9375 1.25,1.1563 2,2.75 0.78125,1.5938 0.78125,3.5313 z"
       style="font-size:64px;font-family:Consolas;dominant-baseline:middle;text-anchor:middle;fill:#000000"
       id="path201" />
  </g>
  <g
     aria-label="_"
     id="text136"
     style="font-size:64px;font-family:Consolas;dominant-baseline:hanging;text-anchor:end;fill:#000000">
    <path
       d="m 609.59998,969.63749 h -35.1875 v -4.5 h 35.1875 z"
       style="font-size:64px;font-family:Consolas;dominant-baseline:hanging;text-anchor:end;fill:#000000"
       id="path198" />
  </g>
  <g
     aria-label="-"
     id="text138"
     style="font-size:100px;font-family:Consolas;dominant-baseline:middle;text-anchor:middle;fill:#000000">
    <path
       d="m 716.59961,1030.7043 h -29.19922 v -8.0078 h 29.19922 z"
       style="font-size:100px;font-family:Consolas;dominant-baseline:middle;text-anchor:middle;fill:#000000"
       id="path195" />
  </g>
  <g
     id="text140"
     style="font-size:64px;font-family:Consolas;dominant-baseline:hanging;text-anchor:end;fill:#000000" />
  <g
     aria-label="ON"
     id="text142"
     style="font-size:64px;font-family:Consolas;dominant-baseline:middle;text-anchor:middle;fill:#000000">
    <path
       d="m 90.681252,1179.2 q 0,5.5 -1.3125,9.5 -1.28125,4 -3.5,6.625 -2.1875,2.5937 -5.15625,3.875 -2.9375,1.25 -6.21875,1.25 -3.9375,0 -6.875,-1.4063 -2.90625,-1.4375 -4.84375,-4.125 -1.90625,-2.6875 -2.84375,-6.5312 -0.9375,-3.875 -0.9375,-8.7188 0,-5.4375 1.28125,-9.4375 1.28125,-4 3.46875,-6.5937 2.21875,-2.625 5.15625,-3.875 2.9375,-1.2813 6.21875,-1.2813 3.9375,0 6.84375,1.4375 2.9375,1.4375 4.875,4.125 1.9375,2.6563 2.875,6.5 0.96875,3.8438 0.96875,8.6563 z m -5.78125,0.4062 q 0,-3.5937 -0.5625,-6.5625 -0.53125,-3 -1.75,-5.1562 -1.21875,-2.1563 -3.15625,-3.3438 -1.90625,-1.1875 -4.625,-1.1875 -2.625,0 -4.53125,1.2813 -1.875,1.25 -3.09375,3.4375 -1.21875,2.1562 -1.8125,5.0937 -0.59375,2.9063 -0.59375,6.1875 0,3.625 0.5625,6.625 0.5625,2.9688 1.75,5.125 1.21875,2.125 3.125,3.3125 1.90625,1.1875 4.59375,1.1875 2.625,0 4.53125,-1.25 1.90625,-1.2812 3.125,-3.4375 1.25,-2.1875 1.84375,-5.0937 0.59375,-2.9063 0.59375,-6.2188 z"
       style="font-size:64px;font-family:Consolas;dominant-baseline:middle;text-anchor:middle;fill:#000000"
       id="path189" />
    <path
       d="m 123.9,1199.8875 h -7.25 l -11.90625,-25.4688 -3.4375,-8.1875 v 20.5938 13.0625 h -5.187498 v -40.8438 H 103.275 l 11.34375,24.125 4.09375,9.3438 v -21.875 -11.5938 H 123.9 Z"
       style="font-size:64px;font-family:Consolas;dominant-baseline:middle;text-anchor:middle;fill:#000000"
       id="path191" />
  </g>
  <g
     id="text144"
     style="font-size:64px;font-family:Consolas;dominant-baseline:hanging;text-anchor:end;fill:#000000" />
  <g
     aria-label="0"
     id="text146"
     style="font-size:64px;font-family:Consolas;dominant-baseline:middle;text-anchor:middle;fill:#000000">
    <path
       d="m 259.64375,1179.4812 q 0,4.6875 -0.9375,8.5625 -0.9375,3.8438 -2.84375,6.625 -1.90625,2.75 -4.75,4.2813 -2.8125,1.5 -6.625,1.5 -3.28125,0 -5.96875,-1.2188 -2.6875,-1.25 -4.59375,-3.8125 -1.90625,-2.5625 -2.9375,-6.5312 -1.03125,-3.9688 -1.03125,-9.4063 0,-4.6875 0.9375,-8.5625 0.96875,-3.875 2.84375,-6.625 1.90625,-2.7812 4.75,-4.2812 2.84375,-1.5313 6.625,-1.5313 3.28125,0 5.96875,1.25 2.6875,1.2188 4.59375,3.8125 1.90625,2.5625 2.9375,6.5313 1.03125,3.9687 1.03125,9.4062 z m -5.5,0.1875 q 0,-1.0625 -0.0937,-2.0937 -0.0625,-1.0625 -0.15625,-2.0625 l -17.28125,12.8437 q 0.46875,1.625 1.1875,3 0.71875,1.375 1.71875,2.375 1.03125,0.9688 2.3125,1.5313 1.3125,0.5312 2.96875,0.5312 2.125,0 3.84375,-1.0312 1.75,-1.0313 2.96875,-3.0625 1.21875,-2.0313 1.875,-5.0313 0.65625,-3.0312 0.65625,-7 z m -18.6875,-0.375 q 0,0.9688 0,1.9375 0.0312,0.9688 0.125,1.875 l 17.28125,-12.7812 q -0.46875,-1.5938 -1.1875,-2.9063 -0.71875,-1.3125 -1.71875,-2.25 -1,-0.9687 -2.28125,-1.5 -1.28125,-0.5312 -2.875,-0.5312 -2.125,0 -3.875,1.0312 -1.71875,1.0313 -2.9375,3.0938 -1.21875,2.0312 -1.875,5.0625 -0.65625,3 -0.65625,6.9687 z"
       style="font-size:64px;font-family:Consolas;dominant-baseline:middle;text-anchor:middle;fill:#000000"
       id="path185" />
  </g>
  <g
     id="text148"
     style="font-size:64px;font-family:Consolas;dominant-baseline:hanging;text-anchor:end;fill:#000000" />
  <g
     aria-label="."
     id="text150"
     style="font-size:64px;font-family:Consolas;dominant-baseline:middle;text-anchor:middle;fill:#000000">
    <path
       d="m 396.95001,1186.0437 q 1.0625,0 2,0.4063 0.96875,0.4062 1.65625,1.125 0.71875,0.7187 1.125,1.6875 0.40625,0.9375 0.40625,2.0312 0,1.0625 -0.40625,2 -0.40625,0.9375 -1.125,1.6563 -0.6875,0.6875 -1.65625,1.0937 -0.9375,0.4063 -2,0.4063 -1.09375,0 -2.03125,-0.4063 -0.9375,-0.4062 -1.65625,-1.0937 -0.6875,-0.7188 -1.09375,-1.6563 -0.40625,-0.9375 -0.40625,-2 0,-1.0937 0.40625,-2.0312 0.40625,-0.9688 1.09375,-1.6875 0.71875,-0.7188 1.65625,-1.125 0.9375,-0.4063 2.03125,-0.4063 z"
       style="font-size:64px;font-family:Consolas;dominant-baseline:middle;text-anchor:middle;fill:#000000"
       id="path181" />
  </g>
  <g
     id="text152"
     style="font-size:64px;font-family:Consolas;dominant-baseline:hanging;text-anchor:end;fill:#000000" />
  <g
     aria-label="SP"
     id="text154"
     style="font-size:64px;font-family:Consolas;dominant-baseline:middle;text-anchor:middle;fill:#000000">
    <path
       d="m 545.56873,1188.825 q 0,2.9062 -1.1875,5.0937 -1.1875,2.1875 -3.3125,3.6563 -2.125,1.4375 -5.125,2.1562 -2.96875,0.7188 -6.5625,0.7188 -1.625,0 -3.25,-0.125 -1.59375,-0.125 -3.09375,-0.3125 -1.46875,-0.1875 -2.78125,-0.4375 -1.3125,-0.25 -2.375,-0.5313 v -5.375 q 2.34375,0.875 5.25,1.375 2.9375,0.5 6.65625,0.5 2.6875,0 4.5625,-0.4062 1.90625,-0.4375 3.09375,-1.25 1.21875,-0.8438 1.75,-2.0313 0.5625,-1.1875 0.5625,-2.7187 0,-1.6563 -0.9375,-2.8125 -0.90625,-1.1875 -2.40625,-2.0938 -1.5,-0.9375 -3.4375,-1.6875 -1.90625,-0.7812 -3.90625,-1.5937 -2,-0.8125 -3.9375,-1.75 -1.90625,-0.9688 -3.40625,-2.25 -1.5,-1.3125 -2.4375,-3.0625 -0.90625,-1.75 -0.90625,-4.1563 0,-2.0937 0.875,-4.125 0.875,-2.0312 2.71875,-3.5937 1.84375,-1.5938 4.71875,-2.5625 2.90625,-0.9688 6.90625,-0.9688 1.03125,0 2.21875,0.094 1.21875,0.094 2.4375,0.2812 1.25,0.1563 2.4375,0.375 1.21875,0.2188 2.25,0.4688 v 5 q -2.40625,-0.6875 -4.8125,-1.0313 -2.40625,-0.375 -4.65625,-0.375 -4.78125,0 -7.03125,1.5938 -2.25,1.5937 -2.25,4.2812 0,1.6563 0.90625,2.8438 0.9375,1.1875 2.4375,2.125 1.5,0.9375 3.40625,1.7187 1.9375,0.75 3.9375,1.5625 2,0.8125 3.90625,1.7813 1.9375,0.9687 3.4375,2.3125 1.5,1.3125 2.40625,3.0937 0.9375,1.7813 0.9375,4.2188 z"
       style="font-size:64px;font-family:Consolas;dominant-baseline:middle;text-anchor:middle;fill:#000000"
       id="path175" />
    <path
       d="m 581.34998,1171.5437 q 0,2.5 -0.9375,4.9688 -0.9375,2.4375 -2.90625,4.375 -1.96875,1.9375 -5.03125,3.1562 -3.0625,1.1875 -7.3125,1.1875 h -5.0625 v 14.6563 h -5.5625 v -40.8438 h 11.5 q 3.03125,0 5.8125,0.6875 2.78125,0.6563 4.875,2.1563 2.125,1.5 3.375,3.875 1.25,2.375 1.25,5.7812 z m -5.78125,0.25 q 0,-3.9375 -2.59375,-6.0312 -2.5625,-2.0938 -7.1875,-2.0938 h -5.6875 v 16.8125 h 5.1875 q 4.9375,0 7.59375,-2.1562 2.6875,-2.1563 2.6875,-6.5313 z"
       style="font-size:64px;font-family:Consolas;dominant-baseline:middle;text-anchor:middle;fill:#000000"
       id="path177" />
  </g>
  <g
     id="text156"
     style="font-size:64px;font-family:Consolas;dominant-baseline:hanging;text-anchor:end;fill:#000000" />
  <g
     aria-label="+"
     id="text158"
     style="font-size:80px;font-family:Consolas;dominant-baseline:middle;text-anchor:middle;fill:#000000">
    <path
       d="m 720.71094,1182.489 h -15.35157 v 15.9375 h -6.71875 v -15.9375 h -15.35156 v -5.9375 h 15.35156 v -15.8203 h 6.71875 v 15.8203 h 15.35157 z"
       style="font-size:80px;font-family:Consolas;dominant-baseline:middle;text-anchor:middle;fill:#000000"
       id="path171" />
  </g>
  <g
     id="text160"
     style="font-size:64px;font-family:Consolas;dominant-baseline:hanging;text-anchor:end;fill:#000000" />
</svg>
