<svg xmlns="http://www.w3.org/2000/svg" width="794.4" height="1291.6000000000001">
<rect width="100%" height="100%" fill="black" />

<rect width="120" height="80" x="32.4" y="72.4" fill="#C0C0C0" />
<line x1="47.4" y1="72.4" x2="47.4" y2="152.4" style="stroke:#00FF00;stroke-width:1" />
<line x1="137.4" y1="72.4" x2="137.4" y2="152.4" style="stroke:#00FF00;stroke-width:1" />
<line x1="32.4" y1="87.4" x2="152.4" y2="87.4" style="stroke:#00FF00;stroke-width:1" />
<line x1="32.4" y1="137.4" x2="152.4" y2="137.4" style="stroke:#00FF00;stroke-width:1" />
<text x="92.4" y="117.4" fill="red" dominant-baseline="middle" text-anchor="middle" font-family="Consolas" font-size="72">A</text>

<rect width="120" height="80" x="184.8" y="72.4" fill="#C0C0C0" />
<line x1="199.8" y1="72.4" x2="199.8" y2="152.4" style="stroke:#00FF00;stroke-width:1" />
<line x1="289.8" y1="72.4" x2="289.8" y2="152.4" style="stroke:#00FF00;stroke-width:1" />
<line x1="184.8" y1="87.4" x2="304.8" y2="87.4" style="stroke:#00FF00;stroke-width:1" />
<line x1="184.8" y1="137.4" x2="304.8" y2="137.4" style="stroke:#00FF00;stroke-width:1" />
<text x="244.8" y="117.4" fill="red" dominant-baseline="middle" text-anchor="middle" font-family="Consolas" font-size="72">B</text>

<rect width="120" height="80" x="337.2" y="72.4" fill="#C0C0C0" />
<line x1="352.2" y1="72.4" x2="352.2" y2="152.4" style="stroke:#00FF00;stroke-width:1" />
<line x1="442.2" y1="72.4" x2="442.2" y2="152.4" style="stroke:#00FF00;stroke-width:1" />
<line x1="337.2" y1="87.4" x2="457.2" y2="87.4" style="stroke:#00FF00;stroke-width:1" />
<line x1="337.2" y1="137.4" x2="457.2" y2="137.4" style="stroke:#00FF00;stroke-width:1" />
<text x="397.2" y="117.4" fill="red" dominant-baseline="middle" text-anchor="middle" font-family="Consolas" font-size="72">C</text>

<rect width="120" height="80" x="489.6" y="72.4" fill="#C0C0C0" />
<line x1="504.6" y1="72.4" x2="504.6" y2="152.4" style="stroke:#00FF00;stroke-width:1" />
<line x1="594.6" y1="72.4" x2="594.6" y2="152.4" style="stroke:#00FF00;stroke-width:1" />
<line x1="489.6" y1="87.4" x2="609.6" y2="87.4" style="stroke:#00FF00;stroke-width:1" />
<line x1="489.6" y1="137.4" x2="609.6" y2="137.4" style="stroke:#00FF00;stroke-width:1" />
<text x="549.6" y="117.4" fill="red" dominant-baseline="middle" text-anchor="middle" font-family="Consolas" font-size="72">D</text>

<rect width="120" height="80" x="642.0" y="72.4" fill="#C0C0C0" />
<line x1="657.0" y1="72.4" x2="657.0" y2="152.4" style="stroke:#00FF00;stroke-width:1" />
<line x1="747.0" y1="72.4" x2="747.0" y2="152.4" style="stroke:#00FF00;stroke-width:1" />
<line x1="642.0" y1="87.4" x2="762.0" y2="87.4" style="stroke:#00FF00;stroke-width:1" />
<line x1="642.0" y1="137.4" x2="762.0" y2="137.4" style="stroke:#00FF00;stroke-width:1" />
<text x="702.0" y="117.4" fill="red" dominant-baseline="middle" text-anchor="middle" font-family="Consolas" font-size="72">E</text>

<rect width="120" height="80" x="32.4" y="224.8" fill="#C0C0C0" />
<line x1="47.4" y1="224.8" x2="47.4" y2="304.8" style="stroke:#00FF00;stroke-width:1" />
<line x1="137.4" y1="224.8" x2="137.4" y2="304.8" style="stroke:#00FF00;stroke-width:1" />
<line x1="32.4" y1="239.8" x2="152.4" y2="239.8" style="stroke:#00FF00;stroke-width:1" />
<line x1="32.4" y1="289.8" x2="152.4" y2="289.8" style="stroke:#00FF00;stroke-width:1" />
<text x="92.4" y="265.8" fill="red" dominant-baseline="middle" text-anchor="middle" font-family="Consolas" font-size="72">:</text>

<rect width="120" height="80" x="184.8" y="224.8" fill="#C0C0C0" />
<line x1="199.8" y1="224.8" x2="199.8" y2="304.8" style="stroke:#00FF00;stroke-width:1" />
<line x1="289.8" y1="224.8" x2="289.8" y2="304.8" style="stroke:#00FF00;stroke-width:1" />
<line x1="184.8" y1="239.8" x2="304.8" y2="239.8" style="stroke:#00FF00;stroke-width:1" />
<line x1="184.8" y1="289.8" x2="304.8" y2="289.8" style="stroke:#00FF00;stroke-width:1" />
<text x="244.8" y="265.8" fill="red" dominant-baseline="middle" text-anchor="middle" font-family="Consolas" font-size="72">;</text>

<rect width="120" height="80" x="337.2" y="224.8" fill="#C0C0C0" />
<line x1="352.2" y1="224.8" x2="352.2" y2="304.8" style="stroke:#00FF00;stroke-width:1" />
<line x1="442.2" y1="224.8" x2="442.2" y2="304.8" style="stroke:#00FF00;stroke-width:1" />
<line x1="337.2" y1="239.8" x2="457.2" y2="239.8" style="stroke:#00FF00;stroke-width:1" />
<line x1="337.2" y1="289.8" x2="457.2" y2="289.8" style="stroke:#00FF00;stroke-width:1" />
<text x="397.2" y="265.8" fill="red" dominant-baseline="middle" text-anchor="middle" font-weight="bold" font-family="Consolas" font-size="54">[</text>

<rect width="120" height="80" x="489.6" y="224.8" fill="#C0C0C0" />
<line x1="504.6" y1="224.8" x2="504.6" y2="304.8" style="stroke:#00FF00;stroke-width:1" />
<line x1="594.6" y1="224.8" x2="594.6" y2="304.8" style="stroke:#00FF00;stroke-width:1" />
<line x1="489.6" y1="239.8" x2="609.6" y2="239.8" style="stroke:#00FF00;stroke-width:1" />
<line x1="489.6" y1="289.8" x2="609.6" y2="289.8" style="stroke:#00FF00;stroke-width:1" />
<text x="549.6" y="265.8" fill="red" dominant-baseline="middle" text-anchor="middle" font-weight="bold" font-family="Consolas" font-size="54">]</text>

<rect width="120" height="80" x="642.0" y="224.8" fill="#C0C0C0" />
<line x1="657.0" y1="224.8" x2="657.0" y2="304.8" style="stroke:#00FF00;stroke-width:1" />
<line x1="747.0" y1="224.8" x2="747.0" y2="304.8" style="stroke:#00FF00;stroke-width:1" />
<line x1="642.0" y1="239.8" x2="762.0" y2="239.8" style="stroke:#00FF00;stroke-width:1" />
<line x1="642.0" y1="289.8" x2="762.0" y2="289.8" style="stroke:#00FF00;stroke-width:1" />
<text x="702.0" y="265.8" fill="red" dominant-baseline="middle" text-anchor="middle" font-family="Consolas" font-size="72">,</text>

<rect width="120" height="80" x="32.4" y="377.20000000000005" fill="#C0C0C0" />
<line x1="47.4" y1="377.20000000000005" x2="47.4" y2="457.20000000000005" style="stroke:#00FF00;stroke-width:1" />
<line x1="137.4" y1="377.20000000000005" x2="137.4" y2="457.20000000000005" style="stroke:#00FF00;stroke-width:1" />
<line x1="32.4" y1="392.20000000000005" x2="152.4" y2="392.20000000000005" style="stroke:#00FF00;stroke-width:1" />
<line x1="32.4" y1="442.20000000000005" x2="152.4" y2="442.20000000000005" style="stroke:#00FF00;stroke-width:1" />
<text x="92.4" y="432.20000000000005" fill="red" dominant-baseline="middle" text-anchor="middle" font-family="Consolas" font-size="90">'</text>

<rect width="120" height="80" x="184.8" y="377.20000000000005" fill="#C0C0C0" />
<line x1="199.8" y1="377.20000000000005" x2="199.8" y2="457.20000000000005" style="stroke:#00FF00;stroke-width:1" />
<line x1="289.8" y1="377.20000000000005" x2="289.8" y2="457.20000000000005" style="stroke:#00FF00;stroke-width:1" />
<line x1="184.8" y1="392.20000000000005" x2="304.8" y2="392.20000000000005" style="stroke:#00FF00;stroke-width:1" />
<line x1="184.8" y1="442.20000000000005" x2="304.8" y2="442.20000000000005" style="stroke:#00FF00;stroke-width:1" />
<text x="244.8" y="419.20000000000005" fill="red" dominant-baseline="middle" text-anchor="middle" font-family="Consolas" font-size="90">&lt;</text>

<rect width="120" height="80" x="337.2" y="377.20000000000005" fill="#C0C0C0" />
<line x1="352.2" y1="377.20000000000005" x2="352.2" y2="457.20000000000005" style="stroke:#00FF00;stroke-width:1" />
<line x1="442.2" y1="377.20000000000005" x2="442.2" y2="457.20000000000005" style="stroke:#00FF00;stroke-width:1" />
<line x1="337.2" y1="392.20000000000005" x2="457.2" y2="392.20000000000005" style="stroke:#00FF00;stroke-width:1" />
<line x1="337.2" y1="442.20000000000005" x2="457.2" y2="442.20000000000005" style="stroke:#00FF00;stroke-width:1" />
<text x="397.2" y="419.20000000000005" fill="red" dominant-baseline="middle" text-anchor="middle" font-family="Consolas" font-size="90">=</text>

<rect width="120" height="80" x="489.6" y="377.20000000000005" fill="#C0C0C0" />
<line x1="504.6" y1="377.20000000000005" x2="504.6" y2="457.20000000000005" style="stroke:#00FF00;stroke-width:1" />
<line x1="594.6" y1="377.20000000000005" x2="594.6" y2="457.20000000000005" style="stroke:#00FF00;stroke-width:1" />
<line x1="489.6" y1="392.20000000000005" x2="609.6" y2="392.20000000000005" style="stroke:#00FF00;stroke-width:1" />
<line x1="489.6" y1="442.20000000000005" x2="609.6" y2="442.20000000000005" style="stroke:#00FF00;stroke-width:1" />
<text x="549.6" y="419.20000000000005" fill="red" dominant-baseline="middle" text-anchor="middle" font-family="Consolas" font-size="90">></text>

<rect width="120" height="80" x="642.0" y="377.20000000000005" fill="#C0C0C0" />
<line x1="657.0" y1="377.20000000000005" x2="657.0" y2="457.20000000000005" style="stroke:#00FF00;stroke-width:1" />
<line x1="747.0" y1="377.20000000000005" x2="747.0" y2="457.20000000000005" style="stroke:#00FF00;stroke-width:1" />
<line x1="642.0" y1="392.20000000000005" x2="762.0" y2="392.20000000000005" style="stroke:#00FF00;stroke-width:1" />
<line x1="642.0" y1="442.20000000000005" x2="762.0" y2="442.20000000000005" style="stroke:#00FF00;stroke-width:1" />
<text x="702.0" y="445.20000000000005" fill="red" dominant-baseline="middle" text-anchor="middle" font-family="Consolas" font-size="120">^</text>

<rect width="120" height="80" x="32.4" y="529.6" fill="#C0C0C0" />
<line x1="47.4" y1="529.6" x2="47.4" y2="609.6" style="stroke:#00FF00;stroke-width:1" />
<line x1="137.4" y1="529.6" x2="137.4" y2="609.6" style="stroke:#00FF00;stroke-width:1" />
<line x1="32.4" y1="544.6" x2="152.4" y2="544.6" style="stroke:#00FF00;stroke-width:1" />
<line x1="32.4" y1="594.6" x2="152.4" y2="594.6" style="stroke:#00FF00;stroke-width:1" />
<text x="92.4" y="574.6" fill="red" dominant-baseline="middle" text-anchor="middle" font-family="Consolas" font-size="60">ENT</text>

<rect width="120" height="80" x="184.8" y="529.6" fill="#C0C0C0" />
<line x1="199.8" y1="529.6" x2="199.8" y2="609.6" style="stroke:#00FF00;stroke-width:1" />
<line x1="289.8" y1="529.6" x2="289.8" y2="609.6" style="stroke:#00FF00;stroke-width:1" />
<line x1="184.8" y1="544.6" x2="304.8" y2="544.6" style="stroke:#00FF00;stroke-width:1" />
<line x1="184.8" y1="594.6" x2="304.8" y2="594.6" style="stroke:#00FF00;stroke-width:1" />
<text x="244.8" y="574.6" fill="red" dominant-baseline="middle" text-anchor="middle" font-family="calibri" font-size="66">$</text>

<rect width="120" height="80" x="337.2" y="529.6" fill="#C0C0C0" />
<line x1="352.2" y1="529.6" x2="352.2" y2="609.6" style="stroke:#00FF00;stroke-width:1" />
<line x1="442.2" y1="529.6" x2="442.2" y2="609.6" style="stroke:#00FF00;stroke-width:1" />
<line x1="337.2" y1="544.6" x2="457.2" y2="544.6" style="stroke:#00FF00;stroke-width:1" />
<line x1="337.2" y1="594.6" x2="457.2" y2="594.6" style="stroke:#00FF00;stroke-width:1" />
<text x="397.2" y="584.6" fill="red" dominant-baseline="middle" text-anchor="middle" font-family="Consolas" font-size="90">"</text>

<rect width="120" height="80" x="489.6" y="529.6" fill="#C0C0C0" />
<line x1="504.6" y1="529.6" x2="504.6" y2="609.6" style="stroke:#00FF00;stroke-width:1" />
<line x1="594.6" y1="529.6" x2="594.6" y2="609.6" style="stroke:#00FF00;stroke-width:1" />
<line x1="489.6" y1="544.6" x2="609.6" y2="544.6" style="stroke:#00FF00;stroke-width:1" />
<line x1="489.6" y1="594.6" x2="609.6" y2="594.6" style="stroke:#00FF00;stroke-width:1" />
<text x="549.6" y="574.6" fill="red" dominant-baseline="middle" text-anchor="middle" font-family="Consolas" font-size="72">EE</text>

<rect width="120" height="80" x="642.0" y="529.6" fill="#C0C0C0" />
<line x1="657.0" y1="529.6" x2="657.0" y2="609.6" style="stroke:#00FF00;stroke-width:1" />
<line x1="747.0" y1="529.6" x2="747.0" y2="609.6" style="stroke:#00FF00;stroke-width:1" />
<line x1="642.0" y1="544.6" x2="762.0" y2="544.6" style="stroke:#00FF00;stroke-width:1" />
<line x1="642.0" y1="594.6" x2="762.0" y2="594.6" style="stroke:#00FF00;stroke-width:1" />
<text x="702.0" y="577.6" fill="red" dominant-baseline="middle" text-anchor="middle" font-family="Consolas" font-size="66">&#x1F868;</text>

<rect width="120" height="80" x="32.4" y="682.0" fill="#C0C0C0" />
<line x1="47.4" y1="682.0" x2="47.4" y2="762.0" style="stroke:#00FF00;stroke-width:1" />
<line x1="137.4" y1="682.0" x2="137.4" y2="762.0" style="stroke:#00FF00;stroke-width:1" />
<line x1="32.4" y1="697.0" x2="152.4" y2="697.0" style="stroke:#00FF00;stroke-width:1" />
<line x1="32.4" y1="747.0" x2="152.4" y2="747.0" style="stroke:#00FF00;stroke-width:1" />
<text x="92.4" y="722.5" fill="red" dominant-baseline="middle" text-anchor="middle" font-family="Consolas" font-size="84">a</text>

<rect width="120" height="80" x="184.8" y="682.0" fill="#C0C0C0" />
<line x1="199.8" y1="682.0" x2="199.8" y2="762.0" style="stroke:#00FF00;stroke-width:1" />
<line x1="289.8" y1="682.0" x2="289.8" y2="762.0" style="stroke:#00FF00;stroke-width:1" />
<line x1="184.8" y1="697.0" x2="304.8" y2="697.0" style="stroke:#00FF00;stroke-width:1" />
<line x1="184.8" y1="747.0" x2="304.8" y2="747.0" style="stroke:#00FF00;stroke-width:1" />
<text x="244.8" y="727.0" fill="red" dominant-baseline="middle" text-anchor="middle" font-family="Consolas" font-size="72">7</text>

<rect width="120" height="80" x="337.2" y="682.0" fill="#C0C0C0" />
<line x1="352.2" y1="682.0" x2="352.2" y2="762.0" style="stroke:#00FF00;stroke-width:1" />
<line x1="442.2" y1="682.0" x2="442.2" y2="762.0" style="stroke:#00FF00;stroke-width:1" />
<line x1="337.2" y1="697.0" x2="457.2" y2="697.0" style="stroke:#00FF00;stroke-width:1" />
<line x1="337.2" y1="747.0" x2="457.2" y2="747.0" style="stroke:#00FF00;stroke-width:1" />
<text x="397.2" y="727.0" fill="red" dominant-baseline="middle" text-anchor="middle" font-family="Consolas" font-size="72">8</text>

<rect width="120" height="80" x="489.6" y="682.0" fill="#C0C0C0" />
<line x1="504.6" y1="682.0" x2="504.6" y2="762.0" style="stroke:#00FF00;stroke-width:1" />
<line x1="594.6" y1="682.0" x2="594.6" y2="762.0" style="stroke:#00FF00;stroke-width:1" />
<line x1="489.6" y1="697.0" x2="609.6" y2="697.0" style="stroke:#00FF00;stroke-width:1" />
<line x1="489.6" y1="747.0" x2="609.6" y2="747.0" style="stroke:#00FF00;stroke-width:1" />
<text x="549.6" y="727.0" fill="red" dominant-baseline="middle" text-anchor="middle" font-family="Consolas" font-size="72">9</text>

<rect width="120" height="80" x="642.0" y="682.0" fill="#C0C0C0" />
<line x1="657.0" y1="682.0" x2="657.0" y2="762.0" style="stroke:#00FF00;stroke-width:1" />
<line x1="747.0" y1="682.0" x2="747.0" y2="762.0" style="stroke:#00FF00;stroke-width:1" />
<line x1="642.0" y1="697.0" x2="762.0" y2="697.0" style="stroke:#00FF00;stroke-width:1" />
<line x1="642.0" y1="747.0" x2="762.0" y2="747.0" style="stroke:#00FF00;stroke-width:1" />
<text x="702.0" y="724.0" fill="red" dominant-baseline="middle" text-anchor="middle" font-family="Consolas" font-size="100">&#xF7;</text>

<rect width="120" height="80" x="32.4" y="834.4" fill="#C0C0C0" />
<line x1="47.4" y1="834.4" x2="47.4" y2="914.4" style="stroke:#00FF00;stroke-width:1" />
<line x1="137.4" y1="834.4" x2="137.4" y2="914.4" style="stroke:#00FF00;stroke-width:1" />
<line x1="32.4" y1="849.4" x2="152.4" y2="849.4" style="stroke:#00FF00;stroke-width:1" />
<line x1="32.4" y1="899.4" x2="152.4" y2="899.4" style="stroke:#00FF00;stroke-width:1" />
<text x="92.4" y="882.4" fill="red" dominant-baseline="middle" text-anchor="middle" font-family="Consolas" font-size="66">&#x1F86A;</text>

<rect width="120" height="80" x="184.8" y="834.4" fill="#C0C0C0" />
<line x1="199.8" y1="834.4" x2="199.8" y2="914.4" style="stroke:#00FF00;stroke-width:1" />
<line x1="289.8" y1="834.4" x2="289.8" y2="914.4" style="stroke:#00FF00;stroke-width:1" />
<line x1="184.8" y1="849.4" x2="304.8" y2="849.4" style="stroke:#00FF00;stroke-width:1" />
<line x1="184.8" y1="899.4" x2="304.8" y2="899.4" style="stroke:#00FF00;stroke-width:1" />
<text x="244.8" y="879.4" fill="red" dominant-baseline="middle" text-anchor="middle" font-family="Consolas" font-size="72">4</text>

<rect width="120" height="80" x="337.2" y="834.4" fill="#C0C0C0" />
<line x1="352.2" y1="834.4" x2="352.2" y2="914.4" style="stroke:#00FF00;stroke-width:1" />
<line x1="442.2" y1="834.4" x2="442.2" y2="914.4" style="stroke:#00FF00;stroke-width:1" />
<line x1="337.2" y1="849.4" x2="457.2" y2="849.4" style="stroke:#00FF00;stroke-width:1" />
<line x1="337.2" y1="899.4" x2="457.2" y2="899.4" style="stroke:#00FF00;stroke-width:1" />
<text x="397.2" y="879.4" fill="red" dominant-baseline="middle" text-anchor="middle" font-family="Consolas" font-size="72">5</text>

<rect width="120" height="80" x="489.6" y="834.4" fill="#C0C0C0" />
<line x1="504.6" y1="834.4" x2="504.6" y2="914.4" style="stroke:#00FF00;stroke-width:1" />
<line x1="594.6" y1="834.4" x2="594.6" y2="914.4" style="stroke:#00FF00;stroke-width:1" />
<line x1="489.6" y1="849.4" x2="609.6" y2="849.4" style="stroke:#00FF00;stroke-width:1" />
<line x1="489.6" y1="899.4" x2="609.6" y2="899.4" style="stroke:#00FF00;stroke-width:1" />
<text x="549.6" y="879.4" fill="red" dominant-baseline="middle" text-anchor="middle" font-family="Consolas" font-size="72">6</text>

<rect width="120" height="80" x="642.0" y="834.4" fill="#C0C0C0" />
<line x1="657.0" y1="834.4" x2="657.0" y2="914.4" style="stroke:#00FF00;stroke-width:1" />
<line x1="747.0" y1="834.4" x2="747.0" y2="914.4" style="stroke:#00FF00;stroke-width:1" />
<line x1="642.0" y1="849.4" x2="762.0" y2="849.4" style="stroke:#00FF00;stroke-width:1" />
<line x1="642.0" y1="899.4" x2="762.0" y2="899.4" style="stroke:#00FF00;stroke-width:1" />
<text x="702.0" y="876.4" fill="red" dominant-baseline="middle" text-anchor="middle" font-family="Consolas" font-size="100">&#xD7;</text>

<rect width="120" height="80" x="32.4" y="986.8000000000001" fill="#C0C0C0" />
<line x1="47.4" y1="986.8000000000001" x2="47.4" y2="1066.8000000000002" style="stroke:#00FF00;stroke-width:1" />
<line x1="137.4" y1="986.8000000000001" x2="137.4" y2="1066.8000000000002" style="stroke:#00FF00;stroke-width:1" />
<line x1="32.4" y1="1001.8000000000001" x2="152.4" y2="1001.8000000000001" style="stroke:#00FF00;stroke-width:1" />
<line x1="32.4" y1="1051.8000000000002" x2="152.4" y2="1051.8000000000002" style="stroke:#00FF00;stroke-width:1" />
<text x="92.4" y="1031.8000000000002" fill="red" dominant-baseline="middle" text-anchor="middle" font-weight="bold" font-family="calibri" font-size="66">@</text>

<rect width="120" height="80" x="184.8" y="986.8000000000001" fill="#C0C0C0" />
<line x1="199.8" y1="986.8000000000001" x2="199.8" y2="1066.8000000000002" style="stroke:#00FF00;stroke-width:1" />
<line x1="289.8" y1="986.8000000000001" x2="289.8" y2="1066.8000000000002" style="stroke:#00FF00;stroke-width:1" />
<line x1="184.8" y1="1001.8000000000001" x2="304.8" y2="1001.8000000000001" style="stroke:#00FF00;stroke-width:1" />
<line x1="184.8" y1="1051.8000000000002" x2="304.8" y2="1051.8000000000002" style="stroke:#00FF00;stroke-width:1" />
<text x="244.8" y="1031.8000000000002" fill="red" dominant-baseline="middle" text-anchor="middle" font-family="Consolas" font-size="72">1</text>

<rect width="120" height="80" x="337.2" y="986.8000000000001" fill="#C0C0C0" />
<line x1="352.2" y1="986.8000000000001" x2="352.2" y2="1066.8000000000002" style="stroke:#00FF00;stroke-width:1" />
<line x1="442.2" y1="986.8000000000001" x2="442.2" y2="1066.8000000000002" style="stroke:#00FF00;stroke-width:1" />
<line x1="337.2" y1="1001.8000000000001" x2="457.2" y2="1001.8000000000001" style="stroke:#00FF00;stroke-width:1" />
<line x1="337.2" y1="1051.8000000000002" x2="457.2" y2="1051.8000000000002" style="stroke:#00FF00;stroke-width:1" />
<text x="397.2" y="1031.8000000000002" fill="red" dominant-baseline="middle" text-anchor="middle" font-family="Consolas" font-size="72">2</text>

<rect width="120" height="80" x="489.6" y="986.8000000000001" fill="#C0C0C0" />
<line x1="504.6" y1="986.8000000000001" x2="504.6" y2="1066.8000000000002" style="stroke:#00FF00;stroke-width:1" />
<line x1="594.6" y1="986.8000000000001" x2="594.6" y2="1066.8000000000002" style="stroke:#00FF00;stroke-width:1" />
<line x1="489.6" y1="1001.8000000000001" x2="609.6" y2="1001.8000000000001" style="stroke:#00FF00;stroke-width:1" />
<line x1="489.6" y1="1051.8000000000002" x2="609.6" y2="1051.8000000000002" style="stroke:#00FF00;stroke-width:1" />
<text x="549.6" y="1031.8000000000002" fill="red" dominant-baseline="middle" text-anchor="middle" font-family="Consolas" font-size="72">3</text>

<rect width="120" height="80" x="642.0" y="986.8000000000001" fill="#C0C0C0" />
<line x1="657.0" y1="986.8000000000001" x2="657.0" y2="1066.8000000000002" style="stroke:#00FF00;stroke-width:1" />
<line x1="747.0" y1="986.8000000000001" x2="747.0" y2="1066.8000000000002" style="stroke:#00FF00;stroke-width:1" />
<line x1="642.0" y1="1001.8000000000001" x2="762.0" y2="1001.8000000000001" style="stroke:#00FF00;stroke-width:1" />
<line x1="642.0" y1="1051.8000000000002" x2="762.0" y2="1051.8000000000002" style="stroke:#00FF00;stroke-width:1" />
<text x="702.0" y="1028.8000000000002" fill="red" dominant-baseline="middle" text-anchor="middle" font-family="Consolas" font-size="100">-</text>

<rect width="120" height="80" x="32.4" y="1139.2" fill="#C0C0C0" />
<line x1="47.4" y1="1139.2" x2="47.4" y2="1219.2" style="stroke:#00FF00;stroke-width:1" />
<line x1="137.4" y1="1139.2" x2="137.4" y2="1219.2" style="stroke:#00FF00;stroke-width:1" />
<line x1="32.4" y1="1154.2" x2="152.4" y2="1154.2" style="stroke:#00FF00;stroke-width:1" />
<line x1="32.4" y1="1204.2" x2="152.4" y2="1204.2" style="stroke:#00FF00;stroke-width:1" />
<text x="92.4" y="1184.2" fill="red" dominant-baseline="middle" text-anchor="middle" font-family="Consolas" font-size="72">ON</text>

<rect width="120" height="80" x="184.8" y="1139.2" fill="#C0C0C0" />
<line x1="199.8" y1="1139.2" x2="199.8" y2="1219.2" style="stroke:#00FF00;stroke-width:1" />
<line x1="289.8" y1="1139.2" x2="289.8" y2="1219.2" style="stroke:#00FF00;stroke-width:1" />
<line x1="184.8" y1="1154.2" x2="304.8" y2="1154.2" style="stroke:#00FF00;stroke-width:1" />
<line x1="184.8" y1="1204.2" x2="304.8" y2="1204.2" style="stroke:#00FF00;stroke-width:1" />
<text x="244.8" y="1184.2" fill="red" dominant-baseline="middle" text-anchor="middle" font-family="Consolas" font-size="72">0</text>

<rect width="120" height="80" x="337.2" y="1139.2" fill="#C0C0C0" />
<line x1="352.2" y1="1139.2" x2="352.2" y2="1219.2" style="stroke:#00FF00;stroke-width:1" />
<line x1="442.2" y1="1139.2" x2="442.2" y2="1219.2" style="stroke:#00FF00;stroke-width:1" />
<line x1="337.2" y1="1154.2" x2="457.2" y2="1154.2" style="stroke:#00FF00;stroke-width:1" />
<line x1="337.2" y1="1204.2" x2="457.2" y2="1204.2" style="stroke:#00FF00;stroke-width:1" />
<text x="397.2" y="1180.2" fill="red" dominant-baseline="middle" text-anchor="middle" font-family="Consolas" font-size="72">.</text>

<rect width="120" height="80" x="489.6" y="1139.2" fill="#C0C0C0" />
<line x1="504.6" y1="1139.2" x2="504.6" y2="1219.2" style="stroke:#00FF00;stroke-width:1" />
<line x1="594.6" y1="1139.2" x2="594.6" y2="1219.2" style="stroke:#00FF00;stroke-width:1" />
<line x1="489.6" y1="1154.2" x2="609.6" y2="1154.2" style="stroke:#00FF00;stroke-width:1" />
<line x1="489.6" y1="1204.2" x2="609.6" y2="1204.2" style="stroke:#00FF00;stroke-width:1" />
<text x="549.6" y="1184.2" fill="red" dominant-baseline="middle" text-anchor="middle" font-family="Consolas" font-size="72">SP</text>

<rect width="120" height="80" x="642.0" y="1139.2" fill="#C0C0C0" />
<line x1="657.0" y1="1139.2" x2="657.0" y2="1219.2" style="stroke:#00FF00;stroke-width:1" />
<line x1="747.0" y1="1139.2" x2="747.0" y2="1219.2" style="stroke:#00FF00;stroke-width:1" />
<line x1="642.0" y1="1154.2" x2="762.0" y2="1154.2" style="stroke:#00FF00;stroke-width:1" />
<line x1="642.0" y1="1204.2" x2="762.0" y2="1204.2" style="stroke:#00FF00;stroke-width:1" />
<text x="702.0" y="1181.2" fill="red" dominant-baseline="middle" text-anchor="middle" font-family="Consolas" font-size="100">+</text>

</svg>